<svg width="50" height="50" viewBox="0 0 50 50" fill="none" xmlns="http://www.w3.org/2000/svg">
<g clip-path="url(#clip0)">
<path d="M44.1384 34.3897C42.7944 38.032 40.762 41.1989 38.0966 43.8017C35.0628 46.7642 31.0902 49.1183 26.289 50.7975C26.1314 50.8524 25.967 50.8974 25.8019 50.9306C25.5837 50.9737 25.3616 50.997 25.1415 51H25.0984C24.8638 51 24.6281 50.9764 24.3942 50.9306C24.2291 50.8974 24.0669 50.8524 23.9101 50.7986C19.1032 49.1221 15.1257 46.7692 12.0888 43.8067C9.42229 41.2039 7.3902 38.0388 6.04819 34.3966C3.60793 27.7742 3.74678 20.479 3.85855 14.6166L3.86046 14.5265C3.88297 14.0425 3.89746 13.534 3.90547 12.9724C3.94629 10.2156 6.13822 7.93475 8.89548 7.78101C14.6442 7.4602 19.0914 5.58527 22.8912 1.88158L22.9244 1.85106C23.5554 1.27237 24.3504 0.98856 25.1415 1.00039C25.9045 1.0103 26.6644 1.29374 27.2728 1.85106L27.3052 1.88158C31.1058 5.58527 35.553 7.4602 41.3017 7.78101C44.059 7.93475 46.2509 10.2156 46.2918 12.9724C46.2998 13.5378 46.3143 14.0455 46.3368 14.5265L46.3379 14.5647C46.4493 20.4382 46.5874 27.7479 44.1384 34.3897Z" fill="#00DD80"/>
<path d="M44.1384 34.3897C42.7945 38.032 40.762 41.1989 38.0967 43.8017C35.0629 46.7642 31.0903 49.1183 26.2891 50.7975C26.1315 50.8524 25.9671 50.8974 25.8019 50.9306C25.5837 50.9737 25.3617 50.997 25.1416 51.0001V1.0004C25.9045 1.01031 26.6644 1.29375 27.2729 1.85107L27.3053 1.88159C31.1059 5.58528 35.5531 7.46021 41.3018 7.78103C44.0591 7.93476 46.251 10.2156 46.2918 12.9725C46.2999 13.5378 46.3144 14.0455 46.3369 14.5266L46.338 14.5647C46.4494 20.4382 46.5875 27.7479 44.1384 34.3897Z" fill="#00AA63"/>
<path d="M37.5583 26C37.5583 32.8562 31.9915 38.4371 25.1411 38.4615H25.0972C18.2266 38.4615 12.6357 32.8711 12.6357 26C12.6357 19.1294 18.2266 13.5389 25.0972 13.5389H25.1411C31.9915 13.5633 37.5583 19.1442 37.5583 26Z" fill="white"/>
<path d="M37.5589 26C37.5589 32.8562 31.9921 38.4371 25.1416 38.4615V13.5389C31.9921 13.5633 37.5589 19.1442 37.5589 26Z" fill="#E1EBF0"/>
<path d="M30.7534 24.2055L25.1413 29.8185L23.9286 31.0312C23.6421 31.3176 23.2663 31.4607 22.891 31.4607C22.5152 31.4607 22.1399 31.3176 21.853 31.0312L19.2456 28.4227C18.6727 27.8497 18.6727 26.9216 19.2456 26.3482C19.8178 25.7753 20.7471 25.7753 21.3201 26.3482L22.891 27.9191L28.679 22.1311C29.252 21.5577 30.1812 21.5577 30.7534 22.1311C31.3264 22.7041 31.3264 23.6333 30.7534 24.2055Z" fill="#B4D2D7"/>
<path d="M30.7538 24.2055L25.1416 29.8185V25.6685L28.6793 22.1311C29.2523 21.5577 30.1816 21.5577 30.7538 22.1311C31.3267 22.7041 31.3267 23.6333 30.7538 24.2055Z" fill="#6FA5AA"/>
</g>
<defs>
<clipPath id="clip0">
<rect width="50" height="50" fill="white"/>
</clipPath>
</defs>
</svg>
