<svg width="43" height="33" viewBox="0 0 43 33" fill="none" xmlns="http://www.w3.org/2000/svg">
<path d="M39.2181 0H3.56531C1.59895 0 0 1.59895 0 3.56531V28.5223C0 30.4886 1.59895 32.0876 3.56531 32.0876H39.2182C41.1845 32.0876 42.7834 30.4886 42.7834 28.5222V3.56531C42.7834 1.59895 41.1845 0 39.2181 0ZM3.56531 1.78261H39.2182C39.3495 1.78261 39.4653 1.8305 39.5885 1.85757C36.5019 4.68253 26.2669 14.0457 22.6852 17.2728C22.405 17.5252 21.9532 17.8264 21.3918 17.8264C20.8303 17.8264 20.3786 17.5252 20.0974 17.272C16.5161 14.0454 6.28055 4.68169 3.19438 1.85774C3.31789 1.83066 3.43387 1.78261 3.56531 1.78261ZM1.78261 28.5222V3.56531C1.78261 3.39067 1.83526 3.23224 1.88239 3.07263C4.24483 5.23487 11.3863 11.768 16.017 15.9789C11.4014 19.9437 4.25804 26.7162 1.87679 28.9868C1.83476 28.8353 1.78261 28.687 1.78261 28.5222ZM39.2181 30.3049H3.56531C3.42292 30.3049 3.29633 30.2553 3.16338 30.2236C5.62401 27.8778 12.8128 21.0664 17.3473 17.1872C17.9384 17.7234 18.4783 18.2124 18.904 18.5959C19.6387 19.2592 20.4986 19.6091 21.3917 19.6091C22.2848 19.6091 23.1447 19.2591 23.8785 18.5967C24.3043 18.213 24.8447 17.7237 25.4362 17.1872C29.9709 21.066 37.1586 27.8769 39.62 30.2236C39.4871 30.2553 39.3607 30.3049 39.2181 30.3049ZM41.0008 28.5222C41.0008 28.6869 40.9487 28.8353 40.9067 28.9868C38.5245 26.715 31.382 19.9433 26.7665 15.979C31.3973 11.7681 38.5377 5.23554 40.901 3.07247C40.9482 3.23207 41.0008 3.39059 41.0008 3.56523V28.5222Z" fill="#2CB357"/>
</svg>
