<svg width="35" height="35" viewBox="0 0 35 35" fill="none" xmlns="http://www.w3.org/2000/svg">
<rect width="35" height="35" fill="#3D3D3D"/>
<rect width="1440" height="4217" transform="translate(-456 -3740)" fill="white"/>
<rect x="-456" y="-67" width="1440" height="309" fill="url(#paint0_linear)"/>
<path d="M17.5 0.557294C26.8577 0.557294 34.4427 8.14285 34.4427 17.5C34.4427 26.8577 26.8577 34.4427 17.5 34.4427C8.14285 34.4427 0.557294 26.8577 0.557294 17.5C0.557294 8.14286 8.14286 0.557294 17.5 0.557294Z" stroke="white" stroke-width="1.11459"/>
<path d="M23.7437 9.84302L17.4947 9.85184C16.5063 9.85184 15.765 10.0977 15.0233 10.8368L8.0969 17.6748C7.51783 18.2515 7.51783 19.1867 8.0969 19.7636L15.2668 26.905C15.8458 27.4816 16.7848 27.4816 17.3637 26.905L24.4146 19.9441C25.1558 19.2052 25.1558 17.5846 25.1558 17.2366V11.329C25.1558 10.5132 24.5624 9.84302 23.7437 9.84302ZM21.6011 14.2188C21.148 14.2188 20.7808 13.8515 20.7808 13.3985C20.7808 12.9454 21.148 12.5781 21.6011 12.5781C22.0542 12.5781 22.4214 12.9454 22.4214 13.3985C22.4214 13.8515 22.0542 14.2188 21.6011 14.2188Z" fill="white"/>
<path d="M21.6021 11.7583C20.6965 11.7583 19.9614 12.493 19.9614 13.3989C19.9614 14.3048 20.6964 15.0396 21.6021 15.0396C22.5077 15.0396 23.2427 14.3048 23.2427 13.3989C23.2427 12.493 22.5077 11.7583 21.6021 11.7583ZM21.6021 14.1C21.2148 14.1 20.901 13.786 20.901 13.3989C20.901 13.0117 21.2149 12.6978 21.6021 12.6978C21.9893 12.6978 22.3031 13.0117 22.3031 13.3989C22.3031 13.786 21.9893 14.1 21.6021 14.1Z" fill="#95CB6A"/>
<path d="M20.3782 17.6242C19.8442 17.0905 18.9785 17.0905 18.445 17.6242C17.911 18.1582 17.911 19.0239 18.445 19.5574C18.9785 20.0914 19.8442 20.0914 20.3782 19.5574C20.9125 19.0239 20.9125 18.1582 20.3782 17.6242ZM19.7982 18.9774C19.5847 19.1909 19.2379 19.1909 19.0249 18.9774C18.8114 18.7641 18.8114 18.4177 19.0249 18.2043C19.2379 17.9909 19.5846 17.9909 19.7982 18.2043C20.0121 18.4176 20.0121 18.7641 19.7982 18.9774ZM12.7026 17.6242C12.1688 18.1582 12.1688 19.0239 12.7026 19.5574C13.2366 20.0914 14.1023 20.0914 14.636 19.5574C15.1701 19.0239 15.1701 18.1582 14.636 17.6242C14.1023 17.0904 13.2366 17.0904 12.7026 17.6242ZM14.056 18.9774C13.8425 19.1909 13.496 19.1909 13.2827 18.9774C13.0692 18.7641 13.0692 18.4177 13.2827 18.2043C13.496 17.9909 13.8425 17.9909 14.056 18.2043C14.2698 18.4176 14.2698 18.7641 14.056 18.9774ZM16.5444 14.219C16.3181 14.219 16.1342 14.4027 16.1342 14.6292V22.5589C16.1342 22.7852 16.3179 22.9691 16.5444 22.9691C16.7708 22.9691 16.9546 22.7854 16.9546 22.5589V14.6292C16.9545 14.4028 16.7708 14.219 16.5444 14.219Z" fill="#95CB6A"/>
<defs>
<linearGradient id="paint0_linear" x1="984" y1="88.0001" x2="-456" y2="88" gradientUnits="userSpaceOnUse">
<stop stop-color="#258C45"/>
<stop offset="0.1059" stop-color="#2B8C49"/>
<stop offset="0.5473" stop-color="#82C482"/>
<stop offset="0.8548" stop-color="#B3D744"/>
<stop offset="1" stop-color="#C6DE2C"/>
</linearGradient>
</defs>
</svg>
