<svg width="30" height="30" viewBox="0 0 30 30" fill="none" xmlns="http://www.w3.org/2000/svg">
<path d="M14.7106 5.77273C17.7479 5.77273 20.4954 7.33601 22.0701 9.49007L25.8022 5.71986C23.5701 2.80853 19.274 0.5 14.7106 0.5C6.72029 0.5 0.166748 6.98552 0.166748 15C0.166748 23.0145 6.72029 29.5 14.7106 29.5C21.3343 29.5 26.9063 25.0446 28.6147 18.9545C28.9826 17.6889 29.1667 16.3707 29.1667 15V13.6818H16.0248V18.9535H22.99C21.5444 22.0646 18.364 24.2273 14.7106 24.2273C9.63788 24.2273 5.42355 20.088 5.42355 15C5.42355 9.91195 9.63788 5.77273 14.7106 5.77273Z" fill="#FF0505"/>
</svg>
