<svg width="16" height="16" viewBox="0 0 16 16" fill="none" xmlns="http://www.w3.org/2000/svg">
<circle cx="8" cy="8" r="8" fill="#5EA646"/>
<path d="M9.51562 3.55273C9.63672 3.55273 9.73633 3.59375 9.81445 3.67578C9.89258 3.75391 9.93164 3.85547 9.93164 3.98047C9.93164 4.15234 9.87109 4.30469 9.75 4.4375C9.63281 4.56641 9.5 4.63086 9.35156 4.63086C9.23438 4.63086 9.13672 4.58984 9.05859 4.50781C8.98047 4.42578 8.94141 4.31836 8.94141 4.18555C8.94141 4.00977 8.99805 3.86133 9.11133 3.74023C9.22461 3.61523 9.35938 3.55273 9.51562 3.55273ZM7.20703 7.43164L6.94922 7.23242C7.33984 6.80273 7.69531 6.49805 8.01562 6.31836C8.33984 6.13477 8.61523 6.04297 8.8418 6.04297C8.9668 6.04297 9.0625 6.07031 9.12891 6.125C9.19531 6.17969 9.22852 6.25391 9.22852 6.34766C9.22852 6.46094 9.10156 6.94141 8.84766 7.78906C8.43359 9.17578 8.22656 10.0117 8.22656 10.2969C8.22656 10.3516 8.24023 10.3984 8.26758 10.4375C8.29492 10.4727 8.32422 10.4902 8.35547 10.4902C8.48047 10.4902 8.80078 10.248 9.31641 9.76367L9.54492 9.98633C9.00977 10.4902 8.61914 10.8125 8.37305 10.9531C8.12695 11.0938 7.92578 11.1641 7.76953 11.1641C7.63281 11.1641 7.52344 11.1211 7.44141 11.0352C7.36328 10.9492 7.32422 10.8301 7.32422 10.6777C7.32422 10.1895 7.61719 8.99609 8.20312 7.09766C8.23047 7.00781 8.24414 6.92773 8.24414 6.85742C8.24414 6.7793 8.20898 6.74023 8.13867 6.74023C8.06055 6.74023 7.9707 6.77148 7.86914 6.83398C7.77148 6.89648 7.55078 7.0957 7.20703 7.43164Z" fill="white"/>
</svg>
