<svg width="484" height="371" viewBox="0 0 484 371" fill="none" xmlns="http://www.w3.org/2000/svg">
<g clip-path="url(#clip0)">
<path opacity="0.1" d="M474.571 100.43C469.783 89.3098 463.31 78.9934 455.379 69.8443L189.056 67.2191L408.327 36.4222C394.162 30.7827 379.082 27.7918 363.836 27.5982C342.861 10.8314 317.033 1.28381 290.195 0.375786C263.357 -0.53224 236.943 7.24778 214.882 22.5585C197.25 13.4908 177.702 8.77786 157.874 8.81397C98.6995 8.81397 49.3933 49.8002 38.3335 104.146L474.571 100.43Z" fill="#5EA646"/>
<path opacity="0.1" d="M483.936 146.012C483.949 131.273 481.133 116.668 475.639 102.992L14.0698 151.441C9.32694 160.05 5.69828 169.227 3.2712 178.751L146.214 200.055L0 215.591C4.39825 277.116 57.1406 325.699 121.57 325.699C154.003 325.699 183.476 313.388 205.311 293.312C227.215 313.769 256.972 326.349 289.753 326.349C338.395 326.349 380.375 298.654 399.925 258.612C439.147 246.164 469.614 214.909 480.042 175.806L299.283 147.771H483.918C483.927 147.185 483.936 146.598 483.936 146.012Z" fill="#5EA646"/>
<path opacity="0.1" d="M12.8788 340.41C19.412 340.41 24.7082 339.682 24.7082 338.784C24.7082 337.885 19.412 337.157 12.8788 337.157C6.34555 337.157 1.04932 337.885 1.04932 338.784C1.04932 339.682 6.34555 340.41 12.8788 340.41Z" fill="#5EA646"/>
<path opacity="0.1" d="M58.1942 345.005C64.7274 345.005 70.0237 344.277 70.0237 343.379C70.0237 342.481 64.7274 341.752 58.1942 341.752C51.661 341.752 46.3647 342.481 46.3647 343.379C46.3647 344.277 51.661 345.005 58.1942 345.005Z" fill="#5EA646"/>
<path opacity="0.1" d="M111.574 338.784C118.107 338.784 123.403 338.055 123.403 337.157C123.403 336.259 118.107 335.531 111.574 335.531C105.04 335.531 99.7441 336.259 99.7441 337.157C99.7441 338.055 105.04 338.784 111.574 338.784Z" fill="#5EA646"/>
<path opacity="0.1" d="M40.0562 357.618C44.7018 357.618 48.4678 357.101 48.4678 356.464C48.4678 355.826 44.7018 355.309 40.0562 355.309C35.4106 355.309 31.6445 355.826 31.6445 356.464C31.6445 357.101 35.4106 357.618 40.0562 357.618Z" fill="#5EA646"/>
<path opacity="0.1" d="M87.0943 356.464C91.7399 356.464 95.5059 355.947 95.5059 355.309C95.5059 354.672 91.7399 354.155 87.0943 354.155C82.4486 354.155 78.6826 354.672 78.6826 355.309C78.6826 355.947 82.4486 356.464 87.0943 356.464Z" fill="#5EA646"/>
<path d="M58.4511 343.012C58.4511 343.012 41.8569 288.621 61.0442 266.836C75.4027 250.535 91.6945 252.486 98.9929 254.502C100.881 255.005 102.638 255.913 104.141 257.162C105.644 258.411 106.858 259.972 107.698 261.736C110.25 267.234 109.787 276.173 91.777 286.6C61.6215 304.06 59.7477 328.008 59.7477 328.008L58.4511 343.012Z" fill="url(#paint0_linear)"/>
<path d="M96.3947 262.217C96.3947 262.217 47.4824 277.511 58.4506 343.012" stroke="#565987" stroke-width="0.458151" stroke-miterlimit="10"/>
<path d="M67.8291 267.701C67.8291 267.701 74.5639 272.237 72.4106 279.059" stroke="#565987" stroke-width="0.458151" stroke-miterlimit="10"/>
<path d="M91.4882 271.733C91.4882 271.733 87.3648 267.546 82.3618 269.855" stroke="#565987" stroke-width="0.458151" stroke-miterlimit="10"/>
<path d="M72.1541 292.808C72.1541 292.808 64.9244 289.143 63.0552 293.724" stroke="#565987" stroke-width="0.458151" stroke-miterlimit="10"/>
<path d="M54.2632 300.45C54.2632 300.45 59.6923 300.019 59.7931 302.617" stroke="#565987" stroke-width="0.458151" stroke-miterlimit="10"/>
<path d="M57.7915 343.448C57.7915 343.448 77.2263 303.914 82.5637 304.78C85.0973 305.192 86.2656 307.684 86.797 310.19C87.4557 313.438 87.0857 316.811 85.7387 319.839C82.9898 326.139 75.5586 338.165 57.7915 343.448Z" fill="url(#paint1_linear)"/>
<path d="M82.4029 312.284C82.4029 312.284 62.006 341.862 58.0659 343.159" stroke="#565987" stroke-width="0.458151" stroke-miterlimit="10"/>
<path d="M84.2817 316.898H79.5215" stroke="#565987" stroke-width="0.458151" stroke-miterlimit="10"/>
<path d="M78.5774 327.719L71.1187 328.04" stroke="#565987" stroke-width="0.458151" stroke-miterlimit="10"/>
<path d="M74.0376 319.065L74.8485 322.95" stroke="#565987" stroke-width="0.458151" stroke-miterlimit="10"/>
<path d="M66.1021 330.894L66.2487 334.427" stroke="#565987" stroke-width="0.458151" stroke-miterlimit="10"/>
<path d="M58.3549 343.448C58.3549 343.448 38.9201 303.914 33.5826 304.78C31.0491 305.192 29.8808 307.684 29.3493 310.19C28.6958 313.43 29.0673 316.793 30.4122 319.812C33.1657 326.139 40.574 338.165 58.3549 343.448Z" fill="url(#paint2_linear)"/>
<path d="M33.7295 312.284C33.7295 312.284 54.1264 341.862 58.0665 343.159" stroke="#565987" stroke-width="0.458151" stroke-miterlimit="10"/>
<path d="M31.855 316.898H36.6152" stroke="#565987" stroke-width="0.458151" stroke-miterlimit="10"/>
<path d="M37.5547 327.719L45.018 328.04" stroke="#565987" stroke-width="0.458151" stroke-miterlimit="10"/>
<path d="M42.0995 319.065L41.2886 322.95" stroke="#565987" stroke-width="0.458151" stroke-miterlimit="10"/>
<path d="M50.0348 330.894L49.8882 334.427" stroke="#565987" stroke-width="0.458151" stroke-miterlimit="10"/>
<path d="M91.7217 352.679C92.2516 352.249 92.6382 351.667 92.8304 351.012C92.9155 350.683 92.885 350.334 92.7441 350.025C92.6032 349.715 92.3603 349.464 92.0561 349.312C91.346 349.037 90.5854 349.532 90.0128 350.027C89.4401 350.521 88.7757 351.094 88.0244 350.989C88.4079 350.636 88.6938 350.189 88.8543 349.693C89.0148 349.197 89.0446 348.668 88.9407 348.157C88.9091 347.945 88.8204 347.746 88.6841 347.58C88.2901 347.159 87.5754 347.342 87.1035 347.672C85.6008 348.726 85.1838 350.764 85.1747 352.601C85.0921 351.928 85.0829 351.247 85.1472 350.572C85.1472 349.894 84.9548 349.138 84.3821 348.776C84.0277 348.581 83.6271 348.486 83.223 348.501C82.5449 348.501 81.7981 348.542 81.3354 349.037C80.7627 349.651 80.9093 350.677 81.4087 351.355C81.9657 351.983 82.6258 352.512 83.3604 352.918C83.9113 353.253 84.3807 353.707 84.7349 354.246C84.7759 354.322 84.8096 354.402 84.8357 354.484H89.0644C90.0288 354.008 90.9229 353.4 91.7217 352.679Z" fill="#5EA646"/>
<path d="M17.671 336.759C18.2014 336.328 18.5881 335.746 18.7797 335.091C18.8642 334.761 18.8335 334.412 18.6927 334.102C18.5519 333.792 18.3094 333.54 18.0055 333.387C17.2953 333.116 16.5394 333.611 15.9621 334.106C15.3848 334.601 14.7297 335.169 13.9737 335.063C14.3584 334.711 14.645 334.265 14.8056 333.769C14.9662 333.272 14.9953 332.743 14.89 332.232C14.8557 332.021 14.7655 331.824 14.6289 331.659C14.2349 331.238 13.5202 331.417 13.0483 331.751C11.5455 332.805 11.1286 334.844 11.1194 336.681C11.0369 336.006 11.0277 335.324 11.092 334.647C11.092 333.968 10.9041 333.217 10.3314 332.855C9.97534 332.66 9.5733 332.565 9.16772 332.58C8.49424 332.553 7.74287 332.621 7.28014 333.116C6.70745 333.73 6.85864 334.756 7.35344 335.407C7.9098 336.039 8.57176 336.569 9.30975 336.974C9.86194 337.308 10.3317 337.762 10.6842 338.303C10.7256 338.379 10.7609 338.459 10.7896 338.541H15.0183C15.9793 338.07 16.8717 337.47 17.671 336.759Z" fill="#5EA646"/>
<path d="M42.3515 352.679C42.8815 352.249 43.2681 351.667 43.4603 351.012C43.5454 350.683 43.5149 350.334 43.374 350.025C43.233 349.715 42.9902 349.464 42.686 349.312C41.9759 349.037 41.2153 349.532 40.6426 350.027C40.07 350.521 39.4056 351.094 38.6543 350.989C39.0378 350.636 39.3237 350.189 39.4842 349.693C39.6447 349.197 39.6745 348.668 39.5706 348.157C39.539 347.945 39.4503 347.746 39.314 347.58C38.92 347.159 38.2053 347.342 37.7334 347.672C36.2306 348.726 35.8137 350.764 35.8046 352.601C35.722 351.928 35.7128 351.247 35.7771 350.572C35.7771 349.894 35.5892 349.138 35.0165 348.776C34.6603 348.582 34.2584 348.487 33.8528 348.501C33.1794 348.501 32.428 348.542 31.9653 349.037C31.3926 349.651 31.5392 350.677 32.0386 351.355C32.5956 351.983 33.2557 352.512 33.9903 352.918C34.5411 353.253 35.0106 353.707 35.3647 354.246C35.4058 354.322 35.4395 354.402 35.4655 354.484H39.6943C40.6587 354.008 41.5528 353.4 42.3515 352.679Z" fill="#5EA646"/>
<path d="M112.343 320.494C112.343 320.494 113.929 322.57 111.61 325.699C109.292 328.828 107.386 331.472 108.156 333.423C108.156 333.423 111.652 327.609 114.497 327.527C117.342 327.444 115.473 323.99 112.343 320.494Z" fill="#5EA646"/>
<path opacity="0.1" d="M112.343 320.494C112.481 320.695 112.591 320.914 112.668 321.145C115.445 324.407 116.92 327.449 114.254 327.527C111.766 327.6 108.788 332.044 108.073 333.167C108.096 333.254 108.124 333.336 108.156 333.423C108.156 333.423 111.651 327.609 114.497 327.527C117.342 327.444 115.472 323.99 112.343 320.494Z" fill="black"/>
<path d="M115.289 323.138C115.289 323.866 115.206 324.457 115.106 324.457C115.005 324.457 114.922 323.866 114.922 323.138C114.922 322.409 115.028 322.753 115.129 322.753C115.229 322.753 115.289 322.409 115.289 323.138Z" fill="#FFD037"/>
<path d="M116.302 324.008C115.661 324.356 115.102 324.567 115.056 324.466C115.01 324.366 115.486 324.008 116.128 323.674C116.769 323.339 116.513 323.578 116.563 323.674C116.613 323.77 116.943 323.66 116.302 324.008Z" fill="#FFD037"/>
<path d="M103.968 320.494C103.968 320.494 102.383 322.57 104.701 325.699C107.019 328.828 108.93 331.472 108.156 333.423C108.156 333.423 104.66 327.609 101.815 327.527C98.9698 327.444 100.857 323.99 103.968 320.494Z" fill="#5EA646"/>
<path opacity="0.1" d="M103.968 320.494C103.831 320.695 103.723 320.914 103.647 321.145C100.871 324.407 99.3913 327.449 102.058 327.527C104.545 327.6 107.528 332.044 108.243 333.167C108.215 333.254 108.188 333.336 108.156 333.423C108.156 333.423 104.66 327.609 101.815 327.527C98.9698 327.444 100.857 323.99 103.968 320.494Z" fill="black"/>
<path d="M101.022 323.138C101.022 323.866 101.105 324.457 101.206 324.457C101.307 324.457 101.389 323.866 101.389 323.138C101.389 322.409 101.288 322.753 101.187 322.753C101.087 322.753 101.022 322.409 101.022 323.138Z" fill="#FFD037"/>
<path d="M100.01 324.008C100.651 324.356 101.21 324.567 101.261 324.466C101.311 324.366 100.825 324.008 100.188 323.674C99.5517 323.339 99.7991 323.578 99.7303 323.674C99.6616 323.77 99.373 323.66 100.01 324.008Z" fill="#FFD037"/>
<path d="M101.526 333.148C101.526 333.148 105.961 333.015 107.294 332.063C108.628 331.11 114.112 329.973 114.446 331.499C114.781 333.025 121.103 339.086 116.1 339.127C111.097 339.168 104.477 338.348 103.144 337.537C101.81 336.727 101.526 333.148 101.526 333.148Z" fill="#A8A8A8"/>
<path opacity="0.2" d="M116.192 338.596C111.189 338.637 104.564 337.817 103.231 337.006C102.214 336.387 101.81 334.17 101.678 333.144H101.526C101.526 333.144 101.81 336.722 103.144 337.533C104.477 338.344 111.097 339.164 116.1 339.123C117.548 339.123 118.043 338.596 118.015 337.835C117.809 338.303 117.264 338.587 116.192 338.596Z" fill="black"/>
<path opacity="0.1" d="M280.567 370.9C363.92 370.9 431.491 367.836 431.491 364.055C431.491 360.275 363.92 357.21 280.567 357.21C197.214 357.21 129.643 360.275 129.643 364.055C129.643 367.836 197.214 370.9 280.567 370.9Z" fill="#5EA646"/>
<path d="M265.192 159.413C265.192 159.413 274.813 177.615 275.56 180.213C275.754 180.934 276.173 181.574 276.757 182.041C277.34 182.507 278.057 182.775 278.803 182.806C278.803 182.806 288.388 185.097 290.678 185.404C292.969 185.711 312.826 187.388 312.826 187.388C312.826 187.388 317.865 187.543 318.475 185.711C319.033 184.034 328.769 175.224 334.404 182.912C334.924 183.623 335.269 184.446 335.41 185.316C335.552 186.185 335.487 187.075 335.22 187.915C334.185 191.213 332.059 196.45 329.777 193.192C326.57 188.611 322.841 189.898 322.841 192.34C322.841 194.782 317.709 193.875 316.033 194.219C315.116 194.407 311.964 195.245 309.238 195.978C306.074 196.833 302.833 197.372 299.562 197.586C294.151 197.939 286.175 198.232 283.348 197.165C279.935 195.868 273.983 195.57 271.436 195.501C270.592 195.481 269.778 195.189 269.113 194.668C265.578 191.9 262.587 188.499 260.294 184.639C256.322 177.766 248.153 163.536 248.703 159.413C249.252 155.29 265.192 159.413 265.192 159.413Z" fill="#EFB7B9"/>
<path opacity="0.05" d="M265.192 159.413C265.192 159.413 274.813 177.615 275.56 180.213C275.754 180.934 276.173 181.574 276.757 182.041C277.34 182.507 278.057 182.775 278.803 182.806C278.803 182.806 288.388 185.097 290.678 185.404C292.969 185.711 312.826 187.388 312.826 187.388C312.826 187.388 317.865 187.543 318.475 185.711C319.033 184.034 328.769 175.224 334.404 182.912C334.924 183.623 335.269 184.446 335.41 185.316C335.552 186.185 335.487 187.075 335.22 187.915C334.185 191.213 332.059 196.45 329.777 193.192C326.57 188.611 322.841 189.898 322.841 192.34C322.841 194.782 317.709 193.875 316.033 194.219C315.116 194.407 311.964 195.245 309.238 195.978C306.074 196.833 302.833 197.372 299.562 197.586C294.151 197.939 286.175 198.232 283.348 197.165C279.935 195.868 273.983 195.57 271.436 195.501C270.592 195.481 269.778 195.189 269.113 194.668C265.578 191.9 262.587 188.499 260.294 184.639C256.322 177.766 248.153 163.536 248.703 159.413C249.252 155.29 265.192 159.413 265.192 159.413Z" fill="black"/>
<path d="M413.046 329.918C413.029 339.654 409.257 349.007 402.514 356.029C395.772 363.052 386.58 367.202 376.854 367.616C367.127 368.029 357.616 364.674 350.303 358.249C342.989 351.824 338.436 342.824 337.593 333.125C337.538 332.512 337.497 331.898 337.479 331.293V331.261C337.46 330.806 337.451 330.348 337.451 329.886C337.451 319.862 341.433 310.248 348.522 303.159C355.61 296.071 365.224 292.089 375.249 292.089C385.273 292.089 394.887 296.071 401.976 303.159C409.064 310.248 413.046 319.862 413.046 329.886V329.918Z" fill="#65617D"/>
<path d="M375.249 350.512C386.635 350.512 395.866 341.282 395.866 329.895C395.866 318.509 386.635 309.279 375.249 309.279C363.863 309.279 354.632 318.509 354.632 329.895C354.632 341.282 363.863 350.512 375.249 350.512Z" fill="#DCE0ED"/>
<path d="M375.248 342.266C382.08 342.266 387.619 336.727 387.619 329.896C387.619 323.064 382.08 317.525 375.248 317.525C368.417 317.525 362.878 323.064 362.878 329.896C362.878 336.727 368.417 342.266 375.248 342.266Z" fill="#65617D"/>
<path d="M275.986 258.117L184.969 259.95V246.535C185.785 235.736 196.881 231.947 206.961 230.761C214.841 229.866 222.819 230.465 230.477 232.525C249.788 237.638 262.09 238.627 268.151 238.723C269.482 238.743 270.764 239.222 271.783 240.078C272.801 240.935 273.493 242.117 273.741 243.424C274.029 244.959 274.313 246.631 274.579 248.28C274.781 249.572 274.973 250.846 275.147 252.033C275.651 255.45 275.986 258.117 275.986 258.117Z" fill="#65617D"/>
<path d="M348.598 332.337H159.524C158.064 332.352 156.632 331.938 155.406 331.145C154.18 330.352 153.214 329.217 152.628 327.88C151.204 324.476 153.196 322.304 155.322 321.03C159.673 318.452 162.971 314.417 164.632 309.641C166.648 303.685 168.618 294.366 169.392 279.806C170.189 264.746 175.641 257.301 181.533 253.691C189.143 249.036 197.486 250.782 197.486 250.782L274.148 251.396C275.513 252.015 276.775 252.838 277.891 253.838C284.722 260.197 274.762 268.499 274.762 268.499C253.38 291.099 269.567 314.007 269.567 314.007H308.794C316.123 314.045 323.29 311.851 329.342 307.716C334.643 304.051 336.672 300.51 337.488 298.366C338.093 296.725 338.706 295.09 339.439 293.505C349.73 271.188 337.318 234.884 331.962 221.309C330.634 217.933 329.74 215.963 329.74 215.963L342.042 215.046L349.83 214.455H349.908C367.052 244.024 373.425 274.409 375.565 296.922C375.766 299.044 375.931 301.101 376.064 303.075C376.307 306.83 375.776 310.594 374.505 314.135C373.234 317.676 371.25 320.918 368.675 323.661C366.101 326.404 362.99 328.59 359.537 330.082C356.083 331.575 352.36 332.342 348.598 332.337Z" fill="#5EA646"/>
<path opacity="0.1" d="M275.152 252.033H184.969V248.28H274.584C274.785 249.55 274.978 250.823 275.152 252.033Z" fill="black"/>
<path opacity="0.1" d="M277.896 253.865H182.261C182.013 253.866 181.766 253.816 181.538 253.719C189.147 249.064 197.49 250.809 197.49 250.809L274.153 251.423C275.517 252.042 276.78 252.866 277.896 253.865Z" fill="black"/>
<path d="M278.693 249.174H148.798C147.763 249.174 146.924 250.013 146.924 251.048V251.052C146.924 252.087 147.763 252.926 148.798 252.926H278.693C279.728 252.926 280.567 252.087 280.567 251.052V251.048C280.567 250.013 279.728 249.174 278.693 249.174Z" fill="#DCE0ED"/>
<path opacity="0.1" d="M375.565 296.932C371.208 301.669 368.001 303.534 368.152 298.535C368.61 283.416 342.038 215.06 342.038 215.06L349.895 214.464C367.043 244.011 373.421 274.395 375.565 296.932Z" fill="black"/>
<path opacity="0.1" d="M412.817 325.754C408.304 326.835 402.738 327.935 395.866 328.961C393.309 329.337 390.56 329.697 387.619 330.042C380.595 330.876 372.472 331.604 363.089 332.163C360.432 332.322 357.673 332.467 354.811 332.599C349.45 332.843 343.713 333.029 337.598 333.158L337.483 331.325V331.293C346.028 327.843 359.475 318.639 361.637 294.664C367.037 292.583 372.843 291.769 378.607 292.285C384.371 292.801 389.94 294.633 394.884 297.64C399.829 300.647 404.017 304.748 407.127 309.629C410.237 314.509 412.185 320.038 412.822 325.79L412.817 325.754Z" fill="black"/>
<path d="M330.354 332.337C330.354 332.337 373.741 327.628 358.797 261.521C358.797 261.521 380.233 281.176 393.57 292.098C406.907 303.02 430.68 318.08 430.68 318.08C430.68 318.08 416.487 331.343 330.354 332.337Z" fill="#5EA646"/>
<path opacity="0.1" d="M330.354 332.337C330.354 332.337 373.741 327.628 358.797 261.521C358.797 261.521 380.233 281.176 393.57 292.098C406.907 303.02 430.68 318.08 430.68 318.08C430.68 318.08 416.487 331.343 330.354 332.337Z" fill="white"/>
<path d="M214.442 367.693C235.317 367.693 252.24 350.77 252.24 329.895C252.24 309.021 235.317 292.098 214.442 292.098C193.568 292.098 176.645 309.021 176.645 329.895C176.645 350.77 193.568 367.693 214.442 367.693Z" fill="#65617D"/>
<path d="M214.442 350.512C225.828 350.512 235.059 341.282 235.059 329.895C235.059 318.509 225.828 309.279 214.442 309.279C203.056 309.279 193.825 318.509 193.825 329.895C193.825 341.282 203.056 350.512 214.442 350.512Z" fill="#DCE0ED"/>
<path d="M214.442 342.266C221.274 342.266 226.812 336.727 226.812 329.896C226.812 323.064 221.274 317.525 214.442 317.525C207.611 317.525 202.072 323.064 202.072 329.896C202.072 336.727 207.611 342.266 214.442 342.266Z" fill="#65617D"/>
<path opacity="0.1" d="M256.822 318.543C256.822 294.137 237.437 274.349 213.526 274.349C189.615 274.349 170.231 294.137 170.231 318.543C170.231 319.575 170.266 320.597 170.336 321.608H256.716C256.786 320.597 256.822 319.575 256.822 318.543Z" fill="black"/>
<path d="M255.217 317.782C255.217 294.279 236.552 275.224 213.526 275.224C190.499 275.224 171.834 294.279 171.834 317.782C171.834 318.776 171.871 319.757 171.935 320.732H255.117C255.181 319.757 255.217 318.776 255.217 317.782Z" fill="#5EA646"/>
<path opacity="0.1" d="M255.217 317.782C255.217 318.465 255.217 319.156 255.167 319.816C255.167 320.123 255.135 320.426 255.117 320.732H171.935C171.935 320.426 171.898 320.123 171.884 319.816C171.852 319.143 171.834 318.442 171.834 317.782C171.834 294.279 190.499 275.224 213.526 275.224C236.552 275.224 255.217 294.279 255.217 317.782Z" fill="white"/>
<path opacity="0.1" d="M255.167 319.839C255.167 320.146 255.135 320.448 255.117 320.755H171.935C171.935 320.448 171.899 320.146 171.885 319.839H255.167Z" fill="black"/>
<path opacity="0.1" d="M260.716 321.649H158.484C155.784 321.649 153.595 323.836 153.595 326.535C153.595 329.234 155.784 331.421 158.484 331.421H260.716C263.415 331.421 265.604 329.234 265.604 326.535C265.604 323.836 263.415 321.649 260.716 321.649Z" fill="black"/>
<path d="M260.716 320.732H158.484C155.784 320.732 153.595 322.92 153.595 325.619C153.595 328.317 155.784 330.505 158.484 330.505H260.716C263.415 330.505 265.604 328.317 265.604 325.619C265.604 322.92 263.415 320.732 260.716 320.732Z" fill="#DCE0ED"/>
<path opacity="0.1" d="M368.108 256.996C370.87 255.747 370.56 249.098 367.416 242.144C364.272 235.191 359.484 230.566 356.722 231.815C353.96 233.064 354.27 239.713 357.414 246.667C360.558 253.62 365.346 258.245 368.108 256.996Z" fill="black"/>
<path d="M368.566 256.537C371.328 255.288 371.018 248.638 367.874 241.685C364.73 234.731 359.942 230.106 357.18 231.355C354.418 232.604 354.727 239.254 357.872 246.207C361.016 253.161 365.804 257.785 368.566 256.537Z" fill="#DCE0ED"/>
<path opacity="0.1" d="M349.826 214.464V221.644H335.852C334.551 221.645 333.252 221.541 331.967 221.332C330.639 217.955 329.745 215.985 329.745 215.985L342.046 215.069L349.826 214.464Z" fill="black"/>
<path d="M349.826 220.709H335.852C323.578 220.709 313.632 211.546 313.632 200.197V198.296C313.632 186.971 323.578 177.789 335.852 177.789L349.826 179.058V220.709Z" fill="#5EA646"/>
<path d="M326.804 189.93C326.804 189.93 335.165 194.397 330.354 201.957C330.354 201.957 324.453 211.633 315.176 210.717L311.799 189.93C311.799 189.93 322.909 188.9 326.804 189.93Z" fill="#5EA646"/>
<path opacity="0.1" d="M323.592 189.527C324.921 189.578 326.222 189.926 327.399 190.546C328.576 191.166 329.598 192.042 330.391 193.11C331.88 195.172 332.769 198.177 330.364 201.957C330.364 201.957 324.463 211.633 315.185 210.717L311.809 189.93C311.809 189.93 318.759 189.266 323.592 189.527Z" fill="black"/>
<path opacity="0.1" d="M349.368 179.058H352.062C354.324 179.058 356.494 179.957 358.094 181.557C359.694 183.157 360.592 185.327 360.592 187.589V212.183C360.592 214.445 359.694 216.615 358.094 218.215C356.494 219.815 354.324 220.714 352.062 220.714H349.368V179.058Z" fill="black"/>
<path d="M349.826 179.058H352.52C354.783 179.058 356.952 179.957 358.552 181.557C360.152 183.157 361.051 185.327 361.051 187.589V212.183C361.051 214.445 360.152 216.615 358.552 218.215C356.952 219.815 354.783 220.714 352.52 220.714H349.826V179.058Z" fill="#DCE0ED"/>
<path d="M250.618 232.552C250.618 232.552 252.776 233.34 255.658 234.44C260.239 236.204 266.699 238.778 268.944 240.19C271.189 241.601 279.56 243.919 285.827 245.55C290.474 246.753 295.258 247.343 300.057 247.305C304.932 247.259 310.838 247.213 312.469 247.213C312.754 247.211 313.039 247.232 313.321 247.277C315.034 247.561 314.965 248.711 314.924 248.986V249.046C304.845 255.153 292.626 282.491 291.865 287.072C291.293 290.508 286.258 300.033 283.775 304.587C282.941 306.113 282.4 307.08 282.4 307.08L285.456 310.589L294.312 314.561L302.71 318.226C302.71 318.226 311.571 318.685 311.722 318.226C311.873 317.768 311.873 313.036 311.873 313.036C310.795 312.339 309.771 311.561 308.813 310.708C306.781 308.939 304.893 307.01 303.168 304.94C298.284 299.135 308.057 287.988 308.057 287.988L326.841 263.555C326.841 263.555 328.366 260.806 335.697 249.811C343.027 238.815 335.697 232.859 335.697 232.859L322.795 227.503C300.419 219.128 273.429 212.416 273.429 212.416L273.045 212.366L267.322 211.651L250.618 232.552Z" fill="#EFB7B9"/>
<path d="M308.267 314.561C308.267 314.561 309.87 316.453 308.67 316.623C307.47 316.792 304.318 316.11 304.318 316.11L284.328 305.572C284.328 305.572 282.152 304.024 281.639 307.061C281.126 310.099 280.778 309.81 280.778 309.81C280.778 309.81 278.143 315.477 280.778 316.65C283.412 317.823 299.237 322.464 299.237 322.464C299.237 322.464 322.204 327.678 324.38 321.662C326.556 315.647 320.486 316.682 320.486 316.682C320.486 316.682 312.926 314.85 310.347 311.185C310.329 311.185 306.608 312.215 308.267 314.561Z" fill="#444053"/>
<path opacity="0.05" d="M335.678 232.859L322.777 227.503C300.401 219.128 273.411 212.416 273.411 212.416L273.026 212.366L267.304 211.651L250.618 232.552C250.618 232.552 252.776 233.34 255.658 234.44C260.239 236.204 266.699 238.778 268.944 240.19C271.189 241.601 279.56 243.919 285.827 245.55C290.474 246.753 295.258 247.343 300.057 247.305C304.932 247.259 310.838 247.213 312.469 247.213C312.754 247.211 313.039 247.232 313.321 247.277C315.034 247.561 314.965 248.711 314.924 248.986V249.046C304.845 255.153 292.626 282.491 291.865 287.072C291.293 290.508 286.258 300.033 283.775 304.587L283.44 305.201C282.776 305.091 281.947 305.329 281.653 307.061C281.136 310.094 280.792 309.81 280.792 309.81C280.792 309.81 278.158 315.478 280.792 316.65C283.426 317.823 299.237 322.464 299.237 322.464C299.237 322.464 322.204 327.678 324.38 321.663C326.557 315.647 320.486 316.682 320.486 316.682C320.486 316.682 312.927 314.85 310.347 311.185C310.119 311.251 309.895 311.334 309.678 311.432C309.408 311.212 309.119 310.974 308.813 310.708C306.781 308.939 304.893 307.01 303.168 304.94C298.284 299.135 308.057 287.988 308.057 287.988L326.841 263.555C326.841 263.555 328.366 260.806 335.697 249.811C343.027 238.815 335.678 232.859 335.678 232.859Z" fill="black"/>
<path d="M235.233 130.375L235.929 131.255L236.319 131.745L238.747 134.801C238.747 134.801 244.543 136.661 249.623 137.866C254.915 139.117 259.428 139.662 255.841 136.67C253.614 134.815 253.467 131.708 254.278 128.378C254.961 125.815 255.939 123.339 257.192 121.001C257.372 120.653 257.551 120.314 257.728 119.984C258.866 117.88 260.127 115.843 261.503 113.886C258.246 111.631 254.867 109.555 251.383 107.669C247.186 105.498 243.741 104.549 245.926 108.847C247.328 111.596 246.87 114.684 245.56 117.639C245.459 117.872 245.349 118.097 245.234 118.34C244.058 120.63 242.606 122.767 240.909 124.703C239.172 126.742 237.273 128.639 235.233 130.375Z" fill="#EFB7B9"/>
<path d="M264.253 200.165L267.359 203.001L270.36 214.547H265.352L259.822 207.354L264.253 200.165Z" fill="#444053"/>
<path opacity="0.1" d="M259.822 207.354L263.167 211.702L265.352 214.547H270.36L269.847 212.572L267.661 204.16L267.359 203.001L264.253 200.165L260.01 207.047L259.822 207.354Z" fill="black"/>
<path opacity="0.1" d="M259.822 207.354L263.167 211.702L265.352 214.547H270.36L269.847 212.572L267.661 204.16L267.359 203.001L264.253 200.165L260.01 207.047L259.822 207.354Z" fill="black"/>
<path d="M243.178 237.734C243.178 237.734 245.336 238.522 248.217 239.621C252.799 241.385 259.259 243.96 261.504 245.371C263.749 246.782 272.119 249.101 278.387 250.732C283.033 251.937 287.817 252.528 292.617 252.491C297.492 252.445 303.397 252.399 305.028 252.399C305.313 252.397 305.599 252.418 305.88 252.463C307.594 252.747 307.525 253.897 307.484 254.172V254.232C297.404 260.339 285.186 287.677 284.425 292.258C283.852 295.694 278.817 305.219 276.334 309.773C275.5 311.299 274.96 312.266 274.96 312.266L278.016 315.775L286.867 319.743L295.265 323.408C295.265 323.408 304.126 323.866 304.277 323.408C304.428 322.95 304.428 318.217 304.428 318.217C303.35 317.521 302.326 316.743 301.368 315.89C299.336 314.12 297.448 312.192 295.723 310.122C290.839 304.317 300.612 293.17 300.612 293.17L319.396 268.737C319.396 268.737 320.921 265.988 328.252 254.992C335.582 243.997 328.252 238.041 328.252 238.041L316.496 231.32C298.17 220.173 272.357 213.759 272.357 213.759L271.973 213.708L266.25 212.994L243.178 237.734Z" fill="#EFB7B9"/>
<path opacity="0.1" d="M274.955 312.261L278.011 315.771L286.867 319.743L295.265 323.408C295.265 323.408 304.126 323.866 304.277 323.408C304.428 322.95 304.428 318.217 304.428 318.217C303.35 317.521 302.326 316.743 301.368 315.89C300.419 316.398 299.342 317.351 300.382 318.827C300.382 318.827 301.986 320.714 300.786 320.888C299.585 321.062 296.433 320.375 296.433 320.375L276.444 309.838L276.33 309.76C275.487 311.295 274.955 312.261 274.955 312.261Z" fill="black"/>
<path d="M300.827 319.743C300.827 319.743 302.43 321.63 301.226 321.804C300.021 321.979 296.873 321.287 296.873 321.287L276.888 310.749C276.888 310.749 274.712 309.205 274.195 312.238C273.677 315.271 273.338 314.987 273.338 314.987C273.338 314.987 270.703 320.659 273.338 321.832C275.972 323.005 291.778 327.628 291.778 327.628C291.778 327.628 314.741 332.837 316.917 326.826C319.093 320.815 313.023 321.841 313.023 321.841C313.023 321.841 305.463 320.009 302.889 316.343C302.902 316.362 299.164 317.393 300.827 319.743Z" fill="#444053"/>
<path opacity="0.1" d="M244.396 116.475C247.044 118.308 251.085 121.208 254.535 121.208C255.425 121.207 256.313 121.137 257.192 120.997C258.468 118.531 259.908 116.154 261.503 113.882C261.503 113.882 241.345 99.8303 245.926 108.842C247.438 111.838 245.949 113.309 244.396 116.475Z" fill="black"/>
<path d="M238.042 103.798C238.039 106.549 238.726 109.256 240.039 111.673C241.353 114.09 243.251 116.139 245.56 117.634C246.078 117.972 246.617 118.278 247.172 118.55C250.383 120.152 254.028 120.663 257.555 120.006C261.082 119.349 264.299 117.56 266.717 114.91C269.136 112.26 270.624 108.894 270.957 105.322C271.29 101.749 270.449 98.1661 268.562 95.115C266.674 92.0638 263.844 89.7112 260.499 88.414C257.154 87.1167 253.477 86.9455 250.026 87.9262C246.575 88.907 243.538 90.9863 241.375 93.8489C239.212 96.7114 238.042 100.201 238.042 103.789V103.798Z" fill="#EFB7B9"/>
<path opacity="0.1" d="M243.178 237.734C243.178 237.734 245.336 238.522 248.217 239.621C250.027 238.027 251.883 236.488 252.657 236.208C254.338 235.594 259.836 232.387 259.685 231.471C259.534 230.555 261.976 227.045 264.111 226.431C266.246 225.817 265.027 222.615 265.027 222.615C265.027 222.615 269.15 221.089 270.177 218.95C271.203 216.81 274.346 214.061 273.274 214.217C272.809 214.141 272.365 213.968 271.973 213.708L266.25 212.994L243.178 237.734Z" fill="black"/>
<path d="M230.652 232.236C230.652 232.236 237.68 238.041 238.005 240.634C238.33 243.227 243.022 243.08 243.022 243.08C243.022 243.08 250.05 236.359 251.727 235.75C253.404 235.141 258.906 231.929 258.755 231.013C258.604 230.096 261.046 226.587 263.181 225.973C265.315 225.359 264.097 222.157 264.097 222.157C264.097 222.157 268.22 220.631 269.246 218.491C270.273 216.352 273.416 213.603 272.344 213.759C272.041 213.8 271.074 213.301 269.847 212.572C268.339 211.656 266.429 210.414 264.871 209.365C263.222 208.247 261.962 207.358 261.962 207.358C261.962 207.358 261.243 207.23 260.01 207.051C253.362 206.089 231.71 203.634 226.684 211.633C226.014 212.69 225.512 213.845 225.195 215.055C222.946 223.577 230.652 232.236 230.652 232.236Z" fill="#444053"/>
<path opacity="0.1" d="M238 213.718C238 213.718 230.826 217.768 228.15 217.768C225.475 217.768 238 213.718 238 213.718Z" fill="black"/>
<path opacity="0.1" d="M242.793 216.81C242.793 216.81 232.109 220.402 232.109 223.224C232.109 226.046 231.11 215.665 242.793 216.81Z" fill="black"/>
<path opacity="0.1" d="M268.371 200.633L268.22 200.839C268.289 200.786 268.342 200.714 268.371 200.633Z" fill="black"/>
<path opacity="0.1" d="M235.233 130.375L235.929 131.255L236.319 131.745L238.747 134.801C238.747 134.801 244.543 136.661 249.623 137.866C254.915 139.117 259.428 139.662 255.841 136.67C253.614 134.815 253.467 131.709 254.278 128.378L254.118 128.172C254.118 128.172 254.278 131.26 252.45 131.319C249.985 131.397 249.953 130.568 247.681 129.61C244.753 128.373 241.752 126.307 240.909 124.699C239.172 126.739 237.274 128.638 235.233 130.375Z" fill="black"/>
<path opacity="0.1" d="M225.195 215.042C226.445 215.576 227.853 215.609 229.126 215.133C233.859 213.603 241.345 209.919 244.855 211.532C247.668 212.824 258.998 212.787 263.181 211.702C264.221 211.431 264.816 211.097 264.725 210.703C264.665 210.249 264.721 209.788 264.885 209.36C265.371 207.807 266.69 205.649 267.675 204.16L267.373 203.001L264.266 200.165L260.024 207.038C253.376 206.076 231.724 203.62 226.698 211.619C226.023 212.675 225.516 213.83 225.195 215.042Z" fill="black"/>
<path d="M222.103 211.468C222.103 211.468 223.935 215.743 228.668 214.217C233.401 212.691 240.887 209.003 244.396 210.616C247.906 212.229 264.711 211.77 264.253 209.787C263.795 207.803 268.376 201.54 268.376 201.54C268.376 201.54 265.875 201.082 264.326 192.913C264.097 191.722 263.891 190.366 263.717 188.826C263.338 185.674 263.249 182.493 263.451 179.324C264.069 170.482 267.167 166.872 267.167 166.872C267.167 166.872 271.441 161.988 267.776 155.267C265.856 151.743 258.109 141.98 258.004 137.628C257.907 133.679 254.132 129.088 254.132 129.088C254.132 129.088 254.293 132.176 252.464 132.235C250 132.313 249.968 131.484 247.695 130.527C244.355 129.115 240.924 126.628 240.699 124.965C240.699 124.965 226.698 124.264 223.642 138.466C220.586 152.669 221.658 160.458 222.117 162.139C222.575 163.82 226.542 185.505 223.335 194.668C220.128 203.831 222.103 211.468 222.103 211.468Z" fill="#A36468"/>
<path opacity="0.1" d="M244.932 186.517C247.457 190.777 250.836 194.469 254.856 197.362C257.536 197.384 260.213 197.563 262.873 197.898C262.644 196.706 262.415 195.35 262.264 193.811C261.885 190.658 261.796 187.478 261.998 184.309C261.558 184.088 261.171 183.776 260.861 183.394C260.551 183.012 260.327 182.567 260.202 182.091C259.437 179.494 252.624 167.124 252.624 167.124C252.624 167.124 236.685 163 236.131 167.124C235.577 171.247 240.96 179.645 244.932 186.517Z" fill="black"/>
<path d="M250.215 159.413C250.215 159.413 259.836 177.615 260.583 180.213C260.777 180.934 261.196 181.574 261.78 182.041C262.363 182.507 263.08 182.775 263.826 182.806C263.826 182.806 273.411 185.097 275.702 185.404C277.992 185.711 297.862 187.388 297.862 187.388C297.862 187.388 302.902 187.543 303.511 185.711C304.07 184.034 313.806 175.224 319.441 182.912C319.961 183.623 320.305 184.446 320.447 185.316C320.589 186.185 320.524 187.075 320.257 187.915C319.221 191.213 317.096 196.45 314.814 193.192C311.607 188.611 307.878 189.898 307.878 192.34C307.878 194.782 302.746 193.875 301.069 194.219C300.153 194.407 297.001 195.245 294.275 195.978C291.103 196.835 287.854 197.373 284.576 197.586C279.165 197.939 271.189 198.232 268.362 197.165C264.953 195.868 259.002 195.57 256.45 195.501C255.606 195.481 254.791 195.189 254.127 194.668C250.593 191.9 247.604 188.499 245.312 184.639C241.34 177.766 233.171 163.536 233.721 159.413C234.271 155.29 250.215 159.413 250.215 159.413Z" fill="#EFB7B9"/>
<path opacity="0.1" d="M247.008 134.192C247.008 134.192 252.162 142.745 254.549 148.852C256.936 154.96 259.836 165.653 259.836 165.653L245.477 163.971L244.259 161.988C244.259 161.988 234.005 168.402 235.229 171.151C236.452 173.9 232.48 167.027 232.787 159.239C233.094 151.45 231.683 137.55 232.787 134.192C233.891 130.833 243.631 131.594 247.008 134.192Z" fill="black"/>
<path d="M232.805 158.322C232.498 166.111 236.47 172.983 235.247 170.234C234.024 167.486 244.277 161.071 244.277 161.071L245.482 163.055L259.836 164.737C259.836 164.737 256.936 154.043 254.549 147.936C253.115 144.481 251.475 141.115 249.638 137.857C248.167 135.186 247.008 133.275 247.008 133.275C245.033 131.75 240.841 130.856 237.497 131.067C236.975 131.097 236.457 131.159 235.943 131.255C234.569 131.525 233.46 132.048 232.97 132.872C232.895 133 232.834 133.135 232.787 133.275C231.687 136.634 233.098 150.534 232.805 158.322Z" fill="#A36468"/>
<path opacity="0.1" d="M226.391 179.645C226.391 179.645 232.461 188.006 234.294 188.235C234.28 188.253 226.491 186.517 226.391 179.645Z" fill="black"/>
<path opacity="0.1" d="M226.391 191.557C226.391 191.557 237.844 203.125 241.51 203.24C245.175 203.354 226.391 191.557 226.391 191.557Z" fill="black"/>
<path opacity="0.1" d="M226.391 196.386C226.391 196.386 233.721 204.976 234.179 204.976C234.637 204.976 226.262 201.998 226.391 196.386Z" fill="black"/>
<path opacity="0.1" d="M232.956 132.872C234.134 132.697 235.273 132.315 236.319 131.745C236.713 131.539 237.102 131.31 237.483 131.067C238.985 130.062 240.384 128.911 241.661 127.631C243.768 125.583 245.871 123.347 246.742 120.539C246.938 119.891 247.082 119.23 247.172 118.56C247.695 115.036 247.255 111.147 249.775 108.751C250.248 108.304 250.791 107.937 251.383 107.665C254.956 105.965 260.138 107.065 262.805 104C264.5 102.057 264.459 99.3584 265.76 97.2463C266.328 96.33 267.372 95.5374 268.298 94.6945C266.95 92.6427 265.161 90.9176 263.062 89.6452C260.963 88.3727 258.606 87.5849 256.163 87.3393C253.721 87.0936 251.254 87.3963 248.943 88.2252C246.633 89.0541 244.536 90.3884 242.807 92.1307C241.077 93.873 239.759 95.9793 238.947 98.2961C238.135 100.613 237.851 103.082 238.115 105.522C238.378 107.963 239.184 110.314 240.472 112.404C241.76 114.494 243.498 116.269 245.56 117.602C245.459 117.836 245.349 118.06 245.234 118.303C242.087 124.717 235.233 130.343 235.233 130.343L235.929 131.223C234.541 131.539 233.446 132.048 232.956 132.872Z" fill="black"/>
<path d="M261.889 103.551C258.787 107.106 252.267 105.035 248.854 108.292C245.858 111.147 247.049 116.127 245.826 120.081C244.955 122.889 242.852 125.12 240.745 127.173C237.675 130.16 233.749 133.193 229.552 132.336C227.065 131.828 224.627 129.968 222.222 130.824C221.026 131.255 220.169 132.29 219.276 133.202C216.241 136.295 212.297 138.335 208.019 139.025C207.173 139.216 206.292 139.175 205.467 138.906C204.184 138.384 203.493 136.982 202.324 136.235C200.034 134.769 197.092 136.272 194.714 137.582C188.065 141.183 180.724 143.326 173.181 143.868C165.639 144.411 158.067 143.341 150.97 140.729L154.677 138.897C153.889 137.289 151.758 136.936 150.402 135.759C147.607 133.335 149.252 128.488 152.207 126.266C155.162 124.044 158.988 123.269 162.048 121.194C162.671 120.772 163.304 120.213 163.363 119.467C163.353 118.918 163.179 118.385 162.864 117.936C161.233 115.064 159.428 111.981 159.794 108.696C160.353 103.656 165.856 100.559 170.909 100.206C175.962 99.8532 180.965 101.374 186.028 101.461C187.861 101.493 189.78 101.315 191.352 100.366C193.546 99.0469 194.65 96.5316 195.984 94.3463C198.363 90.466 201.773 87.3225 205.834 85.2657C210.415 82.952 215.602 82.1411 220.366 80.226C225.232 78.2743 229.658 75.1864 234.748 73.9448C242.138 72.1122 250.055 74.5083 256.437 78.65C259.511 80.643 269.329 87.0388 269.265 91.13C269.214 93.5582 266.058 94.8731 264.862 96.779C263.543 98.9094 263.584 101.608 261.889 103.551Z" fill="#965D7B"/>
<g opacity="0.1">
<path opacity="0.1" d="M162.414 115.641C162.727 116.091 162.901 116.623 162.914 117.171C162.895 117.365 162.841 117.553 162.753 117.726C161.406 115.353 160.004 112.837 159.78 110.189C160.375 112.081 161.425 113.9 162.414 115.641Z" fill="black"/>
<path opacity="0.1" d="M149.953 133.463C151.304 134.641 153.435 134.993 154.227 136.602L152.917 137.252C152.034 136.837 151.194 136.335 150.411 135.754C149.914 135.311 149.526 134.759 149.278 134.142C149.03 133.524 148.929 132.858 148.981 132.194C149.215 132.679 149.545 133.111 149.953 133.463Z" fill="black"/>
<path opacity="0.1" d="M194.265 135.291C196.642 133.981 199.588 132.478 201.875 133.944C203.038 134.691 203.735 136.093 205.017 136.615C205.84 136.884 206.72 136.925 207.565 136.734C211.844 136.044 215.79 134.004 218.826 130.911C219.715 129.995 220.572 128.964 221.772 128.534C224.164 127.677 226.601 129.537 229.102 130.045C233.299 130.902 237.221 127.869 240.295 124.882C242.403 122.834 244.501 120.598 245.371 117.79C246.599 113.836 245.408 108.856 248.404 106.002C251.827 102.744 258.332 104.815 261.439 101.26C263.129 99.3172 263.093 96.6187 264.394 94.5067C265.493 92.7244 268.343 91.4599 268.746 89.3112C269.061 89.8721 269.236 90.5009 269.255 91.1438C269.204 93.572 266.048 94.8869 264.852 96.7928C263.551 98.9049 263.587 101.603 261.897 103.546C258.791 107.101 252.276 105.03 248.863 108.288C245.866 111.142 247.057 116.122 245.83 120.076C244.959 122.885 242.861 125.116 240.753 127.168C237.679 130.155 233.757 133.188 229.561 132.332C227.068 131.823 224.631 129.963 222.23 130.82C221.03 131.25 220.173 132.286 219.284 133.198C216.248 136.29 212.302 138.331 208.023 139.021C207.179 139.211 206.298 139.17 205.476 138.902C204.193 138.379 203.496 136.977 202.333 136.23C200.042 134.764 197.101 136.267 194.723 137.577C188.073 141.178 180.732 143.321 173.19 143.864C165.647 144.406 158.075 143.336 150.979 140.725L153.54 139.456C160.268 141.477 167.329 142.15 174.317 141.435C181.306 140.72 188.085 138.633 194.265 135.291Z" fill="black"/>
</g>
<path opacity="0.1" d="M307.483 254.168L311.336 252.303V251.575C311.336 251.295 308.262 251.914 305.88 252.44C307.593 252.743 307.525 253.893 307.483 254.168Z" fill="black"/>
<path d="M310.833 212.036C315.959 212.036 320.115 206.98 320.115 200.743C320.115 194.506 315.959 189.449 310.833 189.449C305.707 189.449 301.551 194.506 301.551 200.743C301.551 206.98 305.707 212.036 310.833 212.036Z" fill="#5EA646"/>
<path d="M221.493 186.045L206.571 200.761L157.517 199.904L171.005 186.045H221.493Z" fill="#DDA2A6"/>
<path d="M221.493 236.387V186.045L206.571 200.761V250.021L221.493 236.387Z" fill="#B77B7F"/>
<path d="M157.517 199.904V250.021H206.571V200.761L157.517 199.904Z" fill="#DDA2A6"/>
<path opacity="0.3" d="M157.517 199.904V250.021H206.571V200.761L157.517 199.904Z" fill="white"/>
<path d="M202.585 214.556L166.103 208.293L161.347 232.245L198.906 239.145L202.585 214.556Z" fill="#DCE0ED"/>
<path d="M195.379 220.15L170.854 216.297L170.24 219.495L194.765 223.655L195.379 220.15Z" fill="#5EA646"/>
<path d="M188.634 226.99L174.684 224.965L174.07 228.516L188.634 230.559V226.99Z" fill="#5EA646"/>
<path d="M215.459 212.467L214.795 192.647L210.96 196.431L211.629 216.297L215.459 212.467Z" fill="#65617D"/>
<path d="M166.07 191.117L213.21 191.754L214.795 192.647L210.96 196.431L209.636 195.653L162.946 194.329L166.07 191.117Z" fill="#65617D"/>
</g>
<defs>
<linearGradient id="paint0_linear" x1="108.821" y1="298.242" x2="51.7881" y2="298.242" gradientUnits="userSpaceOnUse">
<stop stop-color="#258C45"/>
<stop offset="0.1059" stop-color="#2B8C49"/>
<stop offset="0.5473" stop-color="#82C482"/>
<stop offset="0.8548" stop-color="#B3D744"/>
<stop offset="1" stop-color="#C6DE2C"/>
</linearGradient>
<linearGradient id="paint1_linear" x1="87.1151" y1="324.169" x2="57.7915" y2="324.169" gradientUnits="userSpaceOnUse">
<stop stop-color="#258C45"/>
<stop offset="0.1059" stop-color="#2B8C49"/>
<stop offset="0.5473" stop-color="#82C482"/>
<stop offset="0.8548" stop-color="#B3D744"/>
<stop offset="1" stop-color="#C6DE2C"/>
</linearGradient>
<linearGradient id="paint2_linear" x1="58.3549" y1="324.169" x2="29.0352" y2="324.169" gradientUnits="userSpaceOnUse">
<stop stop-color="#258C45"/>
<stop offset="0.1059" stop-color="#2B8C49"/>
<stop offset="0.5473" stop-color="#82C482"/>
<stop offset="0.8548" stop-color="#B3D744"/>
<stop offset="1" stop-color="#C6DE2C"/>
</linearGradient>
<clipPath id="clip0">
<rect width="483.94" height="370.598" fill="white" transform="translate(0 0.301575)"/>
</clipPath>
</defs>
</svg>
