<svg width="586" height="433" viewBox="0 0 586 433" fill="none" xmlns="http://www.w3.org/2000/svg">
<g clip-path="url(#clip0)">
<path d="M421.243 256.776L425.838 253.94C426.275 253.663 426.705 253.368 427.148 253.091C417.293 251.396 408.312 246.387 401.692 238.892C395.072 231.397 391.21 221.866 390.745 211.877C390.407 205.007 391.706 198.155 394.534 191.885C397.167 186.019 401.055 180.801 405.924 176.601C410.793 172.401 416.524 169.32 422.713 167.575L422.486 185.66L432.42 165.976C432.461 165.969 432.502 165.969 432.543 165.976C438.3 165.707 444.053 166.575 449.475 168.529C454.896 170.484 459.88 173.488 464.14 177.369C468.401 181.249 471.856 185.931 474.307 191.147C476.758 196.363 478.158 202.011 478.426 207.768C478.463 208.604 478.426 209.429 478.426 210.228C481.883 206.285 485.02 202.059 487.099 197.427C491.307 188.047 491.405 177.423 491.055 164.512C490.39 138.922 489.289 113.142 487.85 87.4352C477.477 86.2832 467.855 81.4702 460.713 73.8609C453.57 66.2515 449.375 56.3445 448.881 45.9198C448.82 44.5726 448.838 43.2501 448.881 41.9337C448.881 41.6077 448.881 41.2755 448.93 40.9495C449.016 39.6762 449.133 38.4151 449.33 37.1726C449.33 36.9634 449.404 36.7666 449.441 36.5574C449.621 35.5035 449.837 34.4619 450.087 33.4326C450.185 33.0512 450.277 32.6636 450.382 32.2823C450.69 31.1627 450.997 30.0616 451.422 28.9728C451.551 28.6099 451.705 28.2593 451.84 27.9025C452.154 27.1028 452.492 26.3155 452.849 25.5342C453.039 25.1221 453.224 24.7161 453.427 24.304C453.476 24.1994 453.519 24.0948 453.575 23.9902C458.206 14.8422 465.897 7.60633 475.31 3.54038C484.723 -0.525562 495.263 -1.16448 505.098 1.73468L504.803 25.2697L514.645 5.83148C522.718 10.4525 529.102 17.5337 532.865 26.0407C536.628 34.5478 537.572 44.0351 535.56 53.1169H535.609C535.541 53.4306 535.443 53.732 535.369 54.0396C535.234 54.6178 535.086 55.1899 534.926 55.7619C534.717 56.494 534.483 57.2137 534.243 57.9334C534.059 58.4685 533.88 59.016 533.677 59.545C533.382 60.3201 533.062 61.0767 532.705 61.8333C532.509 62.2762 532.33 62.7253 532.09 63.162C531.528 64.2939 530.913 65.4011 530.245 66.4837C530.017 66.859 529.759 67.2157 529.519 67.591C529.051 68.3168 528.578 69.0365 528.067 69.7378C527.754 70.1684 527.415 70.5805 527.083 71.005C526.603 71.6201 526.111 72.2352 525.601 72.795C525.238 73.2072 524.869 73.6131 524.487 74.0253C523.952 74.5912 523.398 75.1387 522.826 75.68C522.451 76.0429 522.07 76.4059 521.676 76.7503C521.03 77.3224 520.353 77.8699 519.671 78.405C519.326 78.6757 518.994 78.9587 518.637 79.217C517.6 79.988 516.527 80.7118 515.42 81.3884C515.211 81.5115 514.99 81.616 514.805 81.7391C513.882 82.2865 512.96 82.7971 511.969 83.2769C511.557 83.4799 511.126 83.6583 510.702 83.849C509.909 84.2058 509.109 84.5502 508.291 84.8639C507.817 85.0423 507.331 85.2084 506.845 85.3745C506.039 85.6513 505.221 85.9035 504.385 86.1311C503.893 86.2665 503.407 86.4018 502.908 86.5187C502.01 86.734 501.094 86.9123 500.171 87.0661C500.109 87.0661 500.054 87.0661 499.993 87.103C500.599 97.9458 501.139 108.795 501.61 119.65C504.227 114.279 507.913 109.499 512.443 105.603C516.973 101.708 522.251 98.7785 527.953 96.9958C533.656 95.2131 539.662 94.6142 545.604 95.236C551.546 95.8577 557.299 97.6869 562.509 100.611L554.752 121.864L570.708 106.541C579.25 114.37 584.338 125.268 584.857 136.843C585.059 140.904 584.685 144.974 583.743 148.93C581.739 157.491 577.208 165.252 570.738 171.207C564.268 177.161 556.158 181.033 547.461 182.322C538.763 183.61 529.879 182.255 521.961 178.432C514.043 174.609 507.456 168.495 503.056 160.882C503.056 161.983 503.136 163.091 503.167 164.192C503.456 175.584 503.819 189.757 498.141 202.416C494.296 210.997 488.102 217.967 481.981 224.21C478.002 228.276 473.874 232.207 469.642 236.015C465.481 241.602 460.049 246.119 453.796 249.191C446.845 254.547 439.648 259.562 432.205 264.237L427.683 267.153C423.507 269.743 419.225 272.4 415.024 275.15C415.762 275.076 416.494 274.996 417.245 274.965C426.544 274.529 435.742 277.061 443.509 282.195C451.275 287.329 457.209 294.799 460.452 303.526L433.029 325.849L463.171 318.855C463.162 326.276 461.273 333.573 457.68 340.066C454.086 346.559 448.905 352.035 442.621 355.982C436.338 359.929 429.156 362.22 421.747 362.638C414.338 363.057 406.943 361.591 400.255 358.377C400.931 359.226 401.614 360.069 402.291 360.912C403.638 362.591 404.979 364.258 406.289 365.913C424.128 388.507 429.098 409.962 420.259 426.319L409.519 420.512C418.13 404.592 405.213 384.219 396.705 373.479C395.42 371.855 394.103 370.219 392.775 368.558C381.376 354.41 368.458 338.342 368.784 318.652C369.246 289.002 398.089 271.121 421.243 256.776Z" fill="#F2F2F2"/>
<path d="M281.103 432.839C435.85 432.839 561.297 427.056 561.297 419.922C561.297 412.787 435.85 407.004 281.103 407.004C126.356 407.004 0.90918 412.787 0.90918 419.922C0.90918 427.056 126.356 432.839 281.103 432.839Z" fill="#3F3D56"/>
<path d="M507.466 415.105C509.312 411.716 507.22 407.564 504.833 404.537C502.447 401.511 499.537 398.386 499.599 394.517C499.685 388.98 505.559 385.714 510.259 382.78C513.739 380.6 516.95 378.017 519.824 375.084C521.031 373.956 522.028 372.623 522.771 371.148C523.737 368.982 523.712 366.522 523.65 364.147C523.445 356.249 523.056 348.359 522.482 340.477" stroke="#3F3D56" stroke-width="2.46054" stroke-miterlimit="10"/>
<path d="M531.407 340.059C531.338 338.613 530.908 337.209 530.156 335.973C529.404 334.737 528.353 333.709 527.101 332.985L525.17 336.811L525.225 332.185C523.904 331.789 522.507 331.716 521.152 331.973C519.797 332.229 518.523 332.807 517.438 333.659C516.353 334.51 515.488 335.609 514.917 336.864C514.345 338.119 514.083 339.493 514.153 340.871C514.26 343.155 515.271 345.302 516.962 346.841C517.799 347.603 518.779 348.193 519.844 348.576C520.909 348.96 522.04 349.13 523.171 349.077C524.301 349.023 525.411 348.748 526.435 348.266C527.46 347.784 528.379 347.105 529.141 346.267C529.903 345.43 530.493 344.45 530.876 343.385C531.26 342.32 531.43 341.19 531.376 340.059H531.407Z" fill="#57B793"/>
<path d="M516.01 398.496C515.106 400.252 513.626 401.644 511.818 402.439C510.01 403.234 507.984 403.382 506.079 402.861C504.174 402.339 502.506 401.178 501.355 399.573C500.204 397.968 499.64 396.017 499.757 394.045C499.874 392.073 500.665 390.202 501.997 388.744C503.33 387.286 505.123 386.331 507.076 386.038C509.029 385.745 511.024 386.132 512.726 387.135C514.427 388.138 515.732 389.695 516.423 391.545L511.034 395.931L516.964 394.553C516.965 395.925 516.638 397.277 516.01 398.496Z" fill="#57B793"/>
<path d="M511.748 381.709C510.615 381.764 509.483 381.594 508.416 381.21C507.349 380.826 506.368 380.235 505.53 379.471C504.692 378.706 504.014 377.784 503.533 376.757C503.052 375.73 502.779 374.618 502.73 373.485C502.661 372.134 502.916 370.787 503.474 369.554C503.991 368.401 504.754 367.374 505.711 366.547C506.668 365.72 507.794 365.113 509.01 364.769L508.967 368.33L510.923 364.455C513.211 364.348 515.448 365.155 517.142 366.697C518.835 368.239 519.847 370.391 519.953 372.679C520.06 374.967 519.254 377.204 517.711 378.898C516.169 380.591 514.017 381.603 511.729 381.709H511.748Z" fill="#57B793"/>
<path d="M532.705 367.74C530.421 367.847 528.188 367.043 526.497 365.504C524.806 363.966 523.795 361.818 523.687 359.534C523.58 357.25 524.384 355.017 525.923 353.325C527.461 351.634 529.609 350.624 531.893 350.516C533.508 350.436 535.112 350.816 536.519 351.611L534.993 355.794L538.131 352.78C539.814 354.318 540.819 356.462 540.923 358.74C540.963 359.538 540.888 360.338 540.702 361.115C540.271 362.939 539.258 364.573 537.814 365.768C536.371 366.964 534.577 367.656 532.705 367.74Z" fill="#57B793"/>
<path opacity="0.1" d="M530.245 342.335C528.252 342.556 526.314 343.177 524.315 343.3C522.316 343.423 520.119 342.944 518.852 341.387C518.169 340.551 517.831 339.493 517.253 338.582C516.708 337.732 515.963 337.028 515.082 336.534C514.561 337.623 514.274 338.809 514.241 340.015C514.209 341.222 514.43 342.422 514.89 343.538C515.351 344.653 516.041 345.66 516.916 346.491C517.791 347.323 518.83 347.962 519.968 348.366C521.105 348.77 522.315 348.93 523.518 348.836C524.722 348.743 525.892 348.397 526.953 347.822C528.014 347.247 528.943 346.455 529.678 345.498C530.414 344.541 530.94 343.44 531.223 342.267C530.89 342.279 530.564 342.304 530.245 342.335Z" fill="black"/>
<path opacity="0.1" d="M532.705 367.74C531.216 367.815 529.733 367.503 528.401 366.833C527.069 366.164 525.934 365.16 525.106 363.92C524.278 362.68 523.787 361.246 523.679 359.76C523.572 358.273 523.852 356.783 524.493 355.437C525.178 355.9 525.767 356.491 526.228 357.178C526.843 358.107 527.212 359.177 527.938 360.032C529.279 361.613 531.579 362.13 533.665 362.031C535.75 361.933 537.755 361.348 539.816 361.158C540.099 361.158 540.394 361.109 540.683 361.102C540.256 362.926 539.246 364.56 537.806 365.758C536.367 366.956 534.576 367.651 532.705 367.74Z" fill="black"/>
<path opacity="0.1" d="M511.748 381.709C510.615 381.764 509.483 381.594 508.416 381.21C507.349 380.826 506.368 380.235 505.53 379.471C504.692 378.706 504.014 377.784 503.533 376.757C503.052 375.73 502.779 374.618 502.73 373.485C502.661 372.134 502.916 370.787 503.474 369.554C504.19 370.023 504.815 370.617 505.319 371.308C505.99 372.255 506.408 373.344 507.165 374.217C508.623 375.841 511.071 376.413 513.279 376.358C515.488 376.302 517.474 375.786 519.603 375.626C519.077 377.324 518.042 378.82 516.636 379.908C515.23 380.997 513.523 381.626 511.748 381.709Z" fill="black"/>
<path opacity="0.1" d="M516.011 398.496C515.546 399.53 514.883 400.462 514.058 401.239C513.233 402.016 512.264 402.623 511.204 403.026C510.145 403.428 509.017 403.618 507.884 403.585C506.752 403.551 505.637 403.295 504.603 402.83C503.569 402.366 502.637 401.702 501.86 400.877C501.083 400.053 500.476 399.083 500.074 398.024C499.671 396.964 499.481 395.836 499.515 394.704C499.549 393.571 499.805 392.456 500.269 391.422C500.978 391.893 501.616 392.463 502.164 393.114C502.982 394.117 503.524 395.249 504.477 396.19C506.242 397.918 509.09 398.65 511.625 398.699C513.09 398.719 514.554 398.651 516.011 398.496Z" fill="black"/>
<path d="M494.45 411.199C494.45 411.199 501.26 410.99 503.314 409.526C505.369 408.062 513.772 406.315 514.307 408.665C514.842 411.014 524.549 420.352 516.853 420.389C509.158 420.426 498.978 419.159 496.929 417.929C494.881 416.698 494.45 411.199 494.45 411.199Z" fill="#656380"/>
<path opacity="0.2" d="M516.989 419.571C509.3 419.632 499.113 418.341 497.065 417.11C495.508 416.163 494.881 412.749 494.678 411.174H494.45C494.45 411.174 494.881 416.667 496.911 417.941C498.941 419.214 509.14 420.451 516.835 420.401C519.056 420.401 519.824 419.589 519.781 418.421C519.492 419.116 518.643 419.559 516.989 419.571Z" fill="black"/>
<path d="M120.498 396.128C116.032 387.861 121.113 377.736 126.92 370.366C132.727 362.997 139.838 355.333 139.684 345.939C139.462 332.443 125.142 324.477 113.7 317.323C105.21 312.014 97.3785 305.718 90.3684 298.568C87.5572 295.695 84.8322 292.632 83.1959 288.966C80.8338 283.688 80.8953 277.69 81.0491 271.908C81.5412 252.634 82.4926 233.396 83.9033 214.196" stroke="#3F3D56" stroke-width="2.46054" stroke-miterlimit="10"/>
<path d="M62.1462 213.144C62.3147 209.623 63.365 206.201 65.2008 203.191C67.0366 200.182 69.599 197.681 72.6527 195.92L77.3646 205.24L77.2232 193.958C81.5038 192.697 86.0746 192.828 90.2756 194.334C94.4765 195.84 98.0902 198.642 100.595 202.335C103.1 206.029 104.366 210.423 104.21 214.883C104.055 219.343 102.486 223.638 99.73 227.148C96.9743 230.658 93.1743 233.202 88.8787 234.411C84.5831 235.621 80.0142 235.434 75.8317 233.878C71.6493 232.322 68.0697 229.476 65.6097 225.753C63.1498 222.029 61.937 217.62 62.1462 213.163V213.144Z" fill="#57B793"/>
<path d="M99.6812 355.585C101.797 359.709 105.216 363.018 109.407 365C113.597 366.981 118.325 367.523 122.855 366.541C127.385 365.559 131.464 363.108 134.458 359.57C137.452 356.031 139.194 351.603 139.413 346.973C139.56 344.062 139.092 341.153 138.041 338.435C136.504 334.448 133.79 331.023 130.26 328.615C126.73 326.208 122.551 324.932 118.278 324.956C114.005 324.981 109.841 326.305 106.339 328.754C102.837 331.202 100.163 334.658 98.6724 338.662L111.818 349.353L97.356 345.989C97.35 349.328 98.1475 352.619 99.6812 355.585Z" fill="#57B793"/>
<path d="M110.071 314.727C115.232 314.963 120.299 313.293 124.308 310.035C128.317 306.777 130.988 302.159 131.813 297.059C132.637 291.959 131.557 286.734 128.779 282.378C126.001 278.023 121.718 274.842 116.745 273.44L116.856 282.107L112.12 272.677H112.064C106.487 272.417 101.035 274.383 96.9075 278.142C92.7799 281.902 90.3149 287.147 90.0546 292.724C89.7944 298.301 91.7603 303.753 95.5199 307.881C99.2795 312.008 104.525 314.473 110.102 314.734L110.071 314.727Z" fill="#57B793"/>
<path d="M58.9779 280.729C62.2364 280.888 65.4872 280.287 68.4737 278.974C71.4602 277.661 74.1007 275.672 76.1867 273.164C78.2727 270.655 79.7471 267.697 80.4936 264.521C81.2401 261.345 81.2383 258.039 80.4882 254.864C79.7381 251.689 78.2603 248.732 76.1715 246.226C74.0827 243.72 71.44 241.734 68.452 240.424C65.464 239.115 62.2126 238.518 58.9543 238.68C55.696 238.843 52.52 239.76 49.6771 241.36L53.3679 251.553L45.7464 244.19C43.709 246.044 42.0572 248.282 40.8855 250.775C39.7139 253.268 39.0454 255.968 38.9184 258.719C38.8207 260.667 39.0009 262.618 39.4535 264.514C40.4998 268.973 42.9725 272.97 46.4962 275.896C50.0199 278.822 54.4022 280.519 58.9779 280.729Z" fill="#57B793"/>
<path opacity="0.1" d="M64.9755 218.754C69.8351 219.289 74.5593 220.796 79.4312 221.098C84.303 221.399 89.6608 220.237 92.7427 216.447C94.4035 214.405 95.234 211.822 96.6365 209.595C97.9654 207.52 99.787 205.806 101.939 204.606C103.279 207.273 104.036 210.195 104.161 213.178C104.285 216.16 103.774 219.135 102.661 221.905C101.548 224.675 99.858 227.176 97.7042 229.243C95.5505 231.31 92.9817 232.895 90.1685 233.893C87.3553 234.892 84.3619 235.28 81.3871 235.033C78.4122 234.786 75.5239 233.909 72.9139 232.461C70.3039 231.012 68.0318 229.025 66.2485 226.631C64.4651 224.237 63.2113 221.491 62.5703 218.576C63.3884 218.613 64.1881 218.668 64.9755 218.754Z" fill="black"/>
<path opacity="0.1" d="M58.9778 280.729C62.6048 280.896 66.2135 280.123 69.4536 278.484C72.6937 276.846 75.4552 274.397 77.4699 271.376C79.4847 268.356 80.6844 264.866 80.9526 261.245C81.2207 257.624 80.5483 253.995 79.0004 250.71C77.3293 251.834 75.892 253.271 74.7683 254.943C73.2674 257.206 72.3631 259.821 70.5977 261.9C67.319 265.75 61.7213 267.011 56.6403 266.784C51.5593 266.556 46.6566 265.105 41.6002 264.643C40.899 264.582 40.1854 264.532 39.478 264.514C40.5231 268.969 42.9921 272.963 46.5109 275.889C50.0297 278.815 54.4064 280.514 58.9778 280.729Z" fill="black"/>
<path opacity="0.1" d="M110.071 314.727C113.663 314.896 117.238 314.142 120.455 312.536C123.672 310.931 126.424 308.527 128.449 305.556C130.473 302.584 131.703 299.144 132.02 295.562C132.337 291.98 131.731 288.377 130.26 285.096C128.526 286.248 127.019 287.707 125.812 289.402C124.176 291.709 123.155 294.366 121.242 296.495C117.692 300.45 111.726 301.846 106.343 301.717C101.133 301.607 96.1135 300.327 90.9341 299.927C92.2164 304.062 94.7415 307.701 98.1656 310.349C101.59 312.997 105.747 314.526 110.071 314.727Z" fill="black"/>
<path opacity="0.1" d="M99.6812 355.585C101.797 359.709 105.216 363.018 109.407 365C113.597 366.981 118.325 367.523 122.855 366.541C127.385 365.559 131.464 363.108 134.458 359.57C137.452 356.031 139.194 351.603 139.413 346.973C139.56 344.062 139.092 341.153 138.041 338.435C136.309 339.572 134.755 340.959 133.427 342.55C131.428 345.01 130.106 347.754 127.793 350.03C123.487 354.25 116.542 355.997 110.36 356.181C106.792 356.194 103.226 355.994 99.6812 355.585Z" fill="black"/>
<path d="M266.167 408.419L184.97 425.027L183.124 424.843L111.769 417.646V327.221L199.118 312.458L262.477 319.839L262.495 320.239L262.501 320.436L266.167 408.419Z" fill="#5EA646"/>
<path opacity="0.1" d="M266.167 408.419L184.969 425.027L183.124 424.843V332.142L262.495 320.239L266.167 408.419Z" fill="black"/>
<path opacity="0.05" d="M262.501 320.436L262.477 320.454L183.124 332.142L111.769 327.221L199.118 312.458L262.477 319.839L262.495 320.239L262.501 320.436Z" fill="black"/>
<path d="M355.362 412.109L274.164 428.718L272.319 428.533L200.963 421.336V330.912L288.312 316.148L351.671 323.53L351.69 323.93L351.696 324.127L355.362 412.109Z" fill="#3F3D56"/>
<path opacity="0.1" d="M355.362 412.109L274.164 428.718L272.319 428.533V335.833L351.69 323.93L355.362 412.109Z" fill="black"/>
<path opacity="0.05" d="M351.696 324.127L351.671 324.145L272.319 335.833L200.963 330.912L288.312 316.148L351.671 323.53L351.69 323.93L351.696 324.127Z" fill="black"/>
<path d="M299.385 323.53L218.187 340.139L216.341 339.954L144.986 332.757V242.332L232.335 227.569L295.694 234.951L295.712 235.35L295.718 235.547L299.385 323.53Z" fill="#3F3D56"/>
<path opacity="0.1" d="M299.385 323.53L218.187 340.139L216.342 339.954V247.253L295.713 235.35L299.385 323.53Z" fill="black"/>
<path opacity="0.05" d="M295.718 235.547L295.694 235.566L216.341 247.253L144.986 242.332L232.335 227.569L295.694 234.951L295.712 235.35L295.718 235.547Z" fill="black"/>
<path d="M345.52 327.319L303.143 335.993L302.178 335.894L264.938 332.136V284.943L310.525 277.235L343.595 281.092L343.607 281.301V281.399L345.52 327.319Z" fill="#3F3D56"/>
<path opacity="0.1" d="M345.52 327.319L303.143 335.993L302.178 335.894V287.514L343.607 281.301L345.52 327.319Z" fill="black"/>
<path opacity="0.05" d="M343.607 281.399L343.595 281.412L302.178 287.514L264.938 284.943L310.525 277.235L343.595 281.092L343.607 281.301V281.399Z" fill="black"/>
<path d="M231.72 235.664L189.343 244.331L188.377 244.239L151.137 240.481V193.288L196.725 185.58L229.794 189.437L229.807 189.646V189.744L231.72 235.664Z" fill="#3F3D56"/>
<path opacity="0.1" d="M231.72 235.664L189.343 244.331L188.377 244.239V195.859L229.807 189.646L231.72 235.664Z" fill="black"/>
<path opacity="0.05" d="M229.807 189.744L229.794 189.757L188.377 195.859L151.137 193.288L196.725 185.58L229.794 189.437L229.807 189.646V189.744Z" fill="black"/>
<path d="M306.151 233.819L263.775 242.486L262.809 242.394L225.569 238.635V191.442L271.156 183.735L304.226 187.591L304.238 187.801V187.899L306.151 233.819Z" fill="#5EA646"/>
<path opacity="0.1" d="M306.151 233.819L263.775 242.486L262.809 242.394V194.013L304.238 187.801L306.151 233.819Z" fill="black"/>
<path opacity="0.05" d="M304.238 187.899L304.226 187.911L262.809 194.013L225.569 191.442L271.156 183.735L304.226 187.591L304.238 187.801V187.899Z" fill="black"/>
<path d="M328.296 186.453L285.919 195.121L284.954 195.028L247.713 191.27V144.077L293.301 136.369L326.371 140.226L326.383 140.435V140.534L328.296 186.453Z" fill="#3F3D56"/>
<path opacity="0.1" d="M328.296 186.453L285.919 195.121L284.954 195.028V146.648L326.383 140.435L328.296 186.453Z" fill="black"/>
<path opacity="0.05" d="M326.383 140.534L326.371 140.546L284.954 146.648L247.713 144.077L293.301 136.369L326.371 140.226L326.383 140.435V140.534Z" fill="black"/>
<path d="M357.158 89.9758C356.709 93.9741 353.658 97.1975 352.526 101.048C350.829 106.861 353.757 113.105 357.792 117.657C361.044 121.274 364.981 124.209 369.376 126.294C373.771 128.378 378.535 129.57 383.394 129.8C384.821 129.922 386.259 129.766 387.626 129.338C388.844 128.843 389.941 128.092 390.843 127.136C393.87 124.091 395.5 119.877 396.146 115.627C396.791 111.376 396.545 107.052 396.293 102.764C396.293 101.877 396.13 100.997 395.813 100.169C395.402 99.3803 394.835 98.6836 394.146 98.1202C391.965 96.1152 389.56 94.367 386.98 92.91C385.873 92.2948 384.686 91.6797 383.978 90.6155C383.493 89.7681 383.177 88.8341 383.049 87.8659L382.256 83.8306C382.116 82.6671 381.718 81.5493 381.093 80.5581C379.697 78.6757 377.021 78.4174 374.677 78.3251L366.066 77.9868C363.39 77.8822 359.871 77.1133 357.257 77.6423C354.796 78.1283 355.627 80.3797 356.07 82.4219C356.71 84.8919 357.075 87.4253 357.158 89.9758Z" fill="#FFC0C6"/>
<path opacity="0.1" d="M357.158 89.9758C356.709 93.9741 353.658 97.1975 352.526 101.048C350.829 106.861 353.757 113.105 357.792 117.657C361.044 121.274 364.981 124.209 369.376 126.294C373.771 128.378 378.535 129.57 383.394 129.8C384.821 129.922 386.259 129.766 387.626 129.338C388.844 128.843 389.941 128.092 390.843 127.136C393.87 124.091 395.5 119.877 396.146 115.627C396.791 111.376 396.545 107.052 396.293 102.764C396.293 101.877 396.13 100.997 395.813 100.169C395.402 99.3803 394.835 98.6836 394.146 98.1202C391.965 96.1152 389.56 94.367 386.98 92.91C385.873 92.2948 384.686 91.6797 383.978 90.6155C383.493 89.7681 383.177 88.8341 383.049 87.8659L382.256 83.8306C382.116 82.6671 381.718 81.5493 381.093 80.5581C379.697 78.6757 377.021 78.4174 374.677 78.3251L366.066 77.9868C363.39 77.8822 359.871 77.1133 357.257 77.6423C354.796 78.1283 355.627 80.3797 356.07 82.4219C356.71 84.8919 357.075 87.4253 357.158 89.9758Z" fill="black"/>
<path d="M411.85 270.063L408.196 310.12C407.242 320.627 406.27 331.176 404.4 341.547C403.785 345.121 402.998 348.677 402.1 352.201C399.602 361.988 395.979 371.554 394.81 381.586C394.773 381.876 394.743 382.202 394.712 382.466C394.472 384.681 394.263 386.92 393.482 388.986C392.867 390.518 391.999 391.915 391.366 393.428C390.135 396.454 389.938 399.801 389.785 403.079C385.351 400.576 380.495 398.908 375.458 398.158C372.998 397.795 370.322 397.543 368.692 395.698C366.846 393.692 367.062 390.623 367.369 387.928C368.337 379.563 369.301 371.201 370.26 362.843C370.58 359.247 371.197 355.683 372.106 352.189C372.438 351.027 372.838 349.882 373.244 348.738C373.803 347.163 374.369 345.589 374.794 343.971C375.383 341.372 375.79 338.735 376.012 336.079C377.002 327.664 378.196 319.267 379.241 310.858L379.297 310.415C380.865 297.67 382.059 284.863 381.714 272.025C381.665 270.124 381.585 268.223 381.462 266.316C381.29 263.554 381.037 262.09 383.307 260.362C385.836 258.455 389.163 257.12 392.055 255.871C393.611 255.195 410.748 249.105 411.124 250.446C411.919 253.294 412.333 256.236 412.354 259.193C412.389 262.823 412.22 266.452 411.85 270.063Z" fill="#605D82"/>
<path opacity="0.1" d="M404.401 341.547C403.786 345.121 402.998 348.677 402.1 352.201C399.603 361.988 395.979 371.554 394.811 381.586C394.774 381.876 394.743 382.202 394.712 382.466C387.072 371.554 380.638 359.817 373.183 348.787C373.742 347.213 374.308 345.638 374.733 344.02C375.344 341.406 375.772 338.753 376.012 336.079C377.003 327.664 378.196 319.267 379.242 310.858L379.297 310.415C379.729 312.2 380.347 313.934 381.142 315.589C386.15 325.763 398.046 330.905 403.866 340.643C404.058 340.947 404.237 341.248 404.401 341.547Z" fill="black"/>
<path d="M342.407 252.094C342.659 260.251 343.963 268.34 345.268 276.398L347.956 293.007C349.426 302.111 350.964 311.393 355.27 319.544C358.493 325.646 363.131 330.85 367.332 336.319C377.654 349.765 385.411 365.002 395.198 378.843C398.046 382.866 402.112 387.221 406.966 386.378C410.152 385.831 412.465 383.173 414.962 381.131C417.915 378.72 421.47 376.954 423.796 373.928C426.121 370.902 426.576 365.882 423.427 363.729C422.35 362.997 421.04 362.72 419.822 362.253C414.944 360.407 411.782 355.634 409.777 350.811C407.771 345.989 406.547 340.815 403.871 336.331C398.052 326.593 386.149 321.451 381.142 311.27C378.337 305.574 378.067 298.968 377.857 292.65L377.31 276.466C377.248 274.694 377.205 272.855 377.925 271.237C379.838 266.931 385.62 266.525 390.308 265.978C395.623 265.357 400.773 263.733 405.483 261.192C408.183 259.734 410.816 257.877 412.25 255.17C413.566 252.71 413.744 249.812 413.898 247.02L415.522 217.684C415.664 215.162 415.787 212.547 414.907 210.185C412.674 204.243 405.169 202.299 398.827 202.582C387.029 203.111 376.141 208.186 364.995 211.619C362.233 212.467 359.459 213.23 356.611 213.802C354.15 214.301 351.074 214.098 348.712 214.897C344.48 216.324 344.585 225.588 343.988 229.427C342.757 236.917 342.228 244.506 342.407 252.094Z" fill="#605D82"/>
<path d="M405.366 387.621C406.406 388.673 406.744 390.211 407.015 391.662C408.519 399.719 409.301 407.894 409.352 416.089C409.285 416.854 409.437 417.622 409.789 418.304C410.084 418.708 410.481 419.026 410.939 419.227C413.947 420.66 417.435 418.661 419.945 416.465C424.589 412.399 428.52 406.936 428.784 400.766C428.852 399.179 428.674 397.574 428.951 396.005C429.357 393.68 430.716 391.656 431.909 389.626C433.951 386.166 435.602 382.49 436.83 378.665C437.286 377.225 437.593 375.417 436.461 374.414C436.065 374.099 435.612 373.863 435.127 373.719L421.532 368.675C420.351 368.238 417.423 375.761 416.962 376.585C415.824 378.597 414.692 379.735 412.41 380.202C410.127 380.67 407.31 379.993 405.133 381.156C401.442 383.118 403.281 385.523 405.366 387.621Z" fill="#535070"/>
<path d="M384.402 392.265C384.15 391.763 383.799 391.317 383.369 390.955C382.741 390.555 382.025 390.312 381.284 390.248C378.7 389.805 375.637 389.516 373.847 391.441C372.173 393.243 372.463 396.177 371.066 398.207C370.623 398.822 370.021 399.376 369.639 400.053C369.165 401.089 368.954 402.225 369.024 403.362C368.95 406.493 368.876 409.637 369.098 412.761C369.276 415.382 369.713 418.132 371.355 420.186C373.988 423.483 378.737 423.957 382.945 424.166L386.358 424.344C387.297 424.454 388.249 424.366 389.151 424.086C389.711 423.829 390.212 423.461 390.627 423.006C391.041 422.55 391.359 422.016 391.563 421.435C393.34 417.018 390.529 412.263 388.794 407.834C386.795 402.735 387.152 397.082 384.402 392.265Z" fill="#535070"/>
<path d="M356.174 67.4311C356.13 66.9833 356.196 66.5316 356.365 66.1147C356.863 65.235 358.167 65.4995 359.151 65.721C363.107 66.7175 367.277 65.8133 371.355 66.047C375.434 66.2808 380.023 68.3169 380.841 72.3152C383.8 70.2213 386.349 67.6026 388.364 64.5891C389.496 62.8975 390.48 60.9598 390.326 58.9299C390.105 56.0019 387.65 53.812 385.405 51.9543L378.639 46.4181C377.747 45.6004 376.719 44.9466 375.6 44.4865C374.037 43.9514 372.327 44.2097 370.679 44.2097C365.758 44.2097 360.48 41.9645 356.094 44.2097C354.249 45.1509 352.877 46.7687 351.548 48.3434L345.501 55.5036C345.044 55.96 344.709 56.5251 344.529 57.146C344.357 58.0195 344.806 58.8807 344.966 59.7603C345.249 61.3597 344.56 63.0698 345.089 64.6076C345.969 67.1543 349.069 67.5172 350.964 68.9812C351.665 69.5225 352.772 71.3741 353.615 71.3495C355.097 71.3187 356.131 68.6121 356.174 67.4311Z" fill="#3F3D56"/>
<path d="M366.434 88.5487C377.136 88.5487 385.811 79.8734 385.811 69.172C385.811 58.4705 377.136 49.7952 366.434 49.7952C355.733 49.7952 347.058 58.4705 347.058 69.172C347.058 79.8734 355.733 88.5487 366.434 88.5487Z" fill="#FFC0C6"/>
<path d="M370.974 111.573C370.318 109.695 369.082 108.074 367.444 106.944C365.807 105.814 363.853 105.234 361.864 105.286C361.294 105.395 360.703 105.32 360.179 105.071C359.881 104.844 359.643 104.549 359.483 104.21C358.309 102.089 357.362 99.8499 356.66 97.5296C356.352 96.5023 355.928 95.2905 354.888 95.026C354.052 94.8107 353.197 95.352 352.637 96.0102C352.141 96.7165 351.603 97.3923 351.025 98.034C348.565 100.212 344.259 98.2247 341.681 100.224C341.257 100.55 340.906 100.968 340.451 101.27C340.008 101.539 339.53 101.746 339.03 101.885C334.027 103.512 329.122 105.429 324.341 107.624C326.063 117.983 327.822 128.539 331.858 138.227C333.777 142.84 335.948 147.362 337.486 152.117C340.894 162.654 341.042 173.929 341.085 185.008C341.085 192.586 341.085 200.325 338.624 207.497C338.071 209.121 337.394 210.733 337.24 212.418C337.086 214.104 337.591 216.011 338.975 217.019C339.776 217.548 340.695 217.871 341.651 217.961C345.901 218.576 350.183 217.456 354.366 216.484C365.579 213.888 377.021 212.4 388.432 210.948L407.562 208.488C408.935 208.392 410.278 208.043 411.524 207.46C415.024 205.547 415.356 200.282 413.179 196.935C412.139 195.33 410.669 194.013 409.789 192.316C408.91 190.618 408.842 188.231 410.349 187.056C413.425 184.657 412.502 180.21 412.65 176.322C413.06 165.447 413.004 154.579 412.483 143.72C412.327 141.468 412.29 139.209 412.373 136.954C412.588 133.127 413.535 129.381 414.483 125.66L420.296 102.777C418.776 100.378 415.867 98.8521 413.117 98.1632C410.367 97.4742 407.495 97.2712 404.782 96.4285C399.246 94.7061 394.275 90.3386 388.475 90.7446C388.035 90.7525 387.602 90.8575 387.208 91.0522C385.903 91.7965 386.106 93.6788 386.027 95.1798C385.842 98.5076 383.394 101.282 380.699 103.232C378.005 105.182 374.917 106.597 372.438 108.817C372.008 109.142 371.654 109.557 371.401 110.033C371.148 110.509 371.002 111.035 370.974 111.573Z" fill="#3F3D56"/>
<path d="M294.199 133.281C292.916 134.116 291.552 134.818 290.127 135.379C288.774 135.914 287.328 136.338 286.221 137.273C285.673 137.749 285.213 138.317 284.862 138.953C284.206 140.116 283.875 141.434 283.902 142.769C283.929 144.103 284.314 145.407 285.017 146.542C285.719 147.677 286.713 148.604 287.896 149.224C289.078 149.844 290.405 150.136 291.739 150.068C293.517 149.976 295.196 149.256 296.826 148.549L310.494 142.6C312.807 141.598 315.305 140.429 316.4 138.153C316.525 137.94 316.573 137.69 316.535 137.446C316.429 137.178 316.227 136.958 315.969 136.83C312.889 134.827 310.195 132.284 308.015 129.326C307.456 128.563 306.785 126.767 305.973 126.306C303.082 124.7 296.518 131.78 294.199 133.281Z" fill="#FFC0C6"/>
<path d="M440.306 128.452L445.344 134.21C446.427 135.44 447.509 136.671 448.493 137.999C450.915 141.335 452.858 144.994 454.263 148.869C455.358 151.741 456.269 154.805 455.887 157.856C455.632 159.42 455.209 160.952 454.626 162.426C453.703 165.26 452.558 168.016 451.2 170.669C450.066 172.682 448.785 174.609 447.368 176.433C443.466 181.603 439.196 186.486 434.591 191.042C432.869 192.746 432.131 195.508 431.399 197.809C430.015 202.059 426.724 205.375 423.544 208.512C422.521 209.593 421.389 210.566 420.167 211.416C418.336 212.597 416.194 213.205 414.015 213.163C413.065 213.168 412.123 212.973 411.253 212.59C409.076 211.557 407.968 209.041 407.741 206.642C407.54 204.462 407.904 202.267 408.799 200.269C411.69 193.866 419.115 191.092 424.362 186.417C427.437 183.679 429.793 180.234 432.119 176.833C433.693 174.706 435.009 172.4 436.037 169.962C437.206 166.831 436.751 163.128 437.778 159.953C438.208 158.606 439.008 157.394 439.445 156.06C439.882 154.725 440.029 153.144 439.211 151.994C438.598 151.258 437.815 150.684 436.929 150.32C433.576 148.623 429.824 146.433 429.184 142.724C428.928 140.669 429.465 138.595 430.685 136.923C431.899 135.272 433.319 133.784 434.911 132.494C436.369 131.177 438.836 129.72 440.306 128.452Z" fill="#FFC0C6"/>
<path d="M290.964 141.315C290.078 139.519 288.965 137.686 287.168 136.794C286.294 136.416 285.352 136.222 284.4 136.222C283.448 136.222 282.506 136.416 281.632 136.794C279.892 137.546 278.261 138.531 276.785 139.722L272.442 142.926C271.458 143.573 270.587 144.377 269.865 145.307C269.176 146.436 268.72 147.69 268.524 148.998C267.909 151.994 267.41 155.075 267.841 158.108C268.53 163.029 271.483 167.286 274.73 171.026C276.76 173.351 279.27 175.701 282.358 175.805C283.693 175.848 285.175 175.319 285.729 174.108C285.922 173.626 286.024 173.113 286.03 172.594C286.363 167.132 284.407 161.799 282.131 156.822C281.515 155.469 280.851 154.067 280.9 152.584C280.881 152.332 280.946 152.082 281.085 151.871C281.28 151.666 281.542 151.537 281.823 151.508C284.942 150.892 290.318 153.316 292.502 149.853C293.917 147.565 291.973 143.351 290.964 141.315Z" fill="#FFC0C6"/>
<path d="M355.153 61.3351C355.114 60.8869 355.182 60.4359 355.35 60.0187C355.848 59.1329 357.152 59.4035 358.136 59.625C362.092 60.6215 366.262 59.7173 370.341 59.951C374.419 60.1848 379.002 62.2209 379.826 66.2192C382.782 64.1219 385.331 61.5038 387.349 58.4931C388.481 56.7954 389.465 54.8577 389.311 52.8277C389.09 49.8997 386.629 47.7098 384.39 45.8583L377.624 40.3221C376.735 39.5045 375.708 38.8506 374.591 38.3905C373.022 37.8554 371.319 38.1137 369.67 38.1137C364.749 38.1137 359.471 35.8685 355.085 38.1137C353.24 39.0549 351.868 40.6727 350.539 42.2474L344.486 49.4076C344.031 49.865 343.699 50.43 343.521 51.05C343.348 51.9235 343.797 52.7847 343.957 53.6643C344.24 55.2637 343.551 56.9738 344.08 58.5054C344.96 61.0582 348.06 61.4212 349.955 62.8852C350.656 63.4265 351.763 65.2781 352.606 65.2535C354.064 65.2227 355.097 62.5161 355.153 61.3351Z" fill="#3F3D56"/>
<path d="M314.001 114.433C313.22 114.941 312.533 115.58 311.971 116.322C311.263 117.398 311.116 118.782 310.507 119.89C309.203 122.313 306.145 123.181 304.245 125.168C303.936 125.439 303.721 125.801 303.629 126.201C303.618 126.742 303.799 127.27 304.14 127.69L313.33 142.133C316.406 142.404 319.322 140.484 322.385 140.743C323.523 140.835 324.698 141.229 325.793 140.89C326.575 140.542 327.309 140.093 327.976 139.556C329.822 138.399 332.233 138.264 333.765 136.744C335.297 135.225 335.426 132.992 335.407 130.919C335.435 129.12 335.251 127.324 334.86 125.567C333.506 120.031 329.268 115.762 326.611 110.853C325.313 108.461 324.612 107.064 321.874 108.707C319.137 110.349 316.59 112.539 314.001 114.433Z" fill="#3F3D56"/>
<path d="M425.592 107.132C427.319 108.253 428.877 109.616 430.218 111.179C431.614 112.982 432.408 115.196 433.755 117.042C435.102 118.887 436.83 120.216 438.307 121.864C440.552 124.362 442.071 127.401 443.56 130.421C439.916 135.162 435.945 139.643 431.676 143.831C431.199 144.391 430.571 144.801 429.867 145.012C429.39 145.063 428.907 144.995 428.462 144.814C428.018 144.632 427.625 144.343 427.32 143.972C426.656 143.283 426.189 142.422 425.555 141.702C424.062 140.163 422.073 139.202 419.939 138.99C417.823 138.784 415.693 138.753 413.572 138.897C413.107 138.953 412.635 138.874 412.213 138.67C411.899 138.454 411.645 138.162 411.475 137.821C409.014 133.589 409.783 128.274 410.663 123.439L412.674 112.367C412.968 110.253 413.532 108.185 414.353 106.215C415.116 104.585 416.814 101.817 418.918 102.309C421.021 102.801 423.814 105.852 425.592 107.132Z" fill="#3F3D56"/>
<path d="M250.174 188.299L207.797 196.966L206.832 196.874L169.591 193.115V145.922L215.179 138.215L248.249 142.071L248.261 142.281V142.379L250.174 188.299Z" fill="#5EA646"/>
<path opacity="0.1" d="M250.174 188.299L207.797 196.966L206.832 196.874V148.493L248.261 142.281L250.174 188.299Z" fill="black"/>
<path opacity="0.05" d="M248.261 142.379L248.249 142.391L206.832 148.493L169.591 145.922L215.179 138.215L248.249 142.071L248.261 142.281V142.379Z" fill="black"/>
<path d="M272.319 141.549L229.942 150.222L228.977 150.124L191.736 146.365V99.172L237.324 91.4644L270.394 95.3213L270.406 95.5304V95.6288L272.319 141.549Z" fill="#3F3D56"/>
<path opacity="0.1" d="M272.319 141.549L229.942 150.222L228.977 150.124V101.743L270.406 95.5305L272.319 141.549Z" fill="black"/>
<path opacity="0.05" d="M270.406 95.6288L270.394 95.6411L228.977 101.743L191.736 99.172L237.324 91.4644L270.394 95.3213L270.406 95.5304V95.6288Z" fill="black"/>
</g>
<defs>
<clipPath id="clip0">
<rect width="584.113" height="432.839" fill="white" transform="translate(0.90918)"/>
</clipPath>
</defs>
</svg>
