<svg width="32" height="46" viewBox="0 0 32 46" fill="none" xmlns="http://www.w3.org/2000/svg">
<path d="M16 0C7.1776 0 0 7.1776 0 16C0 18.9808 0.825689 21.8898 2.38836 24.4135L15.0892 44.8808C15.3325 45.2729 15.7612 45.5111 16.2221 45.5111C16.2257 45.5111 16.2292 45.5111 16.2327 45.5111C16.6977 45.5075 17.1272 45.2619 17.366 44.8629L29.7432 24.1973C31.2196 21.7269 32 18.8924 32 16C32 7.1776 24.8224 0 16 0ZM27.4548 22.8283L16.202 41.6165L4.65484 23.0085C3.35413 20.9079 2.64889 18.4844 2.64889 16C2.64889 8.648 8.648 2.64889 16 2.64889C23.352 2.64889 29.3422 8.648 29.3422 16C29.3422 18.4108 28.6835 20.7723 27.4548 22.8283Z" fill="#2CB357"/>
<path d="M16 8C11.5888 8 8 11.5888 8 16C8 20.383 11.5304 24 16 24C20.5247 24 24 20.3348 24 16C24 11.5888 20.4112 8 16 8ZM16 21.3511C13.0438 21.3511 10.6489 18.9482 10.6489 16C10.6489 13.0592 13.0592 10.6489 16 10.6489C18.9408 10.6489 21.3422 13.0592 21.3422 16C21.3422 18.9052 19.003 21.3511 16 21.3511Z" fill="#2CB357"/>
</svg>
