<svg width="353" height="361" viewBox="0 0 353 361" fill="none" xmlns="http://www.w3.org/2000/svg">
<g clip-path="url(#clip0)">
<path d="M266.395 124.682C253.551 141.869 229.168 145.363 211.947 132.484C194.717 119.605 191.171 95.2394 204.015 78.0529C216.86 60.8664 241.243 57.372 258.464 70.2511C275.694 83.1215 279.24 107.496 266.395 124.682Z" fill="#F0F0F0"/>
<path d="M258.974 119.129C249.183 132.225 230.604 134.889 217.482 125.08C204.353 115.272 201.654 96.7013 211.436 83.5973C221.228 70.502 239.807 67.8379 252.928 77.6465C266.058 87.4636 268.765 106.034 258.974 119.129Z" fill="#F5F5F5"/>
<path d="M259.527 118.385C259.38 118.282 260.055 117.166 261.033 115.055C261.993 112.954 263.229 109.796 263.74 105.723C263.991 103.69 264.06 101.441 263.818 99.0538C263.558 96.6666 263.031 94.1496 262.07 91.6326C261.595 90.3784 261.032 89.1156 260.349 87.8874C259.675 86.6591 258.905 85.4396 258.014 84.2805C257.123 83.1215 256.154 81.9971 255.064 80.9591C253.975 79.9212 252.798 78.9438 251.535 78.0443C250.264 77.162 248.941 76.3922 247.583 75.7262C246.233 75.0602 244.841 74.5326 243.448 74.0914C242.056 73.6503 240.646 73.3476 239.262 73.1314C237.878 72.9065 236.494 72.8113 235.153 72.8027C232.463 72.7681 229.912 73.1314 227.585 73.7109C225.258 74.3077 223.174 75.1467 221.349 76.0722C217.69 77.9491 215.156 80.1893 213.512 81.8154C211.869 83.4588 211.047 84.4795 210.909 84.3757C210.796 84.2978 211.367 83.1042 212.855 81.2273C214.343 79.3763 216.825 76.8333 220.579 74.671C222.456 73.5984 224.635 72.621 227.092 71.9031C229.548 71.2025 232.264 70.7441 235.153 70.7181C236.598 70.7008 238.077 70.7787 239.573 70.9949C241.07 71.2025 242.592 71.5052 244.097 71.9723C245.602 72.4307 247.107 72.993 248.569 73.7022C250.03 74.4115 251.458 75.2505 252.833 76.1933C254.199 77.162 255.471 78.2172 256.639 79.3417C257.815 80.4748 258.853 81.6943 259.796 82.9572C260.747 84.2113 261.551 85.5347 262.261 86.8754C262.979 88.2074 263.558 89.574 264.034 90.932C265.003 93.6479 265.504 96.3638 265.686 98.9154C265.85 101.467 265.686 103.854 265.314 105.982C264.57 110.255 263.031 113.455 261.802 115.488C260.565 117.512 259.631 118.463 259.527 118.385Z" fill="#E0E0E0"/>
<path d="M238.001 120.532L232.013 115.639L233.876 97.0865L224.039 109.123L218.052 104.23L235.652 82.6922L241.64 87.5853L239.652 106.291L249.613 94.1011L255.601 98.9943L238.001 120.532Z" fill="#E0E0E0"/>
<path d="M223.966 87.1681L254.218 111.889" stroke="#E0E0E0" stroke-width="3.00524"/>
<path d="M220.163 91.8223L250.415 116.543" stroke="#E0E0E0" stroke-width="3.00524"/>
<path d="M202.327 26.6153C202.362 39.0942 192.248 49.24 179.741 49.2707C167.23 49.3045 157.066 39.2162 157.031 26.7373C156.996 14.2584 167.111 4.11272 179.618 4.08194C192.126 4.04411 202.293 14.1365 202.327 26.6153Z" fill="#F0F0F0"/>
<path d="M196.937 26.6273C196.961 36.1371 189.255 43.8686 179.727 43.8941C170.195 43.9226 162.45 36.2322 162.419 26.7214C162.394 17.2116 170.101 9.48014 179.629 9.45463C189.164 9.43012 196.912 17.1175 196.937 26.6273Z" fill="#F5F5F5"/>
<path d="M196.934 26.088C196.829 26.0912 196.753 25.3367 196.47 24.0139C196.181 22.7013 195.653 20.8013 194.467 18.729C193.873 17.6963 193.119 16.6266 192.172 15.6014C191.217 14.5823 190.093 13.5965 188.767 12.7618C188.107 12.345 187.404 11.9544 186.657 11.6222C185.915 11.287 185.131 10.989 184.311 10.7615C183.492 10.534 182.649 10.3498 181.779 10.2481C180.91 10.1465 180.021 10.1032 179.12 10.1263C178.221 10.1605 177.336 10.2651 176.472 10.43C175.612 10.5919 174.78 10.8333 173.979 11.1149C173.177 11.3965 172.416 11.7485 171.697 12.1316C170.975 12.5107 170.298 12.9501 169.672 13.4146C168.409 14.3386 167.35 15.3992 166.471 16.4817C165.598 17.5723 164.922 18.6908 164.397 19.7589C163.352 21.9101 162.957 23.8373 162.761 25.1676C162.571 26.5059 162.546 27.2676 162.445 27.2677C162.366 27.2708 162.214 26.5164 162.25 25.1239C162.294 23.7434 162.56 21.6937 163.549 19.3765C164.047 18.2219 164.719 17.0058 165.61 15.8136C166.507 14.6294 167.61 13.4671 168.944 12.4455C169.609 11.9326 170.324 11.4519 171.095 11.0295C171.863 10.6031 172.677 10.2118 173.54 9.90301C174.4 9.59017 175.296 9.32558 176.223 9.14447C177.151 8.96336 178.107 8.85466 179.076 8.81235C180.05 8.78513 181.01 8.83137 181.946 8.94605C182.889 9.06173 183.798 9.26598 184.677 9.5236C185.558 9.77416 186.394 10.1083 187.193 10.4837C187.992 10.8521 188.739 11.2849 189.435 11.75C190.834 12.6741 192.016 13.7614 192.993 14.8842C193.961 16.013 194.719 17.1803 195.289 18.2994C196.437 20.5459 196.839 22.5718 196.979 23.946C197.111 25.3192 197.009 26.088 196.934 26.088Z" fill="#E0E0E0"/>
<path d="M187.677 34.5999L183.183 34.4176L177.566 25.1415L177.199 34.175L172.706 33.9927L173.361 17.8288L177.855 18.011L183.468 27.4018L183.839 18.2537L188.333 18.4359L187.677 34.5999Z" fill="#E0E0E0"/>
<path d="M169.492 24.0026L192.196 24.9232" stroke="#E0E0E0" stroke-width="1.74787"/>
<path d="M169.351 27.4955L192.054 28.4162" stroke="#E0E0E0" stroke-width="1.74787"/>
<path d="M127.07 182.236C130.625 206.731 113.611 229.479 89.0553 233.052C64.4995 236.615 41.7167 219.654 38.1531 195.158C34.5896 170.663 51.6117 147.915 76.159 144.343C100.715 140.779 123.506 157.741 127.07 182.236Z" fill="#F0F0F0"/>
<path d="M116.491 183.775C119.207 202.441 106.233 219.774 87.5243 222.499C68.8155 225.215 51.4473 212.293 48.7314 193.627C46.0155 174.962 58.9897 157.619 77.6985 154.903C96.4073 152.179 113.775 165.101 116.491 183.775Z" fill="#F5F5F5"/>
<path d="M116.327 182.712C116.12 182.746 115.765 181.284 114.84 178.767C113.906 176.268 112.34 172.687 109.425 168.95C107.972 167.091 106.19 165.205 104.045 163.449C101.891 161.719 99.4004 160.093 96.5634 158.822C95.1535 158.182 93.6658 157.611 92.1002 157.17C90.5433 156.72 88.9259 156.348 87.2565 156.14C85.5872 155.924 83.8746 155.794 82.136 155.838C80.3975 155.881 78.6416 156.045 76.8771 156.348C75.1213 156.677 73.4087 157.118 71.7653 157.68C70.1132 158.234 68.5563 158.943 67.06 159.721C65.5636 160.491 64.1711 161.399 62.865 162.359C61.5503 163.311 60.348 164.357 59.2408 165.447C57.0179 167.61 55.2361 169.997 53.809 172.367C52.3991 174.754 51.3785 177.141 50.6519 179.39C49.1988 183.897 48.9653 187.798 48.948 190.47C48.948 193.152 49.1123 194.648 48.9134 194.682C48.7663 194.708 48.256 193.264 47.936 190.522C47.6332 187.797 47.5813 183.706 48.8788 178.871C49.5275 176.467 50.5135 173.889 51.9234 171.294C53.3592 168.725 55.1929 166.122 57.5283 163.752C58.6959 162.567 59.9588 161.417 61.36 160.37C62.7525 159.315 64.2402 158.329 65.849 157.472C67.4492 156.616 69.1359 155.838 70.909 155.232C72.6821 154.618 74.5245 154.134 76.4187 153.788C78.3216 153.459 80.2158 153.286 82.0928 153.251C83.9697 153.217 85.8207 153.364 87.6198 153.615C89.4189 153.857 91.1574 154.281 92.8268 154.791C94.4961 155.293 96.0876 155.933 97.584 156.651C100.594 158.078 103.215 159.877 105.446 161.806C107.661 163.752 109.477 165.828 110.913 167.869C113.793 171.96 115.151 175.818 115.817 178.482C116.457 181.155 116.474 182.686 116.327 182.712Z" fill="#E0E0E0"/>
<path d="M100.109 206H90.4108L77.4957 186.504V206H67.7969V171.114H77.4957L90.4108 190.858V171.114H100.109V206Z" fill="#E0E0E0"/>
<path d="M60 184.667H109" stroke="#E0E0E0" stroke-width="3.76923"/>
<path d="M60 192.205H109" stroke="#E0E0E0" stroke-width="3.76923"/>
<path d="M352.25 360.095C352.25 360.216 240.533 360.32 166.139 360.32C91.7191 360.32 0 360.216 0 360.095C0 359.974 91.7191 359.87 166.139 359.87C240.533 359.862 352.25 359.965 352.25 360.095Z" fill="#263238"/>
<path d="M64.6809 324.753C79.532 314.382 82.8967 295.129 82.3085 277.813C82.2134 274.924 82.5248 271.879 81.1581 269.345C79.7829 266.81 76.5739 265.08 73.9877 266.291C71.8427 267.303 70.9085 269.794 69.7062 271.862C68.1061 274.612 65.7275 276.878 62.9337 278.331C61.0914 279.283 58.8165 279.871 57.0001 278.868C54.5091 277.492 54.215 274.05 54.2323 271.178C54.2669 265.824 54.3015 260.47 54.3361 255.108C54.3534 252.236 54.3621 249.304 53.4712 246.571C52.5803 243.846 50.5995 241.312 47.8663 240.542C45.1331 239.781 41.7511 241.355 41.1716 244.166C40.9294 245.334 41.1716 246.553 41.0938 247.747C41.0159 248.941 40.4623 250.264 39.3293 250.593C38.1789 250.93 37.0285 250.117 36.1722 249.278C33.2054 246.38 31.1901 242.635 29.3132 238.924C27.4362 235.205 25.6025 231.399 22.9126 228.234C20.2226 225.068 16.4946 222.56 12.3861 222.326C8.26899 222.093 3.8837 224.636 2.84577 228.675C1.79918 232.723 4.16914 236.84 6.73803 240.118C10.5524 244.988 15.0675 249.287 20.0928 252.85C21.001 253.49 21.9784 254.191 22.3244 255.255C22.9472 257.166 21.1308 259.069 19.2452 259.7C17.1001 260.41 14.782 260.194 12.5418 260.453C10.3016 260.712 7.87111 261.707 7.02346 263.826C5.84713 266.767 8.30359 269.838 10.7168 271.862C15.5605 275.901 21.0789 279.093 26.9778 281.246C29.0883 282.016 31.3198 282.699 33.0238 284.187C34.7277 285.675 35.757 288.252 34.7277 290.276C33.6985 292.3 31.0517 292.949 28.8374 292.543C26.6232 292.136 24.6424 290.934 22.532 290.138C18.5792 288.65 13.4846 288.918 10.9503 292.335C9.28963 294.575 9.14259 297.706 9.98158 300.379C10.8206 303.052 12.5245 305.352 14.3409 307.48C20.6723 314.901 28.7683 320.887 37.9367 324.061C47.0878 327.218 55.573 328.083 64.6809 324.753Z" fill="url(#paint0_linear)"/>
<path d="M6.98882 224.739C6.98017 224.748 7.07532 224.843 7.26561 225.016C7.48184 225.206 7.75863 225.457 8.1219 225.777C8.87441 226.443 9.98154 227.421 11.3828 228.727C14.1765 231.322 18.0948 235.231 22.3589 240.577C24.4954 243.241 26.7183 246.259 29.045 249.537C31.3631 252.824 33.8282 256.353 36.2673 260.15C38.7151 263.956 41.1629 268.03 43.3599 272.433C44.467 274.63 45.4531 276.93 46.465 279.274C47.4684 281.618 48.4804 283.997 49.5097 286.402C53.5922 296.037 57.1818 305.353 59.7506 314.054C62.3282 322.747 63.8678 330.808 64.5425 337.632C65.2344 344.466 65.0874 350.036 64.8106 353.859C64.6635 355.77 64.5165 357.258 64.3781 358.261C64.3262 358.746 64.283 359.118 64.2484 359.403C64.2224 359.663 64.2138 359.792 64.2224 359.792C64.2311 359.792 64.257 359.663 64.3003 359.412C64.3435 359.126 64.4041 358.754 64.4819 358.279C64.6549 357.284 64.8279 355.796 65.0095 353.885C65.3555 350.053 65.5544 344.466 64.9057 337.598C64.283 330.739 62.778 322.643 60.2091 313.916C57.6575 305.18 54.0766 295.838 49.9854 286.194C48.9561 283.789 47.9355 281.411 46.9321 279.067C45.9288 276.731 44.9254 274.413 43.8097 272.208C41.5954 267.779 39.1303 263.697 36.6652 259.891C34.2001 256.085 31.7263 252.565 29.391 249.287C27.047 246.017 24.7981 243.007 22.6357 240.352C18.3283 235.024 14.3495 231.14 11.5125 228.588C10.094 227.308 8.9609 226.348 8.1911 225.708C7.81917 225.405 7.52509 225.163 7.3002 224.99C7.10127 224.809 6.99747 224.731 6.98882 224.739Z" fill="#263238"/>
<path d="M43.6626 272.165C43.6972 272.173 43.7923 271.732 43.9394 270.936C44.0864 270.141 44.268 268.99 44.4756 267.554C44.8822 264.691 45.306 260.721 45.7644 256.345C46.2142 251.959 46.6985 248.007 47.1483 245.161C47.3732 243.734 47.5548 242.583 47.7019 241.796C47.8403 241 47.9008 240.559 47.8662 240.551C47.8316 240.542 47.7019 240.975 47.5029 241.753C47.2954 242.531 47.0532 243.682 46.785 245.1C46.2401 247.937 45.6952 251.907 45.2454 256.293C44.813 260.617 44.4151 264.527 44.1124 267.511C43.9653 268.86 43.8442 269.993 43.7491 270.91C43.6539 271.715 43.628 272.165 43.6626 272.165Z" fill="#263238"/>
<path d="M6.7207 265.262C6.7207 265.297 7.24832 265.357 8.19111 265.435C9.14256 265.522 10.5092 265.634 12.2045 265.833C15.5864 266.196 20.2485 266.862 25.3517 267.831C30.4549 268.8 35.0391 269.881 38.3345 270.755C39.9866 271.178 41.31 271.559 42.2268 271.819C43.1437 272.078 43.654 272.208 43.6713 272.173C43.6799 272.139 43.1869 271.94 42.2874 271.62C41.3878 271.3 40.0731 270.867 38.4297 270.391C35.1515 269.423 30.5673 268.281 25.4468 267.312C20.3263 266.352 15.647 265.738 12.2391 265.47C10.5351 265.323 9.15986 265.262 8.19976 265.245C7.24832 265.219 6.7207 265.228 6.7207 265.262Z" fill="#263238"/>
<path d="M59.7596 313.224C59.7769 313.232 59.8634 313.076 60.0104 312.774C60.1834 312.41 60.391 311.969 60.6418 311.433C61.1868 310.274 61.9306 308.57 62.8215 306.451C64.6033 302.221 66.8781 296.297 69.3086 289.723C71.7391 283.149 73.9534 277.216 75.6487 272.952C76.479 270.876 77.1623 269.172 77.664 267.909C77.8803 267.355 78.0619 266.906 78.2089 266.534C78.33 266.214 78.3819 266.049 78.3646 266.041C78.3473 266.032 78.2608 266.188 78.1138 266.49C77.9408 266.854 77.7332 267.295 77.4824 267.822C76.9375 268.981 76.1936 270.685 75.3027 272.805C73.5209 277.034 71.2461 282.959 68.8156 289.533C66.3851 296.106 64.1708 302.04 62.4755 306.304C61.6452 308.371 60.9619 310.084 60.4602 311.347C60.244 311.9 60.0623 312.35 59.9153 312.722C59.7942 313.042 59.7423 313.215 59.7596 313.224Z" fill="#263238"/>
<path d="M10.6649 297.395C10.6562 297.412 10.8292 297.481 11.1492 297.594C11.5298 297.724 12.0055 297.879 12.5764 298.07C13.8911 298.493 15.6729 299.073 17.8353 299.774C22.2725 301.209 28.379 303.268 35.1256 305.551C41.8722 307.835 48.0047 309.842 52.4764 311.191C54.708 311.865 56.5244 312.393 57.7872 312.73C58.3667 312.886 58.8511 313.007 59.2403 313.111C59.5777 313.189 59.7506 313.223 59.7593 313.206C59.7679 313.189 59.595 313.12 59.2749 313.007C58.8944 312.877 58.4186 312.722 57.8478 312.531C56.533 312.108 54.7513 311.528 52.5889 310.828C48.1517 309.392 42.0452 307.333 35.2899 305.041C28.5433 302.758 22.4109 300.751 17.9391 299.402C15.7075 298.727 13.8911 298.199 12.6283 297.862C12.0488 297.706 11.5644 297.585 11.1752 297.481C10.8465 297.412 10.6735 297.378 10.6649 297.395Z" fill="#263238"/>
<path d="M205.719 316.917L109.718 316.476C98.1713 316.424 88.8558 307.022 88.8991 295.475L89.9197 54.7943C89.9716 43.2386 99.3736 33.9145 110.929 33.9664L206.93 34.4075C218.477 34.4594 227.792 43.8614 227.749 55.4085L226.729 296.089C226.685 307.645 217.275 316.969 205.719 316.917Z" fill="#263238"/>
<path d="M206.791 42.7197L188.178 42.6332C185.678 42.6245 183.645 44.7264 183.637 47.3385L183.619 50.7118C183.611 53.3239 181.578 55.4258 179.078 55.4171L142.794 55.2528C140.294 55.2441 138.287 53.1164 138.296 50.5042L138.313 47.1309C138.322 44.5188 136.307 42.3997 133.816 42.3824L127.268 42.3478L110.981 42.2699C102.894 42.2353 96.3029 48.7657 96.2683 56.8529L95.2736 291.773C95.239 299.86 101.761 306.442 109.848 306.477L205.658 306.918C213.745 306.953 220.336 300.422 220.371 292.335L221.366 57.4151C221.409 49.3365 214.879 42.7543 206.791 42.7197Z" fill="white"/>
<path d="M185.03 158.9H123.324V218.339H185.03V158.9Z" fill="#2CB357"/>
<path d="M140.338 142.344L123.324 158.899H185.021L196.819 142.344H140.338Z" fill="#2DA553"/>
<path d="M185.021 218.339L196.819 201.55V142.344L185.021 158.899V218.339Z" fill="#258C45"/>
<path d="M168.881 183.585H136.67V187.235H168.881V183.585Z" fill="#258C45"/>
<path d="M163.06 189.96H142.5V193.402H163.06V189.96Z" fill="#258C45"/>
<path d="M135.9 139.974C135.84 139.983 135.892 139.153 135.52 137.734C135.156 136.35 134.231 134.318 132.146 132.743C131.117 131.974 129.82 131.325 128.323 131.065C126.836 130.815 125.166 130.867 123.575 131.472C122.77 131.749 122.001 132.173 121.291 132.709C120.573 133.228 119.925 133.877 119.388 134.629C118.281 136.108 117.659 138.002 117.633 139.966C117.65 141.921 118.273 143.823 119.388 145.303C119.925 146.055 120.573 146.704 121.291 147.223C122.001 147.759 122.77 148.174 123.575 148.46C125.166 149.065 126.844 149.117 128.323 148.866C129.82 148.607 131.117 147.958 132.146 147.188C134.231 145.623 135.156 143.59 135.52 142.206C135.892 140.796 135.84 139.966 135.9 139.974C135.9 139.974 136.013 140.805 135.701 142.258C135.39 143.685 134.482 145.804 132.345 147.465C131.29 148.278 129.949 148.97 128.393 149.255C126.844 149.532 125.097 149.498 123.428 148.866C122.589 148.581 121.776 148.14 121.023 147.586C120.271 147.041 119.579 146.366 119.017 145.579C117.849 144.031 117.183 142.033 117.166 139.974C117.183 137.916 117.849 135.918 119.017 134.37C119.587 133.582 120.271 132.908 121.023 132.363C121.767 131.809 122.58 131.368 123.428 131.083C125.097 130.46 126.853 130.417 128.393 130.694C129.949 130.979 131.29 131.671 132.345 132.484C134.482 134.145 135.381 136.264 135.701 137.691C136.021 139.144 135.9 139.974 135.9 139.974Z" fill="#263238"/>
<path d="M122.511 138.712C122.511 137.414 123.237 136.549 124.31 136.549C125.365 136.549 126.109 137.405 126.109 138.712C126.109 140.018 125.365 140.874 124.31 140.874C123.237 140.874 122.511 140.009 122.511 138.712ZM125.538 138.712C125.538 137.674 125.045 137.06 124.31 137.06C123.557 137.06 123.082 137.682 123.082 138.712C123.082 139.732 123.557 140.364 124.31 140.364C125.045 140.364 125.538 139.75 125.538 138.712ZM129.128 136.601H129.802L124.362 144.567H123.687L129.128 136.601ZM127.389 142.465C127.389 141.168 128.124 140.303 129.188 140.303C130.261 140.303 130.987 141.168 130.987 142.465C130.987 143.763 130.261 144.628 129.188 144.628C128.133 144.628 127.389 143.763 127.389 142.465ZM130.416 142.465C130.416 141.445 129.941 140.813 129.188 140.813C128.453 140.813 127.96 141.428 127.96 142.465C127.96 143.503 128.453 144.117 129.188 144.117C129.941 144.117 130.416 143.486 130.416 142.465Z" fill="#263238"/>
<path d="M175.333 238.44C175.333 240.153 174.079 241.649 171.311 241.649C169.97 241.649 168.561 241.277 167.626 240.611L168.509 238.899C169.244 239.452 170.247 239.772 171.259 239.772C172.375 239.772 173.067 239.305 173.067 238.518C173.067 237.757 172.574 237.264 170.818 237.264H168.344L168.837 231.823H174.736V233.614H170.706L170.55 235.447H171.337C174.2 235.447 175.333 236.728 175.333 238.44Z" fill="#263238"/>
<path d="M176.241 236.65C176.241 233.458 178.006 231.65 180.384 231.65C182.772 231.65 184.527 233.458 184.527 236.65C184.527 239.841 182.772 241.649 180.384 241.649C178.014 241.649 176.241 239.833 176.241 236.65ZM182.279 236.65C182.279 234.453 181.509 233.545 180.384 233.545C179.277 233.545 178.507 234.453 178.507 236.65C178.507 238.847 179.277 239.755 180.384 239.755C181.509 239.755 182.279 238.838 182.279 236.65Z" fill="#263238"/>
<path d="M190.314 233.934C190.314 235.292 189.501 236.053 188.308 236.053C187.892 236.053 187.494 235.958 187.218 235.785L187.555 235.119C187.771 235.266 188.022 235.318 188.29 235.318C188.939 235.318 189.371 234.928 189.397 234.167C189.164 234.401 188.826 234.522 188.42 234.522C187.659 234.522 187.062 234.038 187.062 233.294C187.062 232.489 187.719 231.979 188.55 231.979C189.648 231.979 190.314 232.662 190.314 233.934ZM189.302 233.242C189.302 232.904 189.051 232.654 188.619 232.654C188.23 232.654 187.962 232.879 187.962 233.242C187.962 233.605 188.23 233.83 188.628 233.83C189.025 233.839 189.302 233.588 189.302 233.242Z" fill="#263238"/>
<path d="M193.895 233.934C193.895 235.292 193.082 236.053 191.889 236.053C191.473 236.053 191.076 235.958 190.799 235.785L191.136 235.119C191.352 235.266 191.603 235.318 191.871 235.318C192.52 235.318 192.952 234.928 192.978 234.167C192.745 234.401 192.408 234.522 192.001 234.522C191.24 234.522 190.643 234.038 190.643 233.294C190.643 232.489 191.3 231.979 192.131 231.979C193.229 231.979 193.895 232.662 193.895 233.934ZM192.875 233.242C192.875 232.904 192.624 232.654 192.191 232.654C191.802 232.654 191.534 232.879 191.534 233.242C191.534 233.605 191.802 233.83 192.2 233.83C192.607 233.839 192.875 233.588 192.875 233.242Z" fill="#263238"/>
<path d="M193.86 237.394H186.958V238.267H193.86V237.394Z" fill="#263238"/>
<path d="M154.609 234.643H118.973V235.75H154.609V234.643Z" fill="#263238"/>
<path d="M140.605 238.181H118.973V239.288H140.605V238.181Z" fill="#263238"/>
<path d="M195.642 283.815L124.397 283.487C123.662 283.487 123.065 282.682 123.073 281.696L123.151 263.057C123.151 262.071 123.757 261.275 124.492 261.275L195.738 261.603C196.473 261.603 197.07 262.408 197.07 263.394L196.992 282.034C196.983 283.02 196.386 283.815 195.642 283.815Z" fill="#2CB357"/>
<path d="M136.713 94.8934H109.779V108.646H136.713V94.8934Z" fill="#2CB357"/>
<path d="M115.591 90.0756L109.779 94.8933H136.713L140.683 90.0756H115.591Z" fill="#2DA553"/>
<path d="M136.713 108.646L140.683 103.396V90.0756L136.713 94.8933V108.646Z" fill="#258C45"/>
<path d="M132.129 100.775V99.3564H122.948H113.767V100.775H132.129Z" fill="#258C45"/>
<path d="M128.799 101.917H117.399V103.335H128.799V101.917Z" fill="#258C45"/>
<path d="M129.673 116.05H117.399V117.927H129.673V116.05Z" fill="#263238"/>
<path d="M109.779 94.8933C109.779 94.8587 110.246 94.8327 111.085 94.8068C112.01 94.7895 113.204 94.7635 114.64 94.7289C117.641 94.6857 121.793 94.6598 126.369 94.6598C130.278 94.6771 133.868 94.6943 136.713 94.7116L136.575 94.7808C137.777 93.3796 138.772 92.2033 139.533 91.3124C140.242 90.4994 140.657 90.0496 140.683 90.0755C140.709 90.1015 140.355 90.5858 139.689 91.4421C138.962 92.359 138.002 93.5613 136.852 95.0057L136.8 95.0749H136.713C133.868 95.0922 130.278 95.1095 126.369 95.1268C121.784 95.1268 117.641 95.1009 114.64 95.0576C113.204 95.0317 112.01 95.0057 111.085 94.9798C110.246 94.9538 109.779 94.9192 109.779 94.8933Z" fill="#2CB357"/>
<path d="M136.714 108.646C136.584 108.646 136.48 105.567 136.48 101.77C136.48 97.9727 136.584 94.8934 136.714 94.8934C136.843 94.8934 136.947 97.9727 136.947 101.77C136.947 105.567 136.843 108.646 136.714 108.646Z" fill="#2CB357"/>
<path d="M168.093 116.05H155.82V117.927H168.093V116.05Z" fill="#263238"/>
<path d="M151.942 87.2638L151.762 108.559L171.076 108.722L171.257 87.4272L151.942 87.2638Z" fill="#2CB357"/>
<path d="M157.551 82.9657L151.851 87.351H171.165L175.135 82.9657H157.551Z" fill="#2DA553"/>
<path d="M171.165 108.646L175.135 103.396V82.9657L171.165 87.351V108.646Z" fill="#258C45"/>
<path d="M165.802 95.9573H156.037V97.3758H165.802V95.9573Z" fill="#258C45"/>
<path d="M164.037 98.5175H157.974V99.936H164.037V98.5175Z" fill="#258C45"/>
<path d="M151.85 87.3511C151.85 87.3165 152.205 87.2905 152.845 87.2646C153.58 87.2473 154.488 87.2213 155.552 87.1867C157.836 87.1435 160.984 87.1175 164.47 87.1175C166.917 87.1348 169.21 87.1435 171.173 87.1521L171.026 87.2127C172.237 85.9066 173.249 84.8341 173.967 84.0902C174.685 83.3463 175.109 82.9398 175.143 82.9658C175.178 82.9917 174.806 83.4588 174.14 84.2459C173.474 85.033 172.496 86.1488 171.32 87.4808L171.26 87.5413H171.173C169.21 87.55 166.917 87.5673 164.47 87.5759C160.984 87.5759 157.836 87.55 155.552 87.5067C154.488 87.4808 153.589 87.4549 152.845 87.4289C152.205 87.4116 151.85 87.377 151.85 87.3511Z" fill="#2DA553"/>
<path d="M171.164 108.646C171.034 108.646 170.931 103.88 170.931 97.9985C170.931 92.1168 171.034 87.351 171.164 87.351C171.294 87.351 171.398 92.1168 171.398 97.9985C171.398 103.871 171.294 108.646 171.164 108.646Z" fill="#258C45"/>
<path d="M202.294 116.05H190.02V117.927H202.294V116.05Z" fill="#263238"/>
<path d="M187.391 95.2393C187.391 95.1788 188.55 95.1183 190.427 95.075C192.304 95.0318 194.89 95.0058 197.744 95.0058C200.278 95.0058 202.605 95.0231 204.378 95.0577L204.248 95.1183C205.036 94.2879 205.676 93.6132 206.134 93.1548C206.592 92.6964 206.852 92.4542 206.878 92.4802C206.904 92.5061 206.688 92.7915 206.281 93.2932C205.875 93.7949 205.269 94.4955 204.517 95.3604L204.465 95.421H204.387C202.614 95.4556 200.296 95.4729 197.753 95.4729C194.898 95.4729 192.304 95.4469 190.435 95.4037C188.55 95.3604 187.391 95.2999 187.391 95.2393Z" fill="#E8505B"/>
<path d="M204.378 95.2393H187.391V108.646H204.378V95.2393Z" fill="#2CB357"/>
<path d="M190.98 92.4801L187.391 95.2393H204.378L206.869 92.4801H190.98Z" fill="#2DA553"/>
<path d="M204.378 108.646L206.869 105.342V92.4801L204.378 95.2393V108.646Z" fill="#258C45"/>
<path d="M199.976 100.36H192.2V101.398H199.976V100.36Z" fill="#258C45"/>
<path d="M198.566 102.245H193.739V103.283H198.566V102.245Z" fill="#258C45"/>
<path d="M204.378 108.646C204.248 108.646 204.145 105.645 204.145 101.943C204.145 98.2406 204.248 95.2393 204.378 95.2393C204.508 95.2393 204.612 98.2406 204.612 101.943C204.603 105.645 204.499 108.646 204.378 108.646Z" fill="#258C45"/>
<path d="M228.623 30.6537L226.858 33.8626L223.641 35.6271L226.858 37.383L228.623 40.6006L230.379 37.383L233.596 35.6271L230.379 33.8626L228.623 30.6537Z" fill="#2CB357"/>
<path d="M78.1481 113.412L76.3836 116.629L73.166 118.385L76.3836 120.15L78.1481 123.359L79.904 120.15L83.1216 118.385L79.904 116.629L78.1481 113.412Z" fill="#2CB357"/>
<path d="M241.441 44.2939L240.36 46.2747L238.388 47.3559L240.36 48.437L241.441 50.4091L242.531 48.437L244.503 47.3559L242.531 46.2747L241.441 44.2939Z" fill="#2CB357"/>
<path d="M68.4952 94.9193L67.414 96.9L65.4419 97.9812L67.414 99.0624L68.4952 101.034L69.5763 99.0624L71.5484 97.9812L69.5763 96.9L68.4952 94.9193Z" fill="#2CB357"/>
<path d="M312.843 319.936L306.477 314.928L315.775 302.948L325.159 310.17L324.632 310.949C322.253 314.4 312.28 328.317 309.893 330.004C307.229 331.898 312.843 319.936 312.843 319.936Z" fill="#2CB357"/>
<path d="M309.089 329.831C308.976 329.744 312.393 325.212 316.717 319.711C321.042 314.21 324.64 309.824 324.753 309.911C324.865 309.997 321.449 314.53 317.124 320.031C312.799 325.532 309.201 329.926 309.089 329.831Z" fill="#263238"/>
<path d="M313.976 321.164C313.95 321.311 313.543 321.363 313.05 321.354C312.557 321.345 312.151 321.285 312.125 321.146C312.107 321.008 312.514 320.835 313.05 320.835C313.586 320.844 313.993 321.025 313.976 321.164Z" fill="#263238"/>
<path d="M313.794 322.254C313.751 322.392 313.292 322.383 312.756 322.306C312.22 322.228 311.77 322.124 311.77 321.977C311.77 321.839 312.246 321.709 312.825 321.787C313.405 321.873 313.837 322.124 313.794 322.254Z" fill="#263238"/>
<path d="M321.881 313.474C321.812 313.492 321.665 313.224 321.492 312.756C321.328 312.289 321.129 311.606 321.155 310.802C321.181 309.997 321.501 309.297 321.855 308.899C322.21 308.501 322.547 308.406 322.573 308.458C322.616 308.527 322.383 308.717 322.149 309.115C321.916 309.504 321.7 310.118 321.674 310.819C321.648 311.528 321.777 312.177 321.847 312.661C321.924 313.137 321.95 313.457 321.881 313.474Z" fill="#263238"/>
<path d="M312.747 320.264C312.695 320.126 312.955 319.901 313.292 319.685C313.63 319.468 313.95 319.33 314.053 319.434C314.149 319.538 313.958 319.875 313.569 320.117C313.188 320.368 312.799 320.394 312.747 320.264Z" fill="#263238"/>
<path d="M312.281 319.59C312.177 319.494 312.341 319.105 312.653 318.725C312.964 318.344 313.301 318.102 313.422 318.18C313.543 318.258 313.379 318.647 313.05 319.045C312.73 319.451 312.384 319.693 312.281 319.59Z" fill="#263238"/>
<path d="M270.668 216.981C270.668 216.981 251.674 267.442 254.234 276.87C256.794 286.298 308.016 323.733 308.016 323.733L321.925 303.718C321.925 303.718 281.973 272.104 281.852 270.357C281.722 268.61 297.715 226.686 297.715 226.686L270.668 216.981Z" fill="#263238"/>
<path d="M307.134 308.345C307.126 308.354 307.065 308.319 306.953 308.25C306.814 308.164 306.65 308.051 306.451 307.922C305.984 307.601 305.352 307.169 304.548 306.615C302.905 305.465 300.543 303.787 297.663 301.659C291.902 297.404 284.075 291.332 275.771 284.222C273.695 282.449 271.68 280.693 269.751 278.98C268.791 278.124 267.848 277.276 266.923 276.455C266.006 275.624 265.063 274.785 264.484 273.687C263.87 272.58 263.895 271.282 264.129 270.184C264.354 269.068 264.631 268.021 264.899 267.001C265.444 264.968 265.989 263.083 266.49 261.361C267.476 257.953 268.289 255.186 268.86 253.222C269.12 252.288 269.327 251.544 269.483 250.999C269.544 250.766 269.604 250.575 269.647 250.42C269.691 250.29 269.708 250.221 269.717 250.229C269.725 250.229 269.717 250.299 269.691 250.437C269.656 250.593 269.621 250.792 269.57 251.025C269.457 251.544 269.275 252.297 269.033 253.265C268.54 255.212 267.77 258.005 266.81 261.448C266.335 263.169 265.807 265.063 265.279 267.096C265.02 268.117 264.743 269.172 264.536 270.262C264.328 271.343 264.311 272.493 264.873 273.497C265.409 274.5 266.317 275.313 267.234 276.135C268.16 276.956 269.102 277.795 270.071 278.652C272 280.356 274.015 282.111 276.091 283.876C284.386 290.977 292.171 297.084 297.879 301.408C300.725 303.528 303.034 305.257 304.669 306.486C305.448 307.065 306.062 307.524 306.52 307.861C306.71 308.008 306.866 308.129 306.996 308.224C307.091 308.293 307.143 308.337 307.134 308.345Z" fill="#455A64"/>
<path d="M302.498 314.443C302.394 314.365 305.032 310.724 308.388 306.313C311.744 301.901 314.547 298.381 314.651 298.459C314.754 298.537 312.116 302.178 308.752 306.589C305.404 311.001 302.602 314.512 302.498 314.443Z" fill="#455A64"/>
<path d="M304.211 121.015C305.906 124.405 306.797 127.346 310.162 129.094C311.675 129.881 313.526 130.33 314.443 131.775C315.438 133.349 314.971 135.624 316.225 136.999C318.05 138.997 321.795 137.38 323.845 139.136C325.679 140.71 325.091 144.083 327.063 145.467C328.178 146.245 329.692 146.072 330.955 146.565C333.031 147.37 334.017 149.766 334.285 151.971C334.501 153.736 334.406 155.596 333.628 157.204C332.858 158.813 331.335 160.128 329.562 160.309C327.21 160.56 324.537 158.934 322.634 160.335C321.959 160.837 321.562 161.616 321.043 162.273C319.858 163.778 317.912 164.652 316 164.53C314.088 164.409 312.263 163.302 311.277 161.659C309.963 159.47 310.049 156.443 308.12 154.765C307.117 153.883 305.75 153.572 304.496 153.104C303.242 152.637 301.953 151.859 301.573 150.579C301.209 149.333 300.483 148.538 299.765 147.465C298.805 146.029 297.516 147.785 296.245 147.076C294.973 146.367 295.457 144.983 295.345 143.521" fill="#263238"/>
<path d="M281.834 170.04L265.417 164.548C265.417 164.548 258.16 185.445 255.937 185.652C243.621 186.777 230.439 182.694 225.82 181.077C225.353 180.549 224.817 179.918 224.22 179.139C223.71 178.473 223.32 177.721 223.061 176.925C222.749 175.956 222.378 174.659 222.403 173.88C222.429 172.92 221.279 172.427 220.743 173.119C220.206 173.811 220.077 176.449 221.288 179.286C222.507 182.123 218.2 179.866 216.617 179.07C215.034 178.274 210.017 176.043 209.395 176.337C208.469 176.769 208.763 177.833 210.363 178.594C211.981 179.364 216.6 181.959 216.141 182.772C215.691 183.576 207.682 179.416 207.682 179.416C207.682 179.416 206.116 178.248 205.554 179.174C204.542 180.843 213.373 184.632 214.221 184.978C214.809 185.211 214.342 186.119 213.719 185.834C213.079 185.54 205.831 181.501 204.784 183.187C203.98 184.485 212.024 186.379 213.062 188.048C214.1 189.718 207.111 185.99 206.393 187.261C206.125 187.737 205.987 188.126 210.32 189.683C212.422 190.444 216.375 191.37 219.956 192.148L219.938 192.191C219.938 192.191 263.142 211.514 272.458 192.883C282.336 173.137 281.834 170.04 281.834 170.04Z" fill="#E5BAAB"/>
<path d="M298.069 152.741L305.24 152.871L310.931 169.192L306.295 187.893C304.937 193.359 311.087 204.283 310.931 210.312L270.711 216.825L269.863 189.96L269.846 189.06L255.929 182.115L260.522 170.862C267.589 154.307 279.932 153.303 279.932 153.303L298.069 152.741Z" fill="#E8505B"/>
<g opacity="0.2">
<g opacity="0.2">
<g opacity="0.2">
<g opacity="0.2">
<path opacity="0.2" d="M298.069 152.741L305.24 152.871L310.931 169.192L306.295 187.893C304.937 193.359 311.087 204.283 310.931 210.312L270.711 216.825L269.863 189.96L269.846 189.06L255.929 182.115L260.522 170.862C267.589 154.307 279.932 153.303 279.932 153.303L298.069 152.741Z" fill="white"/>
</g>
</g>
</g>
</g>
<path d="M305.534 152.914C305.534 152.923 305.456 152.957 305.301 153.009C305.145 153.061 304.911 153.13 304.591 153.2C303.969 153.364 303 153.407 301.806 153.476L301.893 153.312C302.637 154.523 303.562 156.019 304.643 157.766L304.825 158.069L304.479 158.009C303.06 157.766 301.417 157.663 299.661 157.853L299.825 157.645C300.016 159.341 299.99 161.218 300.595 163.06L300.716 163.423L300.344 163.328C298.64 162.896 296.815 162.42 295.103 161.408L295.44 161.261C295.12 162.87 294.774 164.556 294.428 166.278L294.35 166.649L294.056 166.416C293.364 165.862 292.655 165.24 291.989 164.556C291.34 163.908 290.744 163.224 290.181 162.515L290.51 162.55C288.927 163.795 287.388 165.006 285.908 166.182L285.623 166.407L285.554 166.053C285.225 164.444 284.914 162.896 284.602 161.408L284.879 161.564C283.141 162.169 281.497 162.749 279.966 163.285L279.62 163.406L279.715 163.06C280.243 161.105 280.719 159.323 281.143 157.732L281.272 157.931C279.62 157.645 278.202 157.403 277 157.196L276.818 157.161L276.922 157.014C277.717 155.855 278.34 154.947 278.79 154.281C278.989 153.995 279.153 153.77 279.292 153.58C279.404 153.424 279.473 153.347 279.482 153.355C279.491 153.364 279.447 153.45 279.344 153.615C279.222 153.814 279.075 154.047 278.894 154.35C278.461 155.025 277.864 155.959 277.112 157.144L277.034 156.971C278.236 157.152 279.664 157.369 281.324 157.619L281.497 157.645L281.454 157.818C281.047 159.41 280.589 161.2 280.096 163.164L279.845 162.939C281.376 162.385 283.011 161.797 284.749 161.174L284.974 161.097L285.026 161.339C285.338 162.826 285.658 164.375 285.995 165.983L285.64 165.854C287.119 164.677 288.659 163.466 290.233 162.212L290.415 162.065L290.562 162.247C291.107 162.939 291.695 163.605 292.335 164.245C292.992 164.911 293.684 165.525 294.368 166.07L293.996 166.208C294.35 164.487 294.688 162.8 295.016 161.192L295.077 160.88L295.354 161.045C296.962 162.005 298.779 162.498 300.457 162.93L300.206 163.198C299.583 161.269 299.627 159.349 299.462 157.689L299.445 157.498L299.635 157.481C301.426 157.308 303.104 157.429 304.548 157.697L304.384 157.939C303.346 156.175 302.446 154.661 301.72 153.433L301.625 153.277L301.798 153.269C303.017 153.234 303.943 153.225 304.574 153.096C305.205 152.983 305.534 152.888 305.534 152.914Z" fill="#455A64"/>
<path d="M313.474 159.773C313.466 159.79 313.197 159.643 312.635 159.479C312.082 159.323 311.191 159.168 310.092 159.436L310.153 159.341C310.326 160.292 310.577 161.434 310.931 162.74C311.277 164.046 311.718 165.525 312.108 167.186L312.168 167.437L311.926 167.367C309.876 166.771 307.463 166.321 304.92 165.464L305.162 165.274C305.422 167.739 305.413 170.507 305.56 173.405L305.569 173.656L305.318 173.621C303.095 173.292 300.837 172.583 298.528 171.831C298.26 171.753 297.931 171.64 297.853 171.761C297.698 171.882 297.594 172.176 297.473 172.471C297.239 173.041 296.997 173.621 296.755 174.2C296.27 175.368 295.786 176.553 295.293 177.747L295.146 178.101L294.904 177.799C293.425 175.965 291.876 174.045 290.302 172.09L289.956 171.666L290.268 171.709C287.733 173.448 285.26 175.152 282.872 176.795L282.63 176.968L282.535 176.683C281.705 174.287 280.892 171.96 280.113 169.72L280.433 169.832C277.691 171.614 274.898 172.972 272.208 173.976L271.896 174.088L271.939 173.759C272.467 170.014 272.943 166.649 273.349 163.743L273.557 163.908C271.066 164.894 268.765 165.084 266.94 164.98L266.793 164.971L266.845 164.833C267.52 163.034 268.038 161.641 268.402 160.664C268.575 160.214 268.713 159.86 268.817 159.6C268.912 159.358 268.964 159.246 268.973 159.246C268.981 159.246 268.947 159.375 268.869 159.617C268.782 159.886 268.661 160.249 268.506 160.707C268.16 161.693 267.675 163.103 267.044 164.911L266.949 164.764C268.748 164.833 271.014 164.617 273.436 163.631L273.687 163.527L273.652 163.795C273.263 166.71 272.822 170.075 272.32 173.829L272.06 173.621C274.725 172.609 277.484 171.251 280.191 169.478L280.425 169.322L280.52 169.582C281.307 171.822 282.12 174.149 282.959 176.544L282.613 176.432C285 174.789 287.474 173.085 290.008 171.337L290.181 171.216L290.32 171.381L290.666 171.805C292.24 173.759 293.788 175.688 295.258 177.522L294.869 177.574C295.362 176.371 295.855 175.195 296.34 174.027C296.582 173.448 296.824 172.868 297.057 172.298C297.187 172.029 297.248 171.692 297.585 171.415C297.68 171.355 297.749 171.303 297.896 171.277C298.018 171.268 298.104 171.277 298.191 171.294C298.364 171.329 298.511 171.372 298.666 171.415C300.976 172.176 303.199 172.886 305.396 173.214L305.153 173.431C305.015 170.507 305.05 167.765 304.807 165.317L304.781 165.032L305.05 165.127C307.558 166.001 309.954 166.468 312.021 167.091L311.831 167.264C311.468 165.612 311.044 164.132 310.715 162.809C310.378 161.494 310.144 160.335 309.997 159.375L309.988 159.297L310.066 159.28C311.208 159.029 312.108 159.22 312.67 159.401C313.223 159.583 313.474 159.773 313.474 159.773Z" fill="#455A64"/>
<path d="M270.089 188.861C270.071 188.887 269.751 188.758 269.224 188.403C268.713 188.04 267.987 187.451 267.364 186.483C266.733 185.54 266.292 184.156 266.413 182.642C266.473 181.146 266.949 179.477 267.978 178.058C268.757 176.951 269.76 176.086 270.833 175.507L270.711 175.671C271.04 173.206 271.343 171.087 271.576 169.582C271.81 168.077 271.966 167.203 272.017 167.203C272.069 167.212 272 168.103 271.845 169.616C271.689 171.13 271.447 173.258 271.144 175.723L271.135 175.827L271.023 175.887C270.063 176.423 269.085 177.262 268.359 178.309C267.39 179.658 266.923 181.224 266.845 182.651C266.707 184.087 267.079 185.367 267.641 186.292C268.194 187.235 268.869 187.841 269.328 188.239C269.812 188.654 270.106 188.835 270.089 188.861Z" fill="#455A64"/>
<path d="M271.602 170.749C271.49 170.801 271.092 170.23 270.72 169.469C270.348 168.708 270.132 168.042 270.253 167.981C270.365 167.93 270.763 168.5 271.135 169.262C271.507 170.023 271.723 170.689 271.602 170.749Z" fill="#455A64"/>
<path d="M297.585 152.975L298.822 124.708L287.595 116.206L277.389 121.196C277.389 121.196 277.051 134.006 277.389 139.559C277.726 145.112 283.331 145.709 283.331 145.709C283.331 145.709 283.201 148.961 283.071 152.386C282.916 156.53 286.254 159.955 290.397 159.92C294.264 159.877 297.421 156.832 297.585 152.975Z" fill="#E5BAAB"/>
<path d="M278.504 130.529C278.504 130.918 278.824 131.238 279.214 131.238C279.603 131.238 279.923 130.918 279.923 130.529C279.923 130.14 279.603 129.82 279.214 129.82C278.824 129.82 278.504 130.14 278.504 130.529Z" fill="#263238"/>
<path d="M277.821 129.76C277.916 129.855 278.435 129.405 279.205 129.362C279.966 129.31 280.546 129.69 280.624 129.587C280.667 129.543 280.572 129.37 280.312 129.197C280.061 129.024 279.646 128.869 279.17 128.895C278.695 128.921 278.297 129.128 278.072 129.327C277.847 129.535 277.769 129.716 277.821 129.76Z" fill="#263238"/>
<path d="M286.747 130.529C286.747 130.918 287.067 131.238 287.456 131.238C287.846 131.238 288.166 130.918 288.166 130.529C288.166 130.14 287.846 129.82 287.456 129.82C287.067 129.82 286.747 130.14 286.747 130.529Z" fill="#263238"/>
<path d="M286.306 129.76C286.401 129.855 286.92 129.405 287.69 129.362C288.451 129.31 289.031 129.69 289.109 129.587C289.152 129.543 289.057 129.37 288.797 129.197C288.546 129.024 288.131 128.869 287.655 128.895C287.18 128.921 286.782 129.128 286.557 129.327C286.332 129.535 286.263 129.716 286.306 129.76Z" fill="#263238"/>
<path d="M286.073 136.947C285.121 137.423 283.434 138.098 282.371 138.219C282.371 138.219 283.313 139.568 284.905 138.937C286.557 138.288 286.073 136.947 286.073 136.947Z" fill="white"/>
<path d="M283.331 145.709C283.331 145.709 287.076 145.752 290.691 143.227C290.691 143.227 289.022 147.309 283.452 147.076L283.331 145.709Z" fill="#D78776"/>
<path d="M314.988 140.675C314.494 140.701 313.759 140.623 312.972 140.217C312.176 139.827 311.398 139.092 310.775 138.089C310.144 137.094 309.659 135.857 309.132 134.569C308.094 131.982 307.315 129.586 306.779 127.839C306.693 127.562 306.623 127.312 306.546 127.069C306.502 126.775 306.45 126.507 306.399 126.308C303.371 114.727 293.182 112.564 291.167 112.564C289.004 112.564 285.225 111.379 279.715 117.097C278.789 118.057 278.123 119.025 277.622 119.977C276.203 121.759 275.451 123.731 275.165 125.21C274.828 126.905 274.975 127.969 275.036 127.969C275.139 127.969 275.157 126.922 275.589 125.314C275.805 124.509 276.143 123.558 276.653 122.58C275.849 126.17 277.215 128.981 277.215 128.981L279.187 128.436L286.263 126.032C285.623 123.843 286.565 121.119 287.102 119.847L287.153 119.795C288.771 128.107 296.504 128.877 296.504 128.877L297.81 147.067C307.212 145.06 307.004 132.475 306.943 129.915C307.367 131.36 307.921 133.012 308.621 134.742C309.149 136.03 309.651 137.284 310.343 138.322C311.017 139.369 311.908 140.147 312.782 140.519C313.655 140.909 314.46 140.935 314.979 140.848C315.498 140.744 315.749 140.58 315.74 140.554C315.749 140.545 315.481 140.64 314.988 140.675Z" fill="#263238"/>
<path d="M283.538 136.221C283.538 136.177 283.062 136.125 282.284 136.065C282.085 136.056 281.895 136.03 281.86 135.883C281.808 135.736 281.886 135.511 281.973 135.269C282.137 134.768 282.31 134.24 282.5 133.686C282.863 132.553 283.175 131.533 283.391 130.78C283.607 130.028 283.711 129.561 283.676 129.552C283.633 129.543 283.452 129.984 283.183 130.72C282.915 131.446 282.569 132.467 282.206 133.591C282.033 134.145 281.86 134.681 281.704 135.183C281.635 135.416 281.523 135.684 281.627 135.978C281.687 136.125 281.825 136.229 281.955 136.255C282.076 136.29 282.189 136.281 282.284 136.281C283.062 136.281 283.538 136.264 283.538 136.221Z" fill="#263238"/>
<path d="M299.41 135.987C299.375 135.062 299.375 134.11 299.704 133.245C300.041 132.38 300.777 131.619 301.702 131.524C302.766 131.412 303.787 132.294 303.96 133.349C304.124 134.404 303.518 135.494 302.584 136.022C301.659 136.541 300.474 136.532 299.496 136.108" fill="#E5BAAB"/>
<path d="M301.027 135.183C301.062 135.122 301.33 135.261 301.719 135.14C302.117 135.044 302.515 134.595 302.549 133.955C302.575 133.643 302.506 133.358 302.35 133.211C302.195 133.064 301.944 133.02 301.745 133.029C301.33 133.064 301.036 133.176 301.01 133.107C300.992 133.064 301.2 132.847 301.693 132.709C301.944 132.657 302.299 132.64 302.627 132.891C302.956 133.159 303.034 133.6 303.008 133.989C302.982 134.387 302.835 134.759 302.593 135.027C302.359 135.295 302.039 135.434 301.771 135.46C301.235 135.511 300.984 135.217 301.027 135.183Z" fill="#D78776"/>
<path d="M292.516 356.073V347.977L307.679 347.882L307.8 359.723L306.857 359.792C302.671 360.052 285.571 360.813 282.768 359.983C279.655 359.057 292.516 356.073 292.516 356.073Z" fill="#2CB357"/>
<path d="M282.422 359.247C282.422 359.1 288.096 358.988 295.094 358.988C302.091 358.988 307.765 359.1 307.765 359.247C307.765 359.386 302.091 359.507 295.094 359.507C288.096 359.507 282.422 359.386 282.422 359.247Z" fill="#263238"/>
<path d="M292.257 357.725C292.127 357.794 291.833 357.5 291.531 357.111C291.228 356.722 291.029 356.359 291.124 356.255C291.219 356.151 291.617 356.367 291.937 356.791C292.266 357.223 292.378 357.656 292.257 357.725Z" fill="#263238"/>
<path d="M291.288 358.261C291.15 358.313 290.882 357.95 290.605 357.483C290.328 357.016 290.138 356.601 290.25 356.505C290.363 356.419 290.752 356.713 291.046 357.215C291.349 357.725 291.418 358.209 291.288 358.261Z" fill="#263238"/>
<path d="M303.19 359.187C303.129 359.144 303.25 358.858 303.518 358.434C303.786 358.011 304.202 357.44 304.85 356.964C305.499 356.488 306.252 356.298 306.779 356.341C307.315 356.376 307.592 356.583 307.566 356.635C307.54 356.713 307.246 356.644 306.788 356.704C306.338 356.756 305.724 356.964 305.153 357.379C304.582 357.794 304.141 358.296 303.812 358.651C303.475 359.022 303.25 359.23 303.19 359.187Z" fill="#263238"/>
<path d="M292.205 356.203C292.274 356.082 292.62 356.142 293.001 356.272C293.381 356.41 293.684 356.575 293.667 356.713C293.649 356.851 293.26 356.912 292.828 356.756C292.395 356.618 292.136 356.324 292.205 356.203Z" fill="#263238"/>
<path d="M292.447 355.424C292.465 355.286 292.871 355.173 293.356 355.173C293.849 355.182 294.246 355.303 294.255 355.442C294.264 355.58 293.857 355.692 293.347 355.692C292.837 355.684 292.43 355.563 292.447 355.424Z" fill="#263238"/>
<path d="M278.971 215.597L270.659 216.981L275.442 222.862C276.818 250.567 276.48 277.397 277.752 290.778C277.942 292.811 286.522 356.549 285.675 355.052L310.931 356.108L303.389 292.101L306.961 235.248C310.836 228.536 311.969 220.579 310.127 213.045L309.504 210.485" fill="#455A64"/>
<path d="M316.614 268.635L203.6 235.698C200.045 234.66 197.995 230.932 199.033 227.377L219.134 158.398C220.172 154.843 223.9 152.793 227.455 153.831L340.469 186.768C344.024 187.806 346.074 191.534 345.036 195.089L324.935 264.069C323.897 267.624 320.169 269.665 316.614 268.635Z" fill="url(#paint1_linear)"/>
<path d="M322.816 202.285C321.415 207.086 316.389 209.845 311.597 208.444C306.797 207.043 304.038 202.017 305.439 197.225C306.84 192.425 311.866 189.666 316.657 191.067C321.458 192.459 324.217 197.485 322.816 202.285Z" fill="white"/>
<path d="M324.615 212.301C323.724 212.301 322.824 212.172 321.942 211.921C319.503 211.212 317.496 209.594 316.277 207.371C315.057 205.148 314.772 202.579 315.49 200.149C316.199 197.71 317.816 195.703 320.039 194.483C322.262 193.264 324.831 192.987 327.261 193.688C332.287 195.149 335.184 200.434 333.723 205.46C333.013 207.899 331.396 209.905 329.173 211.125C327.746 211.904 326.189 212.301 324.615 212.301ZM324.589 194.189C323.162 194.189 321.752 194.544 320.463 195.253C318.448 196.36 316.986 198.185 316.337 200.391C315.697 202.597 315.948 204.923 317.055 206.939C318.162 208.954 319.987 210.416 322.193 211.065C324.399 211.705 326.725 211.454 328.741 210.347C330.756 209.239 332.218 207.414 332.866 205.209C334.19 200.651 331.569 195.867 327.011 194.535C326.206 194.302 325.393 194.189 324.589 194.189Z" fill="white"/>
<path d="M216.92 207.544L214.887 214.533L214.169 214.325L216.02 207.977L214.377 207.501L214.559 206.861L216.92 207.544Z" fill="white"/>
<path d="M222.257 215.995L222.075 216.635L217.171 215.208L217.318 214.697L221.055 212.699C222.067 212.146 222.361 211.722 222.499 211.246C222.733 210.433 222.309 209.776 221.245 209.464C220.423 209.222 219.722 209.291 219.108 209.689L218.728 209.101C219.454 208.617 220.423 208.513 221.496 208.824C222.914 209.24 223.606 210.217 223.26 211.385C223.061 212.051 222.681 212.596 221.478 213.236L218.416 214.879L222.257 215.995Z" fill="white"/>
<path d="M229.963 216.938L228.562 216.531L228.026 218.365L227.308 218.157L227.844 216.324L223.9 215.173L224.047 214.654L229.098 211.099L229.894 211.333L225.007 214.801L228.043 215.683L228.519 214.066L229.219 214.274L228.752 215.891L230.153 216.298L229.963 216.938Z" fill="white"/>
<path d="M240.671 220.06L239.27 219.654L238.734 221.487L238.016 221.28L238.552 219.446L234.608 218.296L234.755 217.777L239.806 214.222L240.602 214.455L235.715 217.924L238.751 218.806L239.227 217.188L239.927 217.396L239.46 219.013L240.861 219.42L240.671 220.06Z" fill="white"/>
<path d="M246.847 221.617C246.501 222.802 245.403 223.494 243.69 222.992C242.687 222.698 241.83 222.067 241.45 221.366L241.969 220.899C242.28 221.496 242.981 222.075 243.88 222.335C245.065 222.681 245.87 222.283 246.112 221.435C246.371 220.536 245.982 219.818 244.2 219.299L242.713 218.866L244.096 215.467L247.92 216.583L247.738 217.223L244.546 216.289L243.655 218.443L244.555 218.702C246.648 219.316 247.202 220.38 246.847 221.617Z" fill="white"/>
<path d="M253.758 223.606C253.378 224.912 252.106 225.457 250.748 225.059C248.888 224.515 248.257 222.932 248.897 220.726C249.589 218.347 251.25 217.491 253.144 218.045C253.775 218.226 254.329 218.512 254.692 218.91L254.234 219.403C253.94 219.057 253.49 218.832 252.971 218.676C251.466 218.235 250.212 218.927 249.658 220.821C249.615 220.977 249.563 221.185 249.52 221.401C250.091 220.735 251.034 220.544 252.002 220.83C253.404 221.228 254.13 222.326 253.758 223.606ZM253.04 223.416C253.308 222.499 252.798 221.712 251.726 221.401C250.653 221.089 249.736 221.539 249.485 222.404C249.26 223.174 249.684 224.091 250.895 224.445C251.899 224.731 252.772 224.342 253.04 223.416Z" fill="white"/>
<path d="M263.299 226.469C262.961 227.637 261.846 228.286 260.159 227.801C259.147 227.507 258.282 226.876 257.901 226.167L258.42 225.699C258.732 226.296 259.441 226.876 260.349 227.135C261.508 227.473 262.304 227.118 262.555 226.253C262.797 225.414 262.373 224.696 261.076 224.316L260.574 224.169L260.73 223.641L263.376 221.781L259.804 220.743L259.995 220.103L264.492 221.409L264.345 221.92L261.647 223.831C263.108 224.342 263.627 225.353 263.299 226.469Z" fill="white"/>
<path d="M270.33 228.433C269.95 229.739 268.678 230.284 267.32 229.886C265.461 229.341 264.829 227.758 265.469 225.552C266.161 223.174 267.822 222.318 269.716 222.871C270.348 223.053 270.901 223.338 271.265 223.736L270.806 224.229C270.512 223.883 270.062 223.658 269.543 223.503C268.038 223.061 266.784 223.753 266.231 225.648C266.187 225.803 266.135 226.011 266.092 226.227C266.663 225.561 267.606 225.371 268.575 225.656C269.967 226.054 270.702 227.153 270.33 228.433ZM269.612 228.242C269.881 227.326 269.37 226.539 268.298 226.227C267.225 225.916 266.308 226.366 266.058 227.23C265.833 228 266.257 228.917 267.467 229.263C268.471 229.557 269.344 229.177 269.612 228.242Z" fill="white"/>
<path d="M278.184 225.405L278.037 225.916L273.219 231.547L272.441 231.322L277.164 225.812L273.565 224.765L273.185 226.071L272.475 225.864L273.046 223.918L278.184 225.405Z" fill="white"/>
<path d="M288.174 228.312L288.027 228.822L283.21 234.453L282.431 234.228L287.154 228.718L283.556 227.672L283.175 228.978L282.466 228.77L283.037 226.824L288.174 228.312Z" fill="white"/>
<path d="M293.589 235.361C293.226 236.598 291.954 237.065 290.285 236.581C288.607 236.088 287.811 235.024 288.174 233.787C288.417 232.948 289.065 232.498 290.025 232.463C289.394 231.979 289.16 231.339 289.377 230.604C289.705 229.462 290.882 229.038 292.361 229.471C293.84 229.903 294.618 230.898 294.29 232.04C294.073 232.766 293.52 233.181 292.724 233.251C293.511 233.787 293.831 234.531 293.589 235.361ZM292.854 235.136C293.105 234.28 292.525 233.527 291.28 233.164C290.043 232.801 289.152 233.129 288.901 233.986C288.65 234.851 289.221 235.603 290.458 235.966C291.703 236.33 292.594 236.001 292.854 235.136ZM291.444 232.593C292.534 232.913 293.321 232.61 293.546 231.849C293.779 231.062 293.226 230.379 292.179 230.076C291.124 229.765 290.311 230.05 290.086 230.829C289.861 231.598 290.354 232.273 291.444 232.593Z" fill="white"/>
<path d="M300.846 235.733C300.154 238.112 298.493 238.968 296.599 238.414C295.968 238.233 295.414 237.947 295.051 237.549L295.509 237.056C295.795 237.402 296.253 237.627 296.772 237.783C298.277 238.224 299.531 237.532 300.085 235.638C300.128 235.482 300.18 235.275 300.223 235.058C299.652 235.724 298.71 235.915 297.741 235.638C296.357 235.231 295.622 234.133 295.994 232.853C296.374 231.547 297.646 231.01 299.004 231.4C300.855 231.944 301.486 233.527 300.846 235.733ZM300.258 234.055C300.483 233.285 300.059 232.368 298.848 232.022C297.845 231.728 296.971 232.117 296.703 233.043C296.435 233.96 296.945 234.747 298.018 235.067C299.081 235.37 300.007 234.929 300.258 234.055Z" fill="white"/>
<path d="M308.933 234.358L306.892 241.346L306.174 241.139L308.025 234.79L306.381 234.306L306.563 233.666L308.933 234.358Z" fill="white"/>
<path d="M314.27 242.808L314.088 243.448L309.184 242.021L309.331 241.511L313.068 239.513C314.08 238.959 314.374 238.535 314.512 238.06C314.746 237.247 314.322 236.589 313.258 236.278C312.436 236.036 311.736 236.105 311.122 236.503L310.741 235.915C311.468 235.43 312.436 235.326 313.509 235.638C314.927 236.053 315.619 237.03 315.273 238.198C315.074 238.864 314.694 239.409 313.492 240.049L310.43 241.692L314.27 242.808Z" fill="white"/>
<path d="M320.938 243.267C320.601 244.434 319.485 245.083 317.799 244.599C316.787 244.304 315.922 243.673 315.541 242.964L316.06 242.497C316.371 243.094 317.081 243.673 317.989 243.941C319.148 244.279 319.944 243.924 320.194 243.059C320.437 242.22 320.013 241.502 318.707 241.121L318.205 240.974L318.361 240.447L321.007 238.587L317.435 237.549L317.626 236.909L322.115 238.215L321.968 238.726L319.269 240.637C320.739 241.139 321.258 242.151 320.938 243.267Z" fill="white"/>
<path d="M265.155 234.838L264.271 237.869L320.251 254.177L321.134 251.146L265.155 234.838Z" fill="white"/>
<path d="M290.655 248.828L289.77 251.868L318.486 260.233L319.372 257.194L290.655 248.828Z" fill="white"/>
<path d="M233.761 205.961L218.512 201.515C216.237 200.849 214.931 198.471 215.588 196.196L218.304 186.889C218.97 184.614 221.349 183.308 223.623 183.966L238.864 188.412C241.139 189.078 242.445 191.456 241.787 193.731L239.08 203.038C238.423 205.313 236.044 206.619 233.761 205.961Z" fill="#263238"/>
<path d="M215.813 195.452L216.142 194.328L228.234 197.857C229.626 198.263 231.097 197.459 231.503 196.066C231.91 194.674 231.097 193.186 229.713 192.797L217.621 189.268L217.949 188.143L230.041 191.672C232.057 192.261 233.216 194.38 232.636 196.395C232.048 198.41 229.929 199.578 227.914 198.99L215.813 195.452Z" fill="white"/>
<path d="M232.228 195.652L231.897 196.781L240.199 199.209L240.529 198.08L232.228 195.652Z" fill="white"/>
<path d="M286.895 186.727L226.487 169.121L224.977 174.302L285.385 191.909L286.895 186.727Z" fill="white"/>
<path d="M296.383 115.548C295.128 115.064 294.108 113.965 293.788 112.659C293.468 111.353 293.909 109.874 294.929 109.001C295.959 108.127 297.542 107.954 298.692 108.646C299.635 109.208 300.206 110.238 300.56 111.276C300.802 111.967 300.967 112.72 300.785 113.429C300.517 114.493 299.514 115.246 298.458 115.531C297.403 115.816 296.279 115.721 295.189 115.618" fill="#263238"/>
<path d="M318.672 130.962C318.62 130.953 318.871 130.555 318.724 129.829C318.646 129.474 318.465 129.05 318.119 128.67C317.781 128.289 317.262 127.986 316.631 127.813C316 127.64 315.273 127.606 314.495 127.658C313.716 127.71 312.868 127.848 311.952 127.865C311.043 127.883 310.023 127.761 309.14 127.199C308.215 126.637 307.765 125.564 307.462 124.596C306.866 122.641 305.845 120.963 304.695 119.631C303.536 118.299 302.264 117.321 301.114 116.638C298.796 115.28 297.083 115.064 297.118 114.96C297.118 114.943 297.221 114.952 297.42 114.986C297.619 115.021 297.913 115.055 298.277 115.159C299.021 115.332 300.067 115.695 301.269 116.353C302.463 117.01 303.804 117.987 305.006 119.345C306.208 120.695 307.281 122.451 307.895 124.449C308.206 125.417 308.604 126.334 309.383 126.819C310.144 127.312 311.087 127.45 311.943 127.441C312.816 127.433 313.664 127.312 314.469 127.277C315.273 127.234 316.043 127.286 316.717 127.502C317.392 127.701 317.954 128.064 318.309 128.505C318.672 128.938 318.837 129.413 318.897 129.803C318.949 130.192 318.888 130.503 318.819 130.694C318.759 130.884 318.681 130.97 318.672 130.962Z" fill="#263238"/>
<path d="M302.697 135.935C302.723 135.892 303.112 136.221 303.112 136.973C303.103 137.328 302.956 137.795 302.584 138.132C302.23 138.469 301.668 138.686 301.088 138.599C300.509 138.504 300.05 138.115 299.817 137.682C299.574 137.241 299.583 136.757 299.695 136.42C299.929 135.71 300.405 135.52 300.413 135.572C300.465 135.624 300.119 135.901 300.016 136.497C299.964 136.791 299.99 137.155 300.197 137.475C300.387 137.795 300.751 138.08 301.175 138.149C301.598 138.219 302.022 138.063 302.316 137.821C302.61 137.579 302.749 137.241 302.801 136.947C302.87 136.342 302.628 135.97 302.697 135.935Z" fill="#E0E0E0"/>
<path d="M300.457 116.638C300.344 116.733 299.237 115.332 297.334 114.337C295.44 113.317 293.658 113.187 293.675 113.049C293.658 112.936 295.552 112.858 297.55 113.931C299.557 114.978 300.56 116.595 300.457 116.638Z" fill="#E8505B"/>
<path d="M303.683 134.88C303.683 134.819 303.925 134.802 304.081 135.088C304.15 135.217 304.184 135.425 304.089 135.632C303.985 135.849 303.743 135.987 303.501 135.996C303.259 136.004 303.017 135.892 302.896 135.71C302.766 135.537 302.749 135.347 302.766 135.209C302.809 134.915 302.973 134.811 303.017 134.854C303.077 134.889 303.043 135.027 303.095 135.2C303.146 135.382 303.268 135.546 303.492 135.529C303.709 135.52 303.795 135.373 303.778 135.191C303.769 135.027 303.665 134.941 303.683 134.88Z" fill="#E0E0E0"/>
<path d="M297.767 152.101C297.793 152.101 297.871 152.43 297.862 153.035C297.862 153.641 297.75 154.532 297.36 155.552C296.962 156.564 296.262 157.715 295.129 158.649C294.013 159.592 292.456 160.223 290.778 160.335C289.1 160.431 287.474 159.989 286.254 159.185C285.026 158.389 284.187 157.334 283.668 156.383C283.158 155.414 282.942 154.549 282.864 153.943C282.786 153.338 282.829 153.001 282.847 153.001C282.95 152.975 282.89 154.376 283.954 156.218C284.49 157.118 285.312 158.095 286.479 158.822C287.638 159.557 289.161 159.955 290.743 159.868C292.326 159.765 293.788 159.185 294.852 158.32C295.925 157.455 296.625 156.383 297.049 155.431C297.888 153.476 297.663 152.092 297.767 152.101Z" fill="#455A64"/>
<path d="M295.95 350.321C295.942 350.321 295.924 350.243 295.898 350.088C295.872 349.906 295.838 349.681 295.795 349.396C295.708 348.756 295.596 347.865 295.449 346.74C295.155 344.431 294.757 341.092 294.298 336.949C293.381 328.68 292.248 317.237 291.228 304.583C290.216 291.92 289.506 280.451 289.091 272.139C288.884 267.987 288.737 264.622 288.659 262.295C288.624 261.162 288.598 260.263 288.581 259.614C288.581 259.329 288.572 259.104 288.572 258.913C288.572 258.758 288.581 258.68 288.581 258.671C288.59 258.671 288.598 258.749 288.616 258.905C288.633 259.086 288.65 259.32 288.667 259.597C288.711 260.245 288.763 261.136 288.832 262.269C288.97 264.631 289.169 267.978 289.411 272.104C289.904 280.407 290.665 291.877 291.686 304.531C292.707 317.185 293.788 328.62 294.618 336.897C295.042 341.006 295.379 344.344 295.622 346.697C295.734 347.83 295.821 348.721 295.881 349.361C295.907 349.646 295.924 349.871 295.942 350.053C295.959 350.243 295.959 350.321 295.95 350.321Z" fill="#263238"/>
<path d="M310.066 350.382C310.066 350.416 309.72 350.459 309.097 350.52C308.475 350.581 307.567 350.641 306.451 350.693C304.211 350.805 301.114 350.857 297.697 350.797C294.281 350.745 291.184 350.641 288.953 350.555C287.915 350.503 287.033 350.468 286.306 350.434C285.683 350.399 285.337 350.356 285.337 350.33C285.337 350.295 285.683 350.269 286.315 350.261C286.938 350.243 287.846 350.235 288.97 350.235C291.21 350.235 294.298 350.295 297.715 350.338C301.131 350.39 304.219 350.39 306.451 350.364C307.489 350.356 308.371 350.347 309.097 350.338C309.72 350.338 310.066 350.356 310.066 350.382Z" fill="#263238"/>
<path d="M314.988 181.431L300.154 171.675C300.154 171.675 292.897 192.572 290.674 192.78C278.357 193.904 265.176 189.821 260.557 188.204C260.09 187.676 259.553 187.045 258.957 186.266C258.446 185.6 258.057 184.848 257.798 184.052C257.486 183.083 257.114 181.786 257.14 181.008C257.166 180.048 256.016 179.554 255.48 180.246C254.943 180.938 254.814 183.576 256.024 186.414C257.244 189.251 252.937 186.993 251.354 186.197C249.771 185.402 244.754 183.17 244.131 183.464C243.206 183.897 243.5 184.96 245.1 185.722C246.718 186.491 251.336 189.086 250.878 189.899C250.428 190.704 242.419 186.543 242.419 186.543C242.419 186.543 240.853 185.376 240.291 186.301C239.279 187.97 248.11 191.759 248.958 192.105C249.546 192.338 249.079 193.247 248.456 192.961C247.816 192.667 240.568 188.628 239.521 190.314C238.717 191.612 246.761 193.506 247.799 195.175C248.837 196.845 241.848 193.117 241.13 194.388C240.862 194.864 240.724 195.253 245.057 196.81C247.159 197.571 251.112 198.497 254.692 199.275L254.675 199.319C254.675 199.319 298.839 219.091 307.195 200.011C316.078 179.719 314.988 181.431 314.988 181.431Z" fill="#E5BAAB"/>
<path d="M305.24 152.862C305.24 152.862 318.742 154.454 317.306 170.507C315.853 186.881 309.08 198.973 309.08 198.973L291.383 189.683C295.353 181.639 298.398 173.318 300.31 164.651L305.24 152.862Z" fill="#E8505B"/>
<g opacity="0.2">
<g opacity="0.2">
<g opacity="0.2">
<g opacity="0.2">
<g opacity="0.2">
<path opacity="0.2" d="M305.24 152.862C305.24 152.862 318.742 154.454 317.306 170.507C315.853 186.881 309.08 198.973 309.08 198.973L291.383 189.683C295.353 181.639 298.398 173.318 300.31 164.651L305.24 152.862Z" fill="white"/>
</g>
</g>
</g>
</g>
</g>
<path d="M305.534 152.914C305.568 153.018 304.063 153.424 301.815 153.58L301.979 153.269C302.489 154.099 303.051 155.007 303.64 155.976C304.003 156.59 304.357 157.187 304.695 157.74L304.946 158.164L304.461 158.069C301.702 157.542 299.644 157.792 299.635 157.663C299.626 157.619 300.137 157.498 301.01 157.438C301.884 157.377 303.121 157.386 304.539 157.628L304.314 157.957C303.977 157.403 303.614 156.815 303.242 156.201C302.662 155.232 302.117 154.315 301.624 153.468L301.443 153.165L301.789 153.148C302.904 153.104 303.839 153.027 304.487 152.966C305.153 152.931 305.525 152.871 305.534 152.914Z" fill="#455A64"/>
<path d="M313.474 159.773C313.466 159.851 312.22 159.54 310.066 159.488L310.205 159.323C310.715 161.356 311.399 164.055 312.177 167.168L312.272 167.532L311.917 167.437C310.214 166.969 308.354 166.459 306.416 165.923C305.906 165.784 305.413 165.646 304.92 165.508L305.214 165.274C305.335 168.258 305.448 171.026 305.543 173.396L305.551 173.656L305.309 173.586C303.173 172.99 301.382 172.488 300.033 172.107C299.454 171.934 298.969 171.787 298.571 171.666C298.234 171.562 298.061 171.493 298.07 171.476C298.078 171.459 298.26 171.484 298.606 171.554C299.012 171.649 299.505 171.761 300.094 171.891C301.452 172.228 303.259 172.678 305.396 173.206L305.162 173.396C305.041 171.017 304.903 168.258 304.756 165.274L304.738 164.954L305.05 165.041C305.543 165.179 306.044 165.317 306.546 165.456C308.475 165.992 310.326 166.511 312.021 166.987L311.753 167.255C311.027 164.124 310.404 161.408 309.928 159.358L309.885 159.185L310.066 159.194C311.148 159.254 312.013 159.393 312.583 159.514C313.172 159.661 313.483 159.747 313.474 159.773Z" fill="#455A64"/>
<path d="M314.564 181.7C314.546 181.717 314.296 181.527 313.932 181.06C313.569 180.601 313.18 179.84 312.6 178.958L312.843 178.949C311.831 180.93 310.213 183.75 307.947 186.725L307.765 186.958L307.584 186.725C306.753 185.644 305.862 184.485 304.954 183.3C304.271 182.409 303.614 181.535 302.965 180.696L303.294 180.731C302.169 181.708 301.105 182.642 300.111 183.516C299.617 183.948 299.133 184.364 298.675 184.753C298.45 184.952 298.225 185.142 298.009 185.332L297.689 185.609L297.611 185.678L297.568 185.713L297.524 185.748C297.507 185.756 297.507 185.765 297.472 185.774C297.446 185.843 297.187 185.67 297.248 185.583C297.256 185.531 297.248 185.566 297.256 185.549L297.265 185.531L297.273 185.505C297.282 185.497 297.273 185.497 297.273 185.523C297.256 185.566 297.334 185.67 297.36 185.661C297.403 185.67 297.369 185.661 297.351 185.67L297.204 185.722L297.152 185.557C296.633 183.853 296.27 182.461 296.063 181.475C295.846 180.497 295.855 179.926 295.898 179.926C295.933 179.926 295.985 180.471 296.253 181.431C296.512 182.392 296.927 183.767 297.481 185.453L297.282 185.332C297.334 185.332 297.36 185.306 297.472 185.332C297.533 185.332 297.637 185.471 297.619 185.549C297.611 185.618 297.593 185.644 297.585 185.67C297.568 185.661 297.619 185.704 297.542 185.652C297.498 185.626 297.403 185.609 297.42 185.609C297.412 185.583 297.395 185.549 297.369 185.523C297.351 185.505 297.351 185.514 297.317 185.471L297.325 185.462L297.36 185.428L297.438 185.358L297.749 185.073C297.965 184.883 298.182 184.684 298.407 184.485C298.856 184.078 299.332 183.654 299.816 183.222C300.802 182.34 301.866 181.397 302.973 180.411L303.155 180.246L303.302 180.437C303.951 181.276 304.617 182.149 305.3 183.04C306.208 184.234 307.091 185.393 307.921 186.483H307.566C309.841 183.542 311.493 180.783 312.574 178.845L312.695 178.638L312.817 178.837C313.37 179.762 313.716 180.532 314.036 181.008C314.373 181.449 314.59 181.674 314.564 181.7Z" fill="#455A64"/>
<path d="M299.28 169.365C299.315 169.374 299.254 169.677 299.133 170.204C299.012 170.741 298.804 171.502 298.528 172.445C297.983 174.321 297.135 176.899 296.045 179.684C294.947 182.469 293.814 184.926 292.931 186.673C292.49 187.547 292.118 188.247 291.842 188.723C291.573 189.199 291.409 189.458 291.374 189.441C291.314 189.406 291.824 188.316 292.629 186.535C293.433 184.753 294.514 182.288 295.604 179.52C296.694 176.752 297.585 174.209 298.208 172.358C298.839 170.498 299.22 169.348 299.28 169.365Z" fill="#455A64"/>
<path d="M305.534 152.914C305.568 153.018 304.063 153.424 301.815 153.58L301.979 153.269C302.489 154.099 303.051 155.007 303.64 155.976C304.003 156.59 304.357 157.187 304.695 157.74L304.946 158.164L304.461 158.069C301.702 157.542 299.644 157.792 299.635 157.663C299.626 157.619 300.137 157.498 301.01 157.438C301.884 157.377 303.121 157.386 304.539 157.628L304.314 157.957C303.977 157.403 303.614 156.815 303.242 156.201C302.662 155.232 302.117 154.315 301.624 153.468L301.443 153.165L301.789 153.148C302.904 153.104 303.839 153.027 304.487 152.966C305.153 152.931 305.525 152.871 305.534 152.914Z" fill="#455A64"/>
<path d="M313.474 159.773C313.465 159.851 312.22 159.54 310.066 159.488L310.204 159.323C310.715 161.356 311.398 164.055 312.176 167.168L312.272 167.532L311.917 167.437C310.213 166.969 308.353 166.459 306.416 165.923C305.906 165.784 305.413 165.646 304.92 165.508L305.214 165.274C305.335 168.258 305.447 171.026 305.542 173.396L305.551 173.656L305.309 173.586C303.172 172.99 301.382 172.488 300.033 172.107C299.453 171.934 298.969 171.787 298.571 171.666C298.234 171.562 298.061 171.493 298.069 171.476C298.078 171.459 298.259 171.484 298.605 171.554C299.012 171.649 299.505 171.761 300.093 171.891C301.451 172.228 303.259 172.678 305.395 173.206L305.162 173.396C305.041 171.017 304.902 168.258 304.755 165.274L304.738 164.954L305.049 165.041C305.542 165.179 306.044 165.317 306.546 165.456C308.474 165.992 310.325 166.511 312.021 166.987L311.753 167.255C311.026 164.124 310.403 161.408 309.928 159.358L309.884 159.185L310.066 159.194C311.147 159.254 312.012 159.393 312.583 159.514C313.171 159.661 313.483 159.747 313.474 159.773Z" fill="#455A64"/>
<path d="M314.564 181.699C314.546 181.717 314.296 181.527 313.932 181.059C313.569 180.601 313.18 179.84 312.6 178.958L312.843 178.949C311.831 180.93 310.213 183.749 307.947 186.725L307.765 186.958L307.584 186.725C306.753 185.644 305.862 184.485 304.954 183.3C304.271 182.409 303.614 181.535 302.965 180.696L303.294 180.731C302.169 181.708 301.105 182.642 300.111 183.516C299.617 183.948 299.133 184.364 298.675 184.753C298.45 184.952 298.225 185.142 298.009 185.332L297.689 185.609L297.611 185.678L297.568 185.713L297.524 185.747C297.507 185.756 297.507 185.765 297.472 185.773C297.446 185.843 297.187 185.67 297.248 185.583C297.256 185.531 297.248 185.566 297.256 185.549L297.265 185.531L297.273 185.505C297.282 185.497 297.273 185.497 297.273 185.523C297.256 185.566 297.334 185.67 297.36 185.661C297.403 185.67 297.369 185.661 297.351 185.67L297.204 185.721L297.152 185.557C296.633 183.853 296.27 182.461 296.063 181.475C295.846 180.497 295.855 179.926 295.898 179.926C295.933 179.926 295.985 180.471 296.253 181.431C296.512 182.391 296.927 183.767 297.481 185.453L297.282 185.332C297.334 185.332 297.36 185.306 297.472 185.332C297.533 185.332 297.637 185.471 297.619 185.549C297.611 185.618 297.593 185.644 297.585 185.67C297.568 185.661 297.619 185.704 297.542 185.652C297.498 185.626 297.403 185.609 297.42 185.609C297.412 185.583 297.395 185.549 297.369 185.523C297.351 185.505 297.351 185.514 297.317 185.471L297.325 185.462L297.36 185.427L297.438 185.358L297.749 185.073C297.965 184.882 298.182 184.684 298.407 184.485C298.856 184.078 299.332 183.654 299.816 183.222C300.802 182.34 301.866 181.397 302.973 180.411L303.155 180.246L303.302 180.437C303.951 181.276 304.617 182.149 305.3 183.04C306.208 184.234 307.091 185.393 307.921 186.483H307.566C309.841 183.542 311.493 180.783 312.574 178.845L312.695 178.638L312.817 178.837C313.37 179.762 313.716 180.532 314.036 181.008C314.373 181.449 314.59 181.674 314.564 181.699Z" fill="#455A64"/>
<path d="M299.28 169.365C299.315 169.374 299.254 169.677 299.133 170.204C299.012 170.741 298.804 171.502 298.528 172.445C297.983 174.321 297.135 176.899 296.045 179.684C294.947 182.469 293.814 184.926 292.931 186.673C292.49 187.547 292.118 188.247 291.842 188.723C291.573 189.199 291.409 189.458 291.374 189.441C291.314 189.406 291.824 188.316 292.629 186.535C293.433 184.753 294.514 182.288 295.604 179.52C296.694 176.752 297.585 174.209 298.208 172.358C298.839 170.498 299.22 169.348 299.28 169.365Z" fill="#455A64"/>
</g>
<defs>
<linearGradient id="paint0_linear" x1="82.3713" y1="274.762" x2="2.59228" y2="274.762" gradientUnits="userSpaceOnUse">
<stop stop-color="#258C45"/>
<stop offset="0.1059" stop-color="#2B8C49"/>
<stop offset="0.5473" stop-color="#82C482"/>
<stop offset="0.8548" stop-color="#B3D744"/>
<stop offset="1" stop-color="#C6DE2C"/>
</linearGradient>
<linearGradient id="paint1_linear" x1="345.306" y1="211.418" x2="198.763" y2="211.418" gradientUnits="userSpaceOnUse">
<stop stop-color="#258C45"/>
<stop offset="0.1059" stop-color="#2B8C49"/>
<stop offset="0.5473" stop-color="#82C482"/>
<stop offset="0.8548" stop-color="#B3D744"/>
<stop offset="1" stop-color="#C6DE2C"/>
</linearGradient>
<clipPath id="clip0">
<rect width="352.25" height="360.363" fill="white"/>
</clipPath>
</defs>
</svg>
