<svg width="75" height="75" viewBox="0 0 75 75" fill="none" xmlns="http://www.w3.org/2000/svg">
<g clip-path="url(#clip0)">
<path d="M37.3434 43.1921H30.6269C25.9771 43.1921 22.208 39.423 22.208 34.7733V29.0707C22.208 28.5105 22.6618 28.0562 23.222 28.0562H28.9245C33.5743 28.0562 37.3434 31.8258 37.3434 36.4756V43.1921Z" fill="#72E4A0"/>
<path d="M33.5656 29.4523C34.4468 30.7826 34.9618 32.378 34.9618 34.0934V40.81H28.2447C26.5292 40.81 24.9345 40.2955 23.6035 39.4144C25.1107 41.69 27.6925 43.192 30.6268 43.192H37.3433V36.4755C37.3433 33.5412 35.8418 30.9589 33.5656 29.4523Z" fill="#6AD394"/>
<path d="M37.3433 43.1921H43.57C48.4904 43.1921 52.4792 39.2033 52.4792 34.2835V29.0707C52.4792 28.5105 52.0249 28.0562 51.4647 28.0562H46.2519C41.3321 28.0562 37.3433 32.045 37.3433 36.9654V43.1921Z" fill="#72E4A0"/>
<path d="M50.0187 28.0562V32.8569C50.0187 37.6944 46.0968 41.6163 41.2594 41.6163H37.3433V43.1921H43.7193C48.5573 43.1921 52.4792 39.2702 52.4792 34.4328V29.0707C52.4792 28.5105 52.0249 28.0562 51.4647 28.0562H50.0187Z" fill="#6AD394"/>
<path d="M49.004 35.187H46.9018L47.7858 34.3029C48.215 33.8737 48.215 33.1779 47.7858 32.7488C47.3567 32.3202 46.6614 32.3202 46.2323 32.7488L43.2242 35.7569V34.0483C43.2242 33.4417 42.7327 32.9496 42.1256 32.9496C41.519 32.9496 41.0269 33.4417 41.0269 34.0483V37.9541L38.5945 40.3872V23.1461C38.5945 22.5395 38.1024 22.0474 37.4959 22.0474C36.8888 22.0474 36.3972 22.5395 36.3972 23.1461V40.6921L33.6592 37.9541V34.0483C33.6592 33.4417 33.1671 32.9496 32.5606 32.9496C31.9535 32.9496 31.462 33.4417 31.462 34.0483V35.7569L28.4539 32.7488C28.0247 32.3202 27.3289 32.3202 26.9004 32.7488C26.4712 33.1779 26.4712 33.8737 26.9004 34.3029L27.7844 35.187H25.6821C25.075 35.187 24.5835 35.6785 24.5835 36.2856C24.5835 36.8921 25.075 37.3842 25.6821 37.3842H29.9817L36.3972 43.7998V49.3078C36.3972 49.9144 36.8888 50.4065 37.4959 50.4065C38.1024 50.4065 38.5945 49.9144 38.5945 49.3078V43.4948L44.7051 37.3842H49.004C49.6112 37.3842 50.1027 36.8921 50.1027 36.2856C50.1027 35.6785 49.6112 35.187 49.004 35.187Z" fill="#59B37D"/>
<path d="M49.3013 12.8057C49.3013 19.3254 44.0159 24.6109 37.4962 24.6109C30.9759 24.6109 25.6904 19.3254 25.6904 12.8057C25.6904 6.28545 30.9759 1 37.4962 1C44.0159 1 49.3013 6.28545 49.3013 12.8057Z" fill="#FFD508"/>
<path d="M37.4963 1C36.8509 1 36.218 1.05264 35.6006 1.15221C41.2196 2.05915 45.5112 6.9309 45.5112 12.8057C45.5112 18.68 41.2196 23.5517 35.6006 24.4587C36.218 24.5582 36.8509 24.6109 37.4963 24.6109C44.016 24.6109 49.3015 19.3254 49.3015 12.8057C49.3015 6.28545 44.016 1 37.4963 1Z" fill="#EEC707"/>
<path d="M40.2884 5.58051H36.3511C36.1645 5.58051 35.9929 5.68236 35.9036 5.84658L32.3216 12.463C32.1385 12.8023 32.384 13.2143 32.7696 13.2137L35.8487 13.2091C36.2109 13.2086 36.4575 13.5759 36.3196 13.9112L34.7724 17.67C34.5606 18.1845 35.2095 18.6165 35.6026 18.2228L42.2122 11.5915C42.5314 11.2705 42.3049 10.7241 41.8522 10.7241H38.7881C38.383 10.7241 38.1403 10.2737 38.3635 9.93555L40.713 6.36843C40.9361 6.03026 40.6935 5.58051 40.2884 5.58051Z" fill="white"/>
<path d="M46.557 76H28.4347C27.2119 76 26.1619 75.1297 25.9353 73.9275L22.208 54.1595H52.7843L49.057 73.9275C48.8304 75.1297 47.7804 76 46.557 76Z" fill="#00DD80"/>
<path d="M48.594 54.1595L44.8667 73.9275C44.6401 75.1297 43.5901 76 42.3667 76H46.557C47.7803 76 48.8303 75.1297 49.0569 73.9275L52.7843 54.1595H48.594Z" fill="#00AA63"/>
<path d="M54.689 54.1595H20.3024C19.0407 54.1595 18.0176 53.137 18.0176 51.8747V50.1278C18.0176 48.8661 19.0407 47.843 20.3024 47.843H54.689C55.9513 47.843 56.9738 48.8661 56.9738 50.1278V51.8747C56.9738 53.137 55.9513 54.1595 54.689 54.1595Z" fill="#888888"/>
<path d="M54.7585 47.843H49.8232C51.0466 47.843 52.0382 48.8346 52.0382 50.058V51.9445C52.0382 53.1679 51.0466 54.1595 49.8232 54.1595H54.7585C55.9819 54.1595 56.9735 53.1679 56.9735 51.9445V50.058C56.9735 48.8346 55.9819 47.843 54.7585 47.843Z" fill="#555555"/>
<path d="M44.4135 60.9567H30.5781C29.971 60.9567 29.4795 60.4646 29.4795 59.8581C29.4795 59.2516 29.971 58.7595 30.5781 58.7595H44.4135C45.0206 58.7595 45.5121 59.2516 45.5121 59.8581C45.5121 60.4646 45.0206 60.9567 44.4135 60.9567Z" fill="white"/>
</g>
<defs>
<clipPath id="clip0">
<rect width="75" height="75" fill="white"/>
</clipPath>
</defs>
</svg>
