<svg width="21" height="45" viewBox="0 0 21 45" fill="none" xmlns="http://www.w3.org/2000/svg">
<path d="M18.7246 0H2.04092C0.915494 0 0 1.27801 0 2.84898V42.151C0 43.7219 0.915562 45 2.04099 45H18.7246C19.85 45 20.7656 43.722 20.7656 42.151V2.84898C20.7655 1.27801 19.85 0 18.7246 0ZM1.02275 7.1606H19.7428V36.9207H1.02275V7.1606ZM2.04092 1.42763H18.7246C19.286 1.42763 19.7428 2.06521 19.7428 2.84898V6.20885H1.02275V2.84898C1.02275 2.06521 1.4795 1.42763 2.04092 1.42763ZM18.7246 43.5723H2.04092C1.4795 43.5723 1.02268 42.9347 1.02268 42.1509V37.8723H19.7427V42.1509C19.7427 42.9347 19.286 43.5723 18.7246 43.5723Z" fill="#2CB357"/>
</svg>
