<svg width="376" height="282" viewBox="0 0 376 282" fill="none" xmlns="http://www.w3.org/2000/svg">
<g clip-path="url(#clip0)">
<path d="M82.9572 213.39L82.0228 265.587L0.125524 265.776L0 212.881L82.9572 213.39Z" fill="#EBEBEB"/>
<path d="M34.7074 265.629C34.6028 265.629 34.7213 253.976 34.9793 239.611C35.2374 225.238 35.5302 213.593 35.6418 213.593C35.7464 213.593 35.6279 225.245 35.3699 239.618C35.1049 253.983 34.812 265.629 34.7074 265.629Z" fill="#E0E0E0"/>
<path d="M0.125616 265.775C0.111669 265.768 0.230219 265.58 0.460346 265.225C0.711393 264.848 1.04612 264.339 1.47151 263.69C2.39202 262.344 3.68212 260.441 5.27209 258.112C8.52873 253.39 12.9848 246.919 17.9151 239.771C22.8524 232.609 27.2945 226.103 30.4605 221.368C32.0435 218.997 33.3057 217.065 34.1704 215.726C34.5819 215.078 34.9096 214.562 35.1537 214.178C35.3838 213.83 35.5094 213.641 35.5163 213.648C35.5303 213.655 35.4257 213.85 35.2165 214.213C34.9863 214.604 34.6795 215.134 34.296 215.803C33.4661 217.163 32.2457 219.122 30.6906 221.514C27.5804 226.291 23.1732 232.826 18.2359 239.987C13.2986 247.149 8.77978 253.6 5.50221 258.265C3.87041 260.573 2.54543 262.442 1.60401 263.774C1.15073 264.402 0.795076 264.897 0.530081 265.266C0.27206 265.608 0.132589 265.782 0.125616 265.775Z" fill="#E0E0E0"/>
<path d="M34.7076 265.629C34.6936 265.636 34.5681 265.462 34.331 265.113C34.0799 264.737 33.7382 264.234 33.3129 263.6C32.4202 262.254 31.158 260.35 29.6169 258.021C26.4509 253.3 22.1133 246.821 17.3225 239.667C12.5038 232.505 8.18719 225.999 5.11883 221.243C3.58466 218.865 2.35731 216.94 1.52049 215.594C1.123 214.945 0.802213 214.429 0.565113 214.046C0.348933 213.69 0.24433 213.502 0.251303 213.495C0.265251 213.488 0.390774 213.662 0.627875 214.011C0.878922 214.388 1.22063 214.89 1.64601 215.524C2.53862 216.87 3.80083 218.774 5.34199 221.103C8.50797 225.824 12.8455 232.303 17.6363 239.457C22.4551 246.612 26.7717 253.126 29.84 257.875C31.3742 260.253 32.6016 262.177 33.4384 263.523C33.8359 264.172 34.1567 264.688 34.3938 265.071C34.6099 265.434 34.7215 265.622 34.7076 265.629Z" fill="#E0E0E0"/>
<path d="M43.1469 259.732L56.2964 259.967L56.3446 257.276L43.1951 257.04L43.1469 259.732Z" fill="#E0E0E0"/>
<path d="M43.8286 254.841C43.8286 254.736 46.7087 254.632 50.2582 254.611C53.8147 254.59 56.6948 254.66 56.6948 254.764C56.6948 254.869 53.8147 254.974 50.2652 254.994C46.7157 255.015 43.8356 254.946 43.8286 254.841Z" fill="#E0E0E0"/>
<path d="M61.3115 213.09L60.9488 233.244L58.1176 230.985L54.4355 233.125L54.7912 212.979L61.3115 213.09Z" fill="#E0E0E0"/>
<path d="M73.1384 173.864L72.4202 213.697L9.91634 213.844L9.82568 173.474L73.1384 173.864Z" fill="#F5F5F5"/>
<path d="M36.3108 213.725C36.2272 213.725 36.3248 204.834 36.5201 193.864C36.7153 182.895 36.9454 174.011 37.0222 174.011C37.1058 174.011 37.0082 182.902 36.8129 193.871C36.6177 204.841 36.3945 213.732 36.3108 213.725Z" fill="#E0E0E0"/>
<path d="M9.91642 213.844C9.90944 213.837 9.99313 213.697 10.1675 213.425C10.3558 213.139 10.6138 212.749 10.9415 212.254C11.6389 211.222 12.6291 209.778 13.8425 207.993C16.3251 204.387 19.7282 199.45 23.4939 193.997C27.2596 188.53 30.6557 183.564 33.0686 179.952C34.275 178.146 35.2373 176.668 35.8998 175.65C36.2136 175.154 36.4647 174.757 36.653 174.464C36.8273 174.199 36.9249 174.06 36.9319 174.06C36.9389 174.067 36.8622 174.213 36.7018 174.492C36.5274 174.792 36.2903 175.196 35.9975 175.705C35.3629 176.744 34.4284 178.237 33.2429 180.064C30.8719 183.711 27.5037 188.697 23.738 194.164C19.9723 199.632 16.5204 204.555 14.0169 208.111C12.7756 209.869 11.7574 211.298 11.0392 212.316C10.6975 212.791 10.4255 213.174 10.2233 213.453C10.028 213.711 9.92339 213.844 9.91642 213.844Z" fill="#E0E0E0"/>
<path d="M36.3108 213.725C36.3038 213.732 36.2062 213.592 36.0249 213.334C35.8296 213.049 35.5716 212.665 35.2508 212.184C34.5674 211.152 33.6051 209.708 32.4265 207.923C30.0137 204.318 26.7013 199.373 23.0471 193.92C19.3721 188.453 16.0736 183.488 13.7305 179.861C12.5589 178.048 11.6245 176.577 10.9829 175.552C10.6761 175.057 10.432 174.659 10.2507 174.366C10.0903 174.094 10.0066 173.948 10.0136 173.941C10.0206 173.934 10.1182 174.073 10.2995 174.331C10.4878 174.617 10.7528 175.001 11.0736 175.482C11.757 176.514 12.7193 177.958 13.8978 179.743C16.3107 183.348 19.6231 188.292 23.2842 193.753C26.9593 199.213 30.2578 204.185 32.5939 207.811C33.7655 209.625 34.6999 211.096 35.3415 212.121C35.6483 212.616 35.8924 213.014 36.0737 213.307C36.2341 213.579 36.3178 213.725 36.3108 213.725Z" fill="#E0E0E0"/>
<path d="M42.7517 209.225L52.7847 209.404L52.8215 207.347L42.7886 207.168L42.7517 209.225Z" fill="#E0E0E0"/>
<path d="M43.2773 205.496C43.2773 205.413 45.474 205.336 48.1867 205.322C50.8994 205.308 53.0961 205.357 53.0961 205.441C53.0961 205.524 50.8994 205.601 48.1867 205.615C45.474 205.629 43.2773 205.573 43.2773 205.496Z" fill="#EBEBEB"/>
<path d="M60.4952 173.634L60.2232 189.011L58.0545 187.288L55.2441 188.92L55.5231 173.543L60.4952 173.634Z" fill="#E0E0E0"/>
<path d="M79.9166 262.017C78.3755 257.442 74.2053 254.499 69.6586 254.29L67.7408 148.746H76.9738V150.322H78.7102V146.542H67.699H67.4619H64.3656C64.3656 146.542 66.0742 224.422 67.3155 254.423C66.7088 254.52 66.0951 254.66 65.4954 254.862C60.6697 256.487 57.6501 261.033 57.7478 265.866L25.0488 265.427L25.9833 269.722L58.222 268.837C58.2638 268.983 58.2987 269.137 58.3475 269.283C60.3559 275.239 66.8134 278.446 72.7688 276.438C78.7172 274.43 81.918 267.972 79.9166 262.017Z" fill="#E0E0E0"/>
<path d="M31.3042 275.985H33.0406L36.367 269.437L33.6124 269.513L31.3042 275.985Z" fill="#E0E0E0"/>
<path d="M299.513 0H266.766V9.05165H299.513V0Z" fill="#EBEBEB"/>
<path d="M85.7956 59.6935H53.0479V68.7451H85.7956V59.6935Z" fill="#EBEBEB"/>
<path d="M327.506 191.605H294.758V200.657H327.506V191.605Z" fill="#EBEBEB"/>
<path d="M291.201 9.05164H258.454V18.1033H291.201V9.05164Z" fill="#F5F5F5"/>
<path d="M72.0016 70.1957H39.2539V79.2473H72.0016V70.1957Z" fill="#F5F5F5"/>
<path d="M306.668 200.943H283.14V209.994H306.668V200.943Z" fill="#F5F5F5"/>
<path d="M168.501 30.1187H97.957V174.38H168.501V30.1187Z" fill="#EBEBEB"/>
<path d="M133.237 30.1187C133.237 30.1187 118.773 95.5583 97.9644 100.035C97.9644 100.035 106.374 145.935 107.135 174.387H97.9644V30.1187H133.237Z" fill="#E0E0E0"/>
<path d="M133.474 30.1187C133.474 30.1187 147.937 95.5583 168.746 100.035C168.746 100.035 160.336 145.935 159.576 174.387H168.746V30.1187H133.474Z" fill="#E0E0E0"/>
<path d="M134.52 29.8467H131.946V174.387H134.52V29.8467Z" fill="#FAFAFA"/>
<path d="M114.91 29.8467H114.275V174.387H114.91V29.8467Z" fill="#FAFAFA"/>
<path d="M152.993 29.8467H152.358V174.387H152.993V29.8467Z" fill="#FAFAFA"/>
<path d="M168.508 65.6837V66.2625L97.957 66.5554V65.9766L168.508 65.6837Z" fill="#FAFAFA"/>
<path d="M168.508 137.462V138.027L97.957 138.313V137.741L168.508 137.462Z" fill="#FAFAFA"/>
<path d="M168.501 100.802H97.957V103.208H168.501V100.802Z" fill="#FAFAFA"/>
<path d="M169.554 175.426H96.9111V29.0726H169.548V175.426H169.554ZM99.0032 173.334H167.455V31.1647H99.0032V173.334Z" fill="#F5F5F5"/>
<path d="M374.939 30.1187H304.395V174.38H374.939V30.1187Z" fill="#EBEBEB"/>
<path d="M339.667 30.1187C339.667 30.1187 325.204 95.5583 304.395 100.035C304.395 100.035 312.805 145.935 313.565 174.387H304.395V30.1187H339.667Z" fill="#E0E0E0"/>
<path d="M339.904 30.1187C339.904 30.1187 354.367 95.5583 375.176 100.035C375.176 100.035 366.766 145.935 366.006 174.387H375.176V30.1187H339.904Z" fill="#E0E0E0"/>
<path d="M340.958 29.8467H338.384V174.387H340.958V29.8467Z" fill="#FAFAFA"/>
<path d="M321.348 29.8467H320.713V174.387H321.348V29.8467Z" fill="#FAFAFA"/>
<path d="M359.43 29.8467H358.796V174.387H359.43V29.8467Z" fill="#FAFAFA"/>
<path d="M374.939 65.6837V66.2625L304.395 66.5554V65.9766L374.939 65.6837Z" fill="#FAFAFA"/>
<path d="M374.939 137.462V138.027L304.395 138.313V137.741L374.939 137.462Z" fill="#FAFAFA"/>
<path d="M374.939 100.802H304.395V103.208H374.939V100.802Z" fill="#FAFAFA"/>
<path d="M375.985 175.426H303.349V29.0726H375.985V175.426ZM305.441 173.334H373.893V31.1647H305.441V173.334Z" fill="#F5F5F5"/>
<path d="M155.587 255.315C153.125 254.046 150.224 253.879 147.483 254.332C146.012 254.576 144.485 255.015 143.481 256.117C142.483 257.219 142.288 259.165 143.439 260.113C144.122 260.678 145.078 260.762 145.963 260.755C148.104 260.727 150.482 260.35 152.191 261.64C153.167 262.373 153.815 263.6 154.987 263.962C156.131 264.318 157.414 263.642 158.02 262.61C158.627 261.578 158.648 260.287 158.362 259.13C158.362 259.123 158.069 256.591 155.587 255.315Z" fill="#EBEBEB"/>
<path d="M161.228 244.416C159.722 246.57 156.793 245.852 155.433 244.541C154.073 243.23 153.502 241.326 152.979 239.506C151.786 235.357 150.58 231.005 151.472 226.779C151.737 225.517 152.211 224.255 153.097 223.321C153.983 222.386 155.35 221.828 156.598 222.156C158.076 222.547 158.99 223.99 159.652 225.371C161.605 229.415 162.637 233.899 162.651 238.39C162.658 240.482 162.414 242.686 161.228 244.416Z" fill="#EBEBEB"/>
<path d="M165.371 247.505C163.732 245.566 163.425 242.728 164.15 240.301C164.876 237.867 166.521 235.796 168.418 234.109C170.643 232.128 173.251 230.587 176.061 229.597C177.163 229.206 178.335 228.9 179.499 229.011C180.664 229.123 181.842 229.715 182.386 230.754C183.188 232.289 182.421 234.151 181.584 235.671C180.113 238.349 178.432 240.901 176.563 243.314C175.057 245.252 173.335 247.17 171.04 248.042C168.746 248.921 166.368 248.816 165.148 247.226" fill="#EBEBEB"/>
<path d="M161.333 276.878C161.305 276.878 161.257 276.529 161.194 275.901C161.124 275.19 161.04 274.297 160.936 273.23C160.81 272.108 160.65 270.769 160.336 269.318C160.022 267.868 159.541 266.292 158.913 264.702C158.265 263.112 157.477 261.675 156.556 260.518C155.643 259.36 154.576 258.523 153.572 258.035C152.575 257.54 151.682 257.345 151.061 257.254C150.441 257.191 150.085 257.142 150.085 257.114C150.085 257.087 150.434 257.08 151.075 257.101C151.71 257.142 152.644 257.303 153.697 257.784C154.75 258.251 155.88 259.102 156.842 260.287C157.812 261.466 158.628 262.937 159.29 264.555C159.925 266.18 160.406 267.77 160.706 269.248C160.999 270.727 161.138 272.08 161.229 273.209C161.312 274.339 161.347 275.26 161.361 275.894C161.368 276.529 161.361 276.878 161.333 276.878Z" fill="#E0E0E0"/>
<path d="M161.152 274.827C161.138 274.827 161.131 274.667 161.124 274.374C161.124 274.032 161.124 273.607 161.124 273.077C161.124 271.947 161.124 270.322 161.068 268.307C160.97 264.283 160.622 258.725 159.952 252.616C159.276 246.508 158.383 241.012 157.567 237.072C157.372 236.082 157.184 235.197 156.995 234.415C156.821 233.634 156.675 232.965 156.528 232.414C156.403 231.905 156.305 231.487 156.221 231.152C156.159 230.859 156.131 230.706 156.145 230.706C156.159 230.699 156.214 230.845 156.305 231.131C156.403 231.459 156.528 231.87 156.682 232.372C156.849 232.909 157.016 233.579 157.219 234.36C157.421 235.134 157.637 236.019 157.846 237.01C158.732 240.95 159.673 246.452 160.35 252.568C161.019 258.69 161.326 264.262 161.347 268.293C161.368 270.308 161.326 271.94 161.277 273.07C161.242 273.6 161.221 274.025 161.2 274.367C161.18 274.674 161.166 274.827 161.152 274.827Z" fill="#E0E0E0"/>
<path d="M161.124 264.081C161.096 264.081 161.103 263.6 161.131 262.728C161.18 261.856 161.298 260.601 161.549 259.053C161.807 257.512 162.17 255.685 162.742 253.704C163.286 251.71 164.032 249.562 164.98 247.372C166.835 242.972 169.359 239.374 171.549 237.142C172.065 236.549 172.637 236.124 173.097 235.706C173.334 235.503 173.544 235.308 173.76 235.148C173.976 235.001 174.171 234.862 174.359 234.736C175.085 234.241 175.489 233.983 175.503 234.004C175.566 234.095 173.885 235.078 171.765 237.344C169.652 239.597 167.198 243.174 165.357 247.54C164.415 249.709 163.662 251.842 163.104 253.816C162.518 255.782 162.128 257.589 161.835 259.116C161.556 260.643 161.396 261.891 161.298 262.749C161.207 263.6 161.152 264.081 161.124 264.081Z" fill="#E0E0E0"/>
<path d="M365.079 277.407C365.079 277.505 286.236 277.589 188.997 277.589C91.7298 277.589 12.9009 277.505 12.9009 277.407C12.9009 277.31 91.7298 277.226 188.997 277.226C286.236 277.226 365.079 277.31 365.079 277.407Z" fill="#263238"/>
<path d="M315.776 254.639C305.636 248 303.063 235.294 303.174 223.816C303.195 221.898 302.93 219.883 303.816 218.181C304.695 216.48 306.822 215.28 308.579 216.047C310.036 216.682 310.706 218.321 311.543 219.673C312.658 221.466 314.297 222.937 316.194 223.851C317.442 224.457 318.983 224.806 320.183 224.109C321.836 223.16 321.975 220.873 321.919 218.969C321.808 215.42 321.703 211.87 321.591 208.32C321.536 206.417 321.48 204.471 322.038 202.651C322.596 200.831 323.879 199.115 325.699 198.565C327.519 198.014 329.82 199.004 330.253 200.859C330.434 201.633 330.294 202.442 330.364 203.23C330.434 204.018 330.831 204.883 331.599 205.085C332.373 205.287 333.133 204.729 333.698 204.157C335.643 202.184 336.933 199.68 338.133 197.184C339.332 194.694 340.497 192.142 342.254 190.001C344.011 187.86 346.466 186.138 349.228 185.921C351.989 185.698 354.974 187.316 355.734 189.973C356.501 192.644 354.981 195.405 353.307 197.616C350.825 200.901 347.861 203.823 344.548 206.263C343.949 206.703 343.3 207.177 343.084 207.888C342.693 209.164 343.949 210.399 345.225 210.789C346.675 211.228 348.23 211.04 349.744 211.18C351.25 211.319 352.896 211.933 353.502 213.327C354.339 215.252 352.742 217.337 351.152 218.711C347.965 221.466 344.311 223.669 340.385 225.189C338.977 225.733 337.498 226.222 336.375 227.233C335.253 228.244 334.604 229.973 335.329 231.298C336.055 232.623 337.84 233.014 339.318 232.707C340.797 232.4 342.108 231.57 343.516 231.012C346.145 229.959 349.569 230.057 351.327 232.282C352.477 233.739 352.631 235.81 352.108 237.595C351.585 239.381 350.476 240.936 349.297 242.372C345.169 247.393 339.827 251.487 333.725 253.739C327.624 255.992 321.94 256.696 315.776 254.639Z" fill="url(#paint0_linear)"/>
<path d="M352.889 187.435C352.896 187.442 352.833 187.504 352.707 187.623C352.568 187.748 352.38 187.923 352.15 188.139C351.654 188.592 350.929 189.262 350.009 190.147C348.175 191.912 345.601 194.562 342.833 198.174C341.438 199.973 339.995 202.009 338.488 204.22C336.982 206.438 335.392 208.809 333.809 211.368C332.226 213.927 330.65 216.668 329.248 219.618C328.537 221.089 327.916 222.63 327.275 224.199C326.64 225.768 325.999 227.358 325.343 228.969C322.756 235.42 320.497 241.654 318.914 247.456C317.324 253.258 316.424 258.621 316.082 263.16C315.734 267.7 315.915 271.389 316.166 273.92C316.299 275.183 316.424 276.166 316.529 276.828C316.577 277.149 316.612 277.393 316.64 277.582C316.661 277.749 316.668 277.84 316.668 277.84C316.661 277.84 316.64 277.756 316.605 277.589C316.57 277.4 316.522 277.156 316.466 276.835C316.333 276.18 316.194 275.197 316.041 273.927C315.748 271.396 315.524 267.693 315.845 263.132C316.152 258.579 317.031 253.188 318.614 247.365C320.183 241.535 322.442 235.287 325.029 228.83C325.685 227.219 326.326 225.629 326.961 224.06C327.603 222.498 328.23 220.943 328.949 219.464C330.364 216.493 331.954 213.753 333.544 211.187C335.134 208.627 336.738 206.249 338.258 204.039C339.778 201.835 341.236 199.799 342.645 198.007C345.455 194.408 348.063 191.772 349.925 190.036C350.852 189.164 351.599 188.509 352.108 188.076C352.352 187.867 352.547 187.707 352.693 187.581C352.812 187.483 352.882 187.428 352.889 187.435Z" fill="#263238"/>
<path d="M329.032 219.45C329.011 219.457 328.935 219.164 328.823 218.641C328.712 218.118 328.572 217.351 328.412 216.41C328.091 214.52 327.742 211.898 327.366 209.004C326.989 206.11 326.606 203.495 326.257 201.619C326.09 200.678 325.936 199.917 325.831 199.394C325.727 198.871 325.678 198.579 325.706 198.572C325.727 198.565 325.825 198.85 325.971 199.367C326.117 199.883 326.306 200.636 326.508 201.57C326.919 203.446 327.345 206.061 327.721 208.962C328.084 211.821 328.412 214.401 328.663 216.382C328.781 217.275 328.886 218.028 328.963 218.627C329.025 219.15 329.053 219.45 329.032 219.45Z" fill="#263238"/>
<path d="M353.725 214.283C353.725 214.311 353.377 214.36 352.742 214.422C352.108 214.492 351.187 214.59 350.057 214.75C347.791 215.043 344.674 215.566 341.264 216.284C337.854 217.009 334.792 217.797 332.596 218.425C331.494 218.732 330.608 219.004 330.002 219.192C329.388 219.38 329.046 219.471 329.039 219.45C329.032 219.429 329.36 219.29 329.96 219.06C330.559 218.837 331.431 218.523 332.526 218.181C334.709 217.484 337.77 216.661 341.194 215.929C344.618 215.21 347.749 214.729 350.03 214.492C351.166 214.366 352.094 214.304 352.735 214.276C353.37 214.262 353.725 214.262 353.725 214.283Z" fill="#263238"/>
<path d="M318.893 246.919C318.879 246.926 318.823 246.821 318.719 246.626C318.6 246.389 318.454 246.103 318.272 245.754C317.889 244.994 317.366 243.871 316.731 242.484C315.469 239.708 313.837 235.817 312.108 231.5C310.371 227.184 308.781 223.286 307.582 220.489C306.989 219.129 306.508 218.007 306.145 217.177C305.992 216.814 305.866 216.514 305.762 216.277C305.678 216.068 305.636 215.956 305.65 215.949C305.664 215.942 305.72 216.047 305.824 216.242C305.943 216.479 306.089 216.765 306.271 217.114C306.654 217.874 307.177 218.99 307.812 220.385C309.081 223.16 310.706 227.051 312.442 231.368C314.179 235.685 315.762 239.583 316.968 242.379C317.561 243.739 318.042 244.855 318.405 245.692C318.558 246.054 318.684 246.354 318.788 246.591C318.865 246.8 318.9 246.912 318.893 246.919Z" fill="#263238"/>
<path d="M351.599 235.643C351.599 235.657 351.487 235.706 351.278 235.782C351.02 235.873 350.706 235.985 350.33 236.124C349.451 236.431 348.265 236.835 346.829 237.337C343.872 238.362 339.807 239.827 335.316 241.445C330.825 243.07 326.738 244.492 323.753 245.462C322.261 245.943 321.055 246.326 320.211 246.57C319.82 246.682 319.5 246.773 319.242 246.842C319.018 246.905 318.9 246.926 318.893 246.919C318.886 246.905 318.997 246.856 319.214 246.78C319.472 246.689 319.785 246.577 320.162 246.438C321.041 246.131 322.226 245.727 323.663 245.224C326.62 244.199 330.685 242.735 335.183 241.117C339.674 239.492 343.761 238.07 346.738 237.107C348.231 236.626 349.437 236.243 350.281 235.998C350.671 235.887 350.992 235.796 351.25 235.72C351.473 235.657 351.592 235.629 351.599 235.643Z" fill="#263238"/>
<path d="M84.5466 274.994L85.6833 267.895L72.9775 265.775L71.1714 276.375L71.9524 276.556C75.4252 277.344 89.7071 280.078 92.1757 279.729C94.9233 279.332 84.5466 274.994 84.5466 274.994Z" fill="#2CB357"/>
<path d="M92.5733 279.13C92.5524 279.248 87.7825 278.586 81.9107 277.644C76.039 276.703 71.297 275.845 71.3179 275.727C71.3389 275.608 76.1088 276.271 81.9805 277.212C87.8522 278.147 92.5942 279.004 92.5733 279.13Z" fill="#263238"/>
<path d="M84.5398 276.48C84.4422 276.41 84.5956 276.047 84.9233 275.72C85.2581 275.392 85.6207 275.245 85.6904 275.343C85.7602 275.441 85.537 275.727 85.2302 276.026C84.9303 276.333 84.6374 276.549 84.5398 276.48Z" fill="#263238"/>
<path d="M85.2792 277.073C85.1746 277.017 85.3002 276.605 85.6209 276.201C85.9417 275.796 86.3113 275.58 86.395 275.671C86.4787 275.762 86.2625 276.096 85.9626 276.473C85.6628 276.849 85.3838 277.135 85.2792 277.073Z" fill="#263238"/>
<path d="M75.1606 276.292C75.1048 276.319 74.9444 276.103 74.7213 275.748C74.4912 275.392 74.1983 274.897 73.7868 274.451C73.3754 274.004 72.8803 273.739 72.5037 273.628C72.1271 273.516 71.8621 273.537 71.8482 273.467C71.8342 273.418 72.0992 273.279 72.5595 273.321C73.0128 273.363 73.6264 273.635 74.1006 274.144C74.5679 274.646 74.8329 275.204 74.9932 275.601C75.1536 276.006 75.2164 276.264 75.1606 276.292Z" fill="#263238"/>
<path d="M84.7907 275.148C84.8395 275.26 84.5815 275.469 84.198 275.545C83.8144 275.622 83.4937 275.525 83.4937 275.406C83.4937 275.28 83.7726 275.19 84.1073 275.12C84.449 275.05 84.7489 275.036 84.7907 275.148Z" fill="#263238"/>
<path d="M84.7002 274.43C84.6933 274.548 84.3376 274.597 83.9053 274.534C83.4729 274.472 83.1451 274.325 83.173 274.207C83.2009 274.088 83.5566 274.039 83.968 274.102C84.3864 274.165 84.7072 274.311 84.7002 274.43Z" fill="#263238"/>
<path d="M129.519 273.46L129.254 266.278L116.374 266.668L116.667 277.414L117.469 277.442C121.025 277.54 135.565 277.449 137.922 276.626C140.544 275.706 129.519 273.46 129.519 273.46Z" fill="#2CB357"/>
<path d="M138.194 275.957C138.201 276.075 133.389 276.354 127.448 276.57C121.506 276.787 116.688 276.87 116.681 276.745C116.674 276.626 121.485 276.347 127.427 276.131C133.375 275.915 138.194 275.831 138.194 275.957Z" fill="#263238"/>
<path d="M129.798 274.918C129.694 274.869 129.77 274.485 130.028 274.102C130.293 273.718 130.621 273.502 130.705 273.586C130.795 273.669 130.628 273.99 130.391 274.346C130.154 274.702 129.91 274.974 129.798 274.918Z" fill="#263238"/>
<path d="M130.642 275.357C130.53 275.322 130.572 274.89 130.809 274.437C131.046 273.976 131.367 273.697 131.465 273.767C131.563 273.837 131.416 274.214 131.2 274.639C130.97 275.064 130.754 275.399 130.642 275.357Z" fill="#263238"/>
<path d="M120.565 276.557C120.516 276.591 120.321 276.41 120.028 276.103C119.735 275.803 119.352 275.371 118.856 275.015C118.361 274.66 117.831 274.492 117.441 274.458C117.05 274.423 116.792 274.492 116.771 274.43C116.75 274.381 116.981 274.193 117.441 274.151C117.894 274.102 118.55 274.255 119.114 274.66C119.672 275.064 120.042 275.559 120.272 275.915C120.502 276.278 120.607 276.522 120.565 276.557Z" fill="#263238"/>
<path d="M129.791 273.565C129.861 273.663 129.645 273.921 129.282 274.067C128.919 274.213 128.585 274.179 128.564 274.067C128.543 273.949 128.794 273.795 129.115 273.663C129.435 273.537 129.721 273.46 129.791 273.565Z" fill="#263238"/>
<path d="M129.561 272.882C129.575 273 129.24 273.119 128.801 273.14C128.369 273.16 128.02 273.084 128.02 272.958C128.027 272.84 128.362 272.721 128.78 272.7C129.199 272.679 129.547 272.756 129.561 272.882Z" fill="#263238"/>
<path d="M146.981 94.6448L146.256 92.3087C146.256 92.3087 146.047 90.8303 145.119 88.3547C144.882 87.7131 144.527 87.1134 144.087 86.5834C143.557 85.9418 142.818 85.112 142.274 84.7842C141.605 84.3797 141.751 83.3756 142.455 83.3198C143.153 83.264 145.029 84.3379 146.465 86.423C147.902 88.5081 148.174 84.582 148.292 83.1524C148.418 81.7228 149.004 77.3225 149.471 77.0227C150.154 76.5833 150.768 77.2528 150.614 78.6824C150.454 80.1259 150.287 84.4146 151.047 84.4634C151.793 84.5122 152.323 77.2249 152.323 77.2249C152.323 77.2249 152.183 75.6419 153.055 75.6698C154.631 75.7186 153.501 83.4104 153.376 84.1357C153.285 84.6447 154.108 84.7215 154.171 84.1775C154.241 83.6127 154.534 76.8902 156.137 76.925C157.372 76.9529 155.266 83.264 155.977 84.7075C156.688 86.158 157.086 79.7493 158.257 79.8191C158.697 79.8469 159.018 79.9306 158.264 83.5638C157.49 87.2877 153.753 96.9809 153.753 96.9809L146.905 94.5332" fill="#FFBE9D"/>
<path d="M99.8746 92.7271L111.465 93.5848C111.618 92.2459 111.841 87.0367 111.841 87.0367C111.841 87.0367 116.681 86.5834 117.036 81.7995C117.392 77.0087 117.239 65.9557 117.239 65.9557C111.834 63.229 105.384 63.6404 100.37 67.0296L99.6235 67.5317L99.8746 92.7271Z" fill="#FFBE9D"/>
<path d="M115.628 74.1146C115.356 73.8357 115.363 73.3963 115.642 73.1313C115.921 72.8594 116.36 72.8663 116.625 73.1453C116.897 73.4242 116.89 73.8636 116.611 74.1286C116.339 74.3935 115.893 74.3935 115.628 74.1146Z" fill="#263238"/>
<path d="M116.855 73.0896C116.771 73.1663 116.325 72.7758 115.67 72.7339C115.007 72.6781 114.512 72.9989 114.442 72.9152C114.407 72.8734 114.491 72.7269 114.714 72.5875C114.93 72.441 115.293 72.3085 115.704 72.3434C116.116 72.3713 116.451 72.5526 116.646 72.7339C116.834 72.9013 116.897 73.0547 116.855 73.0896Z" fill="#263238"/>
<path d="M109.219 73.2012C109.533 73.4244 109.609 73.8567 109.386 74.1706C109.163 74.4844 108.731 74.5611 108.417 74.3379C108.103 74.1148 108.026 73.6824 108.25 73.3686C108.466 73.0548 108.898 72.9781 109.219 73.2012Z" fill="#263238"/>
<path d="M109.651 73.2291C109.575 73.3058 109.121 72.9153 108.466 72.8735C107.803 72.8177 107.308 73.1385 107.239 73.0548C107.204 73.0129 107.287 72.8665 107.511 72.72C107.727 72.5736 108.089 72.4411 108.501 72.476C108.912 72.5039 109.247 72.6922 109.442 72.8665C109.631 73.0408 109.686 73.1942 109.651 73.2291Z" fill="#263238"/>
<path d="M111.96 78.8428C111.96 78.794 112.371 78.7382 113.041 78.6894C113.215 78.6824 113.354 78.6545 113.375 78.5569C113.417 78.4523 113.354 78.264 113.285 78.0478C113.145 77.6015 112.999 77.1482 112.845 76.674C112.239 74.7214 111.834 73.1105 111.925 73.0826C112.022 73.0547 112.587 74.6168 113.187 76.5694C113.326 77.0506 113.466 77.5039 113.598 77.9502C113.647 78.1524 113.752 78.3965 113.647 78.6684C113.591 78.8079 113.452 78.8986 113.333 78.9195C113.215 78.9474 113.117 78.9404 113.041 78.9404C112.378 78.9265 111.96 78.8916 111.96 78.8428Z" fill="#263238"/>
<path d="M109.77 79.4354C109.107 78.9821 111.604 80.5581 112.95 80.579C112.95 80.579 112.106 81.7645 110.753 81.1718C109.352 80.5581 109.77 79.4354 109.77 79.4354Z" fill="white"/>
<path d="M111.855 86.9599C111.855 86.9599 108.808 87.0227 105.718 84.7981C105.718 84.7981 106.98 88.3407 111.792 88.2012L111.855 86.9599Z" fill="#EB996E"/>
<path d="M99.7 72.4062L100.286 75.8442L102.42 75.8023L102.28 68.6475C102.28 68.6475 110.746 69.296 111.715 65.9138C111.715 65.9138 114.205 69.6586 117.315 69.6447C117.315 69.6447 120.028 69.3657 117.448 65.6C113.473 59.798 99.3374 64.4564 99.3374 64.4564C99.3374 64.4564 98.8562 65.6279 98.8214 67.7479C98.7586 71.4229 99.7 72.4062 99.7 72.4062Z" fill="#263238"/>
<path d="M98.5633 68.9194L117.427 65.1746C117.427 65.1746 116.081 57.6362 105.906 59.8259C96.004 61.9598 98.5633 68.9194 98.5633 68.9194Z" fill="#2CB357"/>
<path d="M98.5635 68.9193C98.8285 68.8705 121.618 69.4075 123.243 66.2484C124.017 64.7422 117.28 64.7003 117.28 64.7003L117.434 65.1745L98.5635 68.9193Z" fill="#5EA646"/>
<path d="M100.544 71.7717C100.44 71.7298 96.9876 71.2835 97.3154 75.3631C97.6431 79.4426 101.653 77.7619 101.646 77.6434C101.646 77.5248 100.544 71.7717 100.544 71.7717Z" fill="#FFBE9D"/>
<path d="M100.286 76.3114C100.265 76.2975 100.216 76.3672 100.105 76.43C99.9932 76.4927 99.791 76.5485 99.5748 76.4858C99.1285 76.3602 98.7171 75.7047 98.6334 74.9725C98.5915 74.6029 98.6403 74.2403 98.7519 73.9404C98.8496 73.6336 99.0309 73.4104 99.2401 73.3546C99.4493 73.2849 99.6166 73.4035 99.6724 73.515C99.7352 73.6266 99.7143 73.7103 99.7422 73.7103C99.7561 73.7173 99.8258 73.6336 99.777 73.4662C99.7561 73.3895 99.7003 73.2919 99.5957 73.2221C99.4911 73.1524 99.3447 73.1245 99.1913 73.1524C98.8775 73.2012 98.6194 73.5081 98.5009 73.8428C98.3614 74.1775 98.2986 74.582 98.3475 75.0004C98.4381 75.8163 98.9193 76.5555 99.526 76.681C99.8189 76.7298 100.049 76.6252 100.168 76.5206C100.286 76.4091 100.3 76.3184 100.286 76.3114Z" fill="#EB996E"/>
<path d="M111.658 63.1133L109.351 63.1576L109.395 65.4654L111.703 65.4211L111.658 63.1133Z" fill="#263238"/>
<path d="M111.631 61.8423L110.473 61.8647L110.496 63.0221L111.653 62.9997L111.631 61.8423Z" fill="#263238"/>
<path d="M146.13 91.6462C146.13 91.6462 142.574 114.324 140.056 114.443C137.19 114.575 128.376 102.079 128.376 102.079C122.734 93.3756 115.293 91.967 112.581 91.7508L112.594 90.6769L99.261 89.582C99.261 89.582 99.282 90.7327 99.2541 91.7299L93.3544 91.7369C93.3544 91.7369 82.7756 91.2557 81.1926 105.461L88.7938 111.472L91.9109 123.069C92.8593 126.612 91.4158 131.13 89.8189 139.066C89.2052 138.92 88.8635 138.843 88.8635 138.843L88.459 146.842C88.4032 147.218 88.3475 147.595 88.2986 147.985H88.4032L85.1815 211.856L68.71 273.718L87.2526 274.409L104.352 214.053C104.352 214.053 105.83 165.796 107.336 165.768C109.868 165.719 111.493 273.119 112.455 272.875C113.424 272.63 132.469 272.826 132.469 272.826C132.469 272.826 126.165 147.706 126.207 147.7L124.575 124.017L123.954 117.169C127.574 122.26 134.408 130.21 141.723 130.07C153.627 129.84 155.3 92.9363 155.3 92.9363L146.13 91.6462Z" fill="#455A64"/>
<path d="M106.653 165.294C106.597 165.252 107.225 164.575 107.762 163.237C108.32 161.905 108.64 159.917 108.661 157.7C108.654 155.531 108.654 153.564 108.654 152.009C108.661 150.552 108.696 149.645 108.745 149.645C108.794 149.645 108.857 150.545 108.912 152.002C108.954 153.46 109.052 155.468 109.031 157.707C109.01 158.822 108.926 159.896 108.752 160.852C108.578 161.814 108.313 162.658 108.006 163.334C107.713 164.018 107.35 164.506 107.113 164.834C106.827 165.147 106.674 165.308 106.653 165.294Z" fill="#263238"/>
<path d="M95.7185 155.154C95.7464 155.154 95.7743 155.384 95.8162 155.81C95.851 156.235 95.8929 156.849 95.9138 157.609C95.9277 159.108 95.8719 161.319 94.7492 163.432C94.1913 164.471 93.4173 165.349 92.5316 165.893C91.653 166.444 90.7255 166.674 89.9444 166.709C89.1634 166.737 88.5428 166.57 88.1453 166.402C87.7478 166.228 87.5665 166.068 87.5734 166.054C87.5944 165.977 88.4242 166.57 89.9235 166.451C90.6557 166.389 91.5274 166.144 92.3433 165.614C93.1592 165.084 93.8845 164.255 94.4214 163.257C95.4954 161.242 95.593 159.094 95.6488 157.602C95.6767 156.103 95.6558 155.161 95.7185 155.154Z" fill="#263238"/>
<path d="M127.553 166.263C127.567 166.277 127.441 166.465 127.092 166.695C126.751 166.919 126.172 167.149 125.426 167.128C124.68 167.128 123.808 166.821 123.034 166.235C122.253 165.656 121.555 164.847 120.935 163.934C119.693 162.093 119.157 160.105 119.01 158.676C118.933 157.958 118.94 157.372 118.961 156.974C118.996 156.57 119.031 156.354 119.052 156.354C119.115 156.354 119.052 157.239 119.261 158.641C119.477 160.029 120.028 161.946 121.235 163.732C121.834 164.617 122.504 165.405 123.229 165.97C123.954 166.535 124.742 166.842 125.433 166.87C126.123 166.919 126.674 166.744 127.016 166.57C127.371 166.396 127.532 166.242 127.553 166.263Z" fill="#263238"/>
<path d="M88.0963 270.308C88.0963 270.406 83.9819 270.343 78.9191 270.155C73.8493 269.973 69.7489 269.743 69.7559 269.639C69.7628 269.541 73.8703 269.604 78.933 269.792C83.9958 269.973 88.1033 270.211 88.0963 270.308Z" fill="#263238"/>
<path d="M131.807 267.519C131.807 267.547 131.535 267.582 131.032 267.623C130.454 267.665 129.749 267.714 128.919 267.777C127.134 267.888 124.666 268.028 121.939 268.153C119.212 268.279 116.744 268.37 114.958 268.418C114.129 268.432 113.417 268.446 112.839 268.46C112.336 268.46 112.064 268.453 112.064 268.425C112.064 268.397 112.336 268.363 112.839 268.321C113.417 268.279 114.122 268.23 114.951 268.167C116.737 268.049 119.198 267.916 121.925 267.791C124.652 267.665 127.113 267.575 128.906 267.526C129.735 267.512 130.447 267.498 131.026 267.484C131.528 267.477 131.807 267.491 131.807 267.519Z" fill="#263238"/>
<path d="M97.6012 166.765C97.6082 166.765 97.6082 166.856 97.6152 167.037C97.6152 167.232 97.6152 167.504 97.6152 167.839C97.6012 168.564 97.5873 169.596 97.5594 170.921C97.5036 173.599 97.3781 177.47 97.1828 182.246C96.9875 187.023 96.7226 192.721 96.346 199.032C96.1577 202.191 95.9485 205.503 95.6626 208.934C95.5161 210.65 95.3767 212.4 95.0768 214.164C94.7839 215.922 94.4004 217.686 94.0238 219.478C90.8439 233.739 87.2664 246.48 84.477 255.636C83.0893 260.218 81.8271 263.879 80.9484 266.403C80.4882 267.644 80.1325 268.614 79.8815 269.297C79.7629 269.611 79.6653 269.862 79.5955 270.043C79.5258 270.211 79.4909 270.294 79.484 270.294C79.477 270.294 79.5049 270.204 79.5607 270.029C79.6234 269.841 79.7071 269.59 79.8117 269.269C80.0488 268.586 80.3835 267.61 80.8159 266.354C81.6527 263.816 82.8731 260.141 84.2329 255.559C86.9596 246.396 90.4882 233.648 93.6681 219.401C94.0447 217.616 94.4283 215.859 94.7211 214.108C95.021 212.365 95.1535 210.622 95.3069 208.906C95.5928 205.482 95.809 202.17 96.0043 199.011C96.3948 192.7 96.6877 187.009 96.9178 182.232C97.127 177.47 97.2944 173.606 97.4129 170.914C97.4687 169.596 97.5036 168.557 97.5385 167.839C97.5524 167.504 97.5663 167.239 97.5803 167.037C97.5873 166.856 97.5942 166.765 97.6012 166.765Z" fill="#263238"/>
<path d="M123.187 267.986C123.18 267.986 123.173 267.902 123.152 267.735C123.138 267.554 123.117 267.303 123.096 266.996C123.054 266.326 122.985 265.371 122.901 264.151C122.755 261.654 122.545 258.091 122.28 253.683C121.785 244.848 121.165 232.637 120.593 219.143C120.021 205.65 119.596 193.425 119.331 184.576C119.212 180.168 119.107 176.591 119.045 174.101C119.017 172.881 119.003 171.926 118.989 171.249C118.989 170.935 118.982 170.691 118.982 170.51C118.982 170.343 118.989 170.259 118.996 170.259C119.003 170.259 119.01 170.343 119.024 170.51C119.038 170.698 119.045 170.942 119.066 171.249C119.094 171.919 119.135 172.874 119.191 174.094C119.289 176.591 119.428 180.161 119.596 184.569C119.944 193.432 120.432 205.643 120.969 219.129C121.541 232.623 122.12 244.834 122.552 253.676C122.762 258.084 122.936 261.654 123.054 264.144C123.11 265.364 123.152 266.319 123.18 266.989C123.187 267.303 123.194 267.547 123.201 267.728C123.194 267.895 123.194 267.986 123.187 267.986Z" fill="#263238"/>
<path d="M107.88 90.2933C107.922 90.2933 107.929 90.9976 107.894 92.1691C107.853 93.3337 107.818 94.9795 107.441 96.8344L107.392 97.0646L107.183 96.953C106.737 96.7229 106.284 96.4718 105.823 96.2068C103.885 95.0771 102.239 93.8986 101.025 93.0897C99.819 92.2738 99.0519 91.7856 99.0798 91.7438C99.1008 91.7019 99.9167 92.1064 101.165 92.8735C102.42 93.6336 104.087 94.7772 106.005 95.893C106.458 96.158 106.911 96.4021 107.343 96.6392L107.085 96.7577C107.469 94.9586 107.553 93.3198 107.657 92.1552C107.755 90.9906 107.832 90.2863 107.88 90.2933Z" fill="#263238"/>
<path d="M112.622 91.8414C112.671 91.8553 112.49 92.5109 112.239 93.5778C112.113 94.1078 111.974 94.7494 111.744 95.4537C111.625 95.8024 111.486 96.165 111.318 96.5346C111.262 96.6392 111.207 96.7508 111.067 96.8414C110.935 96.946 110.67 96.9112 110.565 96.7856C110.37 96.5416 110.356 96.3672 110.251 96.172C109.603 94.6238 109.031 93.2152 108.64 92.1901C108.243 91.165 108.027 90.5164 108.069 90.5025C108.117 90.4816 108.417 91.0952 108.878 92.0924C109.331 93.0897 109.938 94.4844 110.586 96.0325C110.67 96.2138 110.746 96.4579 110.816 96.5276C110.851 96.5555 110.837 96.5485 110.872 96.5346C110.907 96.5137 110.956 96.4509 110.991 96.3812C111.158 96.0325 111.304 95.6838 111.423 95.3491C111.66 94.6726 111.827 94.045 111.988 93.515C112.309 92.4551 112.574 91.8274 112.622 91.8414Z" fill="#263238"/>
<path d="M110.112 139.492C110.098 139.492 110.077 139.317 110.056 138.997C110.035 138.634 110 138.16 109.965 137.567C109.896 136.284 109.805 134.492 109.686 132.302C109.484 127.818 109.212 121.688 108.912 114.917C108.654 108.146 108.417 102.009 108.243 97.525C108.173 95.3283 108.117 93.5361 108.083 92.253C108.069 91.6602 108.062 91.1791 108.055 90.8164C108.055 90.4887 108.055 90.3143 108.069 90.3143C108.083 90.3143 108.104 90.4887 108.124 90.8095C108.145 91.1721 108.18 91.6463 108.215 92.239C108.285 93.5222 108.375 95.3144 108.494 97.5041C108.696 101.988 108.968 108.118 109.268 114.896C109.526 121.667 109.763 127.797 109.938 132.288C110.007 134.485 110.063 136.277 110.098 137.56C110.112 138.153 110.119 138.627 110.126 138.997C110.133 139.317 110.126 139.492 110.112 139.492Z" fill="#263238"/>
<path d="M118.605 104.743L112.197 104.867L112.223 106.191L118.63 106.068L118.605 104.743Z" fill="white"/>
<path d="M124.701 126.381C124.603 126.388 124.191 121.542 123.794 115.558C123.396 109.575 123.152 104.715 123.25 104.708C123.348 104.701 123.759 109.547 124.157 115.531C124.561 121.521 124.805 126.374 124.701 126.381Z" fill="#263238"/>
<path d="M155.112 97.5458C155.091 97.6434 152.936 97.232 150.307 96.6323C147.671 96.0326 145.558 95.4607 145.579 95.3631C145.6 95.2655 147.755 95.6769 150.391 96.2766C153.02 96.8833 155.133 97.4482 155.112 97.5458Z" fill="#263238"/>
<path d="M147.518 93.264C147.881 93.2571 148.174 93.543 148.181 93.9056C148.187 94.2682 147.902 94.5611 147.539 94.5681C147.176 94.5751 146.883 94.2891 146.876 93.9265C146.876 93.5639 147.162 93.271 147.518 93.264Z" fill="#263238"/>
<path d="M118.549 101.781L116.241 101.825L116.286 104.133L118.593 104.089L118.549 101.781Z" fill="#2CB357"/>
<path d="M118.518 100.51L117.361 100.533L117.383 101.69L118.541 101.668L118.518 100.51Z" fill="#2CB357"/>
<path d="M153.097 113.613L152.156 150.845L93.7173 150.552L93.9125 112.811L153.097 113.613Z" fill="#2CB357"/>
<path d="M118.389 150.628C118.292 150.628 118.417 142.316 118.675 132.065C118.933 121.814 119.226 113.508 119.331 113.508C119.429 113.508 119.303 121.821 119.045 132.072C118.787 142.323 118.494 150.628 118.389 150.628Z" fill="#263238"/>
<path d="M93.7172 150.552C93.7103 150.545 93.787 150.405 93.9474 150.154C94.1356 149.875 94.3727 149.513 94.6726 149.059C95.3421 148.083 96.2695 146.737 97.3993 145.091C99.7493 141.723 102.964 137.135 106.507 132.065C110.07 126.981 113.278 122.365 115.565 119.01C116.709 117.33 117.623 115.963 118.25 115.015C118.543 114.561 118.78 114.199 118.968 113.92C119.136 113.669 119.226 113.543 119.24 113.55C119.254 113.557 119.178 113.697 119.031 113.955C118.864 114.247 118.641 114.624 118.369 115.084C117.776 116.054 116.897 117.448 115.775 119.15C113.536 122.546 110.363 127.183 106.8 132.274C103.236 137.358 99.9795 141.932 97.6085 145.238C96.4369 146.863 95.4815 148.181 94.7842 149.143C94.4634 149.575 94.2054 149.924 94.0032 150.196C93.8288 150.44 93.7312 150.559 93.7172 150.552Z" fill="#263238"/>
<path d="M117.811 150.928C117.727 150.984 112.344 142.588 105.796 132.19C99.2404 121.786 94.0032 113.306 94.0869 113.257C94.1706 113.201 99.5542 121.591 106.102 132.002C112.657 142.393 117.902 150.873 117.811 150.928Z" fill="#263238"/>
<path d="M124.446 146.459L133.822 146.696L133.871 144.772L124.494 144.535L124.446 146.459Z" fill="#263238"/>
<path d="M124.958 142.978C124.958 142.881 127.016 142.797 129.547 142.804C132.085 142.811 134.136 142.895 134.136 142.992C134.136 143.09 132.078 143.174 129.547 143.167C127.016 143.167 124.958 143.083 124.958 142.978Z" fill="#263238"/>
<path d="M141.284 113.313L140.921 127.685L138.906 126.061L136.27 127.567L136.632 113.194L141.284 113.313Z" fill="#263238"/>
<path d="M92.7334 109.519C92.7334 109.519 89.8952 129.282 91.2411 130.412C98.6609 136.653 108.975 139.924 112.664 140.956C113.201 140.831 113.835 140.656 114.554 140.426C115.181 140.231 115.767 139.917 116.29 139.52C116.925 139.038 117.741 138.362 118.075 137.86C118.487 137.232 119.449 137.435 119.484 138.111C119.519 138.794 118.424 140.552 116.374 141.835C116.374 141.835 121.102 149.443 122.608 150.126C124.114 150.81 128.424 152.755 127.699 153.125C126.974 153.502 121.715 151.967 121.715 151.967L111.074 149.122C111.074 149.122 75.8714 143.606 78.2145 127.455C79.6511 117.56 81.2201 108.634 81.785 106.381L92.7334 109.519Z" fill="#FFBE9D"/>
<path d="M81.1925 105.468L78.0335 127.03C77.3013 133.669 81.7504 138.941 87.7337 141.911C96.8412 146.423 110.363 149.645 110.251 149.624C110.07 149.589 111.165 140.001 111.165 140.001C111.165 140.001 92.2107 131.786 91.611 128.264C91.0183 124.736 94.0239 109.987 94.0239 109.987L81.1925 105.468Z" fill="#455A64"/>
<path d="M110.258 149.617C110.251 149.617 110.251 149.561 110.258 149.443C110.265 149.31 110.279 149.143 110.286 148.948C110.321 148.481 110.37 147.839 110.433 147.03C110.579 145.335 110.788 142.937 111.046 139.98L111.116 140.105C108.396 138.787 105.168 137.225 101.583 135.489C100.684 135.049 99.763 134.603 98.8286 134.143C97.9011 133.655 96.9736 133.111 96.0531 132.518C95.1396 131.925 94.233 131.27 93.3613 130.545C92.929 130.182 92.5036 129.798 92.0921 129.394C91.9039 129.206 91.6528 128.962 91.5412 128.669C91.4715 128.529 91.4157 128.383 91.3878 128.236C91.346 128.09 91.3111 127.943 91.2902 127.797C90.9833 125.44 91.611 123.215 91.9387 121.095C92.3083 118.962 92.664 116.904 92.9987 114.945C93.6821 111.033 94.3028 107.511 94.8188 104.533C95.0838 103.055 95.3139 101.716 95.3 100.53C95.3 99.345 95.0419 98.3408 94.6863 97.5876C94.3306 96.8345 93.8913 96.3394 93.5705 96.0465C93.2428 95.7536 93.0405 95.635 93.0545 95.6211C93.0545 95.6211 93.2707 95.7117 93.6193 95.9907C93.961 96.2696 94.4283 96.7648 94.8118 97.5249C95.1954 98.285 95.4813 99.3171 95.5022 100.523C95.5371 101.73 95.3209 103.097 95.0698 104.575C94.5747 107.553 93.982 111.081 93.3265 115.001C92.9917 116.96 92.643 119.024 92.2804 121.158C92.1898 121.695 92.0921 122.232 92.0015 122.776C91.8899 123.313 91.7992 123.857 91.7225 124.401C91.5831 125.496 91.4715 126.632 91.6389 127.734C91.6528 127.874 91.6877 128.006 91.7225 128.139C91.7504 128.271 91.7993 128.397 91.855 128.515C91.9527 128.759 92.127 128.927 92.3362 129.136C92.7407 129.533 93.1521 129.91 93.5775 130.266C94.4283 130.977 95.3209 131.625 96.2275 132.218C97.134 132.804 98.0545 133.341 98.968 133.836C99.9025 134.296 100.823 134.75 101.716 135.189C105.286 136.953 108.501 138.536 111.207 139.875L111.29 139.917L111.283 140.001C110.976 142.951 110.732 145.349 110.558 147.037C110.467 147.846 110.398 148.481 110.342 148.948C110.314 149.15 110.293 149.31 110.279 149.443C110.272 149.561 110.265 149.617 110.258 149.617Z" fill="#263238"/>
<path d="M108.501 138.676C108.549 138.683 108.508 139.248 108.389 140.147C108.27 141.047 108.082 142.288 107.831 143.655C107.573 145.022 107.294 146.249 107.057 147.128C106.82 148.006 106.639 148.543 106.59 148.529C106.492 148.501 106.973 146.312 107.475 143.592C107.971 140.865 108.396 138.655 108.501 138.676Z" fill="#263238"/>
<path d="M110.258 149.617C110.258 149.631 110.139 149.61 109.923 149.561C109.665 149.499 109.358 149.429 108.989 149.338C108.124 149.115 106.966 148.808 105.558 148.446C102.671 147.665 98.6609 146.647 94.3582 145.064C92.2104 144.269 90.209 143.383 88.4656 142.441C86.7152 141.5 85.2229 140.51 84.0304 139.589C82.838 138.676 81.9593 137.832 81.3735 137.232C81.0806 136.932 80.8644 136.688 80.725 136.521C80.5785 136.354 80.5088 136.263 80.5227 136.249C80.5437 136.228 80.8644 136.563 81.4781 137.135C82.0918 137.699 82.9914 138.508 84.1908 139.387C85.3903 140.273 86.8826 141.228 88.626 142.149C90.3694 143.069 92.3568 143.941 94.4907 144.729C98.7655 146.298 102.761 147.358 105.634 148.202C107.029 148.613 108.173 148.955 109.031 149.206C109.393 149.324 109.7 149.415 109.951 149.499C110.153 149.561 110.258 149.603 110.258 149.617Z" fill="#263238"/>
<path d="M110.489 140.984C110.496 141.319 110.224 141.598 109.889 141.605C109.554 141.612 109.275 141.34 109.268 141.005C109.261 140.67 109.533 140.391 109.868 140.384C110.21 140.377 110.489 140.642 110.489 140.984Z" fill="#263238"/>
<path d="M274.82 39.6864H197.86V277.407H274.82V39.6864Z" fill="#E0E0E0"/>
<path d="M248.363 41.5066V266.78L285.176 277.407L285.302 41.5066H248.363Z" fill="#455A64"/>
<path d="M252.896 150.719C252.966 152.483 252.289 153.941 251.383 153.976C250.476 154.011 249.681 152.616 249.611 150.852C249.542 149.087 250.218 147.63 251.125 147.595C252.031 147.553 252.826 148.955 252.896 150.719Z" fill="white"/>
<path d="M251.201 149.401L258.454 150.371C258.844 150.419 259.137 150.747 259.151 151.138C259.172 151.647 258.719 152.051 258.21 151.961L251.257 150.782L251.201 149.401Z" fill="white"/>
<path d="M188.878 31.2764V39.0588V41.5066V277.407H200.957V41.5066H271.884V277.407H285.176V41.5066V39.0588V31.2764H188.878Z" fill="#263238"/>
<path d="M200.957 41.5066H194.917V277.407H200.957V41.5066Z" fill="#263238"/>
<path opacity="0.5" d="M200.957 41.5066H194.917V277.407H200.957V41.5066Z" fill="black"/>
<path d="M285.295 31.2764H279.256V277.407H285.295V31.2764Z" fill="#263238"/>
<path opacity="0.5" d="M285.295 31.2764H279.256V277.407H285.295V31.2764Z" fill="black"/>
<path d="M245.308 16.9178H225.461V21.346H245.308V16.9178Z" fill="#455A64"/>
<path d="M237.672 78.5151C237.889 83.034 241.18 86.7021 245.28 87.7063C247.435 88.2363 249.918 87.9852 251.626 89.4357C254.555 91.9183 252.84 97.0717 254.82 100.398C256.034 102.448 258.447 103.453 259.813 105.398C262.087 108.634 260.56 113.515 257.463 115.921C254.367 118.327 250.239 118.787 246.354 118.69C237.812 118.467 229.067 115.754 222.888 109.701C219.987 106.856 210.587 96.0466 214.855 80.4538" fill="#263238"/>
<path d="M206.821 101.444C206.821 101.444 191.877 114.443 191.487 112.86C189.387 104.254 189.98 93.2781 190.315 89.073C190.552 88.7104 190.817 88.3129 191.138 87.8736C191.507 87.3645 191.961 86.9252 192.477 86.5695C193.097 86.1372 193.955 85.5863 194.506 85.4329C195.196 85.2376 195.308 84.3171 194.708 84.1009C194.109 83.8778 192.198 84.3729 190.427 85.8582C188.655 87.3436 189.374 83.822 189.618 82.5319C189.855 81.2418 190.413 77.232 190.071 76.8554C189.576 76.3045 188.871 76.7438 188.662 78.0339C188.453 79.338 187.553 83.1595 186.877 83.013C186.215 82.8736 187.519 76.3324 187.519 76.3324C187.519 76.3324 188.028 74.9725 187.254 74.7843C185.859 74.4426 184.973 81.4789 184.91 82.1553C184.862 82.6225 184.122 82.497 184.199 81.9949C184.276 81.4789 185.657 75.5025 184.241 75.1399C183.153 74.861 183.46 80.928 182.484 82.0228C181.507 83.1246 182.721 77.3924 181.668 77.1692C181.277 77.0855 180.97 77.0786 180.754 80.4607C180.636 82.2738 180.838 85.7397 181.054 88.6198C180.127 97.9015 178.307 126.312 191.145 125.335C206.291 124.178 209.778 112.239 209.778 112.239L206.821 101.444Z" fill="#B78876"/>
<path d="M218.76 97.2181C218.983 96.0257 218.592 90.9838 218.592 90.9838C218.592 90.9838 214.129 90.4189 213.934 85.8652C213.739 81.3045 214.192 70.8093 214.192 70.8093L222.414 66.8623L231.256 73.9893L229.722 97.1484L218.76 97.2181Z" fill="#B78876"/>
<path d="M214.952 78.4803C214.945 78.8011 215.196 79.0661 215.51 79.073C215.824 79.08 216.082 78.822 216.089 78.5012C216.096 78.1804 215.845 77.9154 215.531 77.9085C215.217 77.9015 214.959 78.1595 214.952 78.4803Z" fill="#263238"/>
<path d="M214.415 77.8387C214.485 77.9154 214.911 77.5598 215.524 77.5319C216.138 77.497 216.591 77.8178 216.654 77.7341C216.689 77.6993 216.612 77.5598 216.417 77.4133C216.222 77.2669 215.894 77.1344 215.51 77.1483C215.127 77.1693 214.813 77.3297 214.632 77.4901C214.443 77.6574 214.381 77.8039 214.415 77.8387Z" fill="#263238"/>
<path d="M221.535 78.5987C221.528 78.9195 221.779 79.1845 222.093 79.1915C222.407 79.1984 222.665 78.9404 222.672 78.6196C222.679 78.2988 222.428 78.0338 222.114 78.0269C221.8 78.0199 221.542 78.2709 221.535 78.5987Z" fill="#263238"/>
<path d="M221.194 77.9573C221.263 78.034 221.689 77.6783 222.303 77.6504C222.916 77.6156 223.369 77.9363 223.432 77.8527C223.46 77.8178 223.39 77.6783 223.195 77.5319C223 77.3854 222.672 77.2529 222.289 77.2669C221.905 77.2878 221.591 77.4482 221.41 77.6086C221.222 77.7759 221.159 77.9224 221.194 77.9573Z" fill="#263238"/>
<path d="M218.893 83.2152C218.893 83.1803 218.516 83.1246 217.895 83.0618C217.742 83.0479 217.589 83.0269 217.561 82.9084C217.519 82.7898 217.582 82.6085 217.658 82.4063C217.798 81.9948 217.944 81.5625 218.098 81.1162C218.711 79.2752 219.151 77.7689 219.081 77.741C219.011 77.7131 218.46 79.1915 217.847 81.0255C217.7 81.4788 217.561 81.9112 217.421 82.3226C217.365 82.5179 217.268 82.734 217.351 82.9851C217.393 83.1106 217.512 83.1943 217.609 83.2222C217.707 83.2501 217.798 83.2501 217.874 83.2501C218.509 83.264 218.893 83.2501 218.893 83.2152Z" fill="#263238"/>
<path d="M220.901 83.8429C221.529 83.4315 219.171 84.8541 217.93 84.8332C217.93 84.8332 218.683 85.9838 219.946 85.4608C221.264 84.9168 220.901 83.8429 220.901 83.8429Z" fill="white"/>
<path d="M218.593 90.9908C218.593 90.9908 221.577 91.0745 224.506 89.0521C224.506 89.0521 223.119 92.3715 218.669 92.1065L218.593 90.9908Z" fill="#A36957"/>
<path d="M237.672 78.5918C237.63 78.271 237.589 77.7828 237.54 77.2738C237.47 76.5695 237.393 75.8233 237.296 75.4258C235.036 65.886 226.94 63.9752 225.329 63.9473C223.607 63.9195 220.601 62.8943 216.124 67.5039C211.647 72.1203 213.969 77.204 213.969 77.204L214.722 76.5206L221.243 74.9167C220.761 73.1106 221.556 70.893 222.003 69.8609L222.045 69.8191C223.223 76.6601 230.524 77.49 230.524 77.49L229.834 95.6281C237.024 94.1846 237.589 82.5179 237.575 78.5709L237.672 78.5918Z" fill="#263238"/>
<path d="M240.497 159.967C240.504 159.876 240.518 159.785 240.525 159.729C240.518 159.771 240.511 159.848 240.497 159.967Z" fill="#B78876"/>
<path d="M240.476 160.176C240.483 160.092 240.49 160.022 240.497 159.966C240.483 160.078 240.476 160.176 240.476 160.176Z" fill="#B78876"/>
<path d="M248.99 270.525C248.99 270.525 232.156 213.774 231.835 211.961C231.542 210.322 239.339 170.51 240.476 160.182L216.807 160.405C216.807 160.405 216.807 160.468 216.8 160.58L205.364 160.894L211.089 274.283L223.621 274.604L223.432 237.331C229.639 255.531 237.491 276.089 237.491 276.089L248.99 270.525Z" fill="#B78876"/>
<path d="M240.524 159.709C240.532 159.687 240.532 159.687 240.524 159.709V159.709Z" fill="#B78876"/>
<path d="M215.901 209.409C215.936 209.415 215.866 209.848 215.831 210.65C215.789 211.445 215.775 212.595 215.894 214.018C216.012 215.434 216.27 217.114 216.731 218.934C217.163 220.761 217.958 222.672 218.739 224.715C220.301 228.788 221.689 232.484 222.679 235.162C223.153 236.466 223.544 237.54 223.837 238.342C224.102 239.095 224.241 239.513 224.213 239.527C224.192 239.534 224.011 239.13 223.704 238.397C223.383 237.603 222.958 236.543 222.442 235.259C221.389 232.602 219.959 228.92 218.404 224.848C218.014 223.83 217.637 222.833 217.275 221.87C216.919 220.901 216.64 219.939 216.41 219.018C215.964 217.17 215.734 215.469 215.643 214.039C215.552 212.602 215.608 211.438 215.699 210.643C215.74 210.245 215.789 209.938 215.831 209.729C215.859 209.513 215.887 209.402 215.901 209.409Z" fill="#A36957"/>
<path d="M223.495 250.866C223.516 250.524 223.711 238.23 223.711 238.23C223.711 238.23 219.59 226.835 219.485 227.177C219.381 227.526 223.495 250.866 223.495 250.866Z" fill="#A36957"/>
<path d="M237.916 275.887L248.99 270.525L250.273 272.903L246.361 275.113C243.69 276.571 234.611 281.32 232.463 281.71C230.071 282.142 237.916 275.887 237.916 275.887Z" fill="#E8505B"/>
<path d="M231.961 281.382C231.912 281.299 235.957 279.297 240.992 276.919C246.033 274.534 250.155 272.672 250.204 272.756C250.252 272.84 246.215 274.841 241.173 277.219C236.138 279.604 232.01 281.466 231.961 281.382Z" fill="#263238"/>
<path d="M247.386 274.179C247.331 274.172 247.31 273.969 247.337 273.635C247.365 273.307 247.435 272.833 247.693 272.359C247.951 271.877 248.384 271.536 248.746 271.389C249.116 271.243 249.367 271.278 249.374 271.313C249.381 271.368 249.165 271.424 248.886 271.598C248.607 271.773 248.272 272.087 248.049 272.505C247.819 272.93 247.707 273.363 247.616 273.677C247.519 273.983 247.442 274.186 247.386 274.179Z" fill="#263238"/>
<path d="M237.316 276.396C237.302 276.501 237.658 276.633 238.097 276.773C238.537 276.912 238.906 277.017 238.969 276.933C239.025 276.85 238.718 276.585 238.237 276.431C237.763 276.271 237.33 276.299 237.316 276.396Z" fill="#263238"/>
<path d="M236.556 276.996C236.528 277.094 236.849 277.282 237.282 277.422C237.707 277.554 238.098 277.589 238.139 277.498C238.188 277.408 237.867 277.219 237.414 277.073C236.975 276.933 236.584 276.898 236.556 276.996Z" fill="#263238"/>
<path d="M235.936 277.54C235.894 277.631 236.124 277.812 236.438 277.972C236.751 278.133 237.037 278.223 237.107 278.14C237.177 278.063 236.982 277.826 236.64 277.651C236.305 277.477 235.977 277.449 235.936 277.54Z" fill="#263238"/>
<path d="M237.372 276.487C237.421 276.48 237.435 276.034 237.254 275.329C237.156 274.981 236.996 274.555 236.675 274.144C236.515 273.942 236.319 273.739 236.075 273.565C235.957 273.481 235.824 273.398 235.65 273.335C235.476 273.272 235.252 273.251 235.043 273.342C234.59 273.572 234.674 274.053 234.834 274.29C235.001 274.541 235.176 274.723 235.35 274.911C235.706 275.274 236.061 275.566 236.382 275.797C237.017 276.25 237.456 276.459 237.484 276.424C237.519 276.382 237.142 276.096 236.57 275.608C236.285 275.364 235.964 275.064 235.643 274.702C235.49 274.527 235.308 274.318 235.19 274.13C235.064 273.949 235.099 273.725 235.232 273.677C235.378 273.607 235.615 273.705 235.824 273.851C236.034 273.99 236.215 274.165 236.361 274.339C236.661 274.695 236.842 275.078 236.968 275.399C237.219 276.062 237.303 276.501 237.372 276.487Z" fill="#263238"/>
<path d="M237.372 276.278C237.4 276.243 237.017 275.943 236.278 275.601C235.908 275.434 235.441 275.266 234.897 275.169C234.625 275.12 234.332 275.092 234.018 275.099C233.865 275.106 233.704 275.113 233.523 275.155C233.432 275.183 233.342 275.211 233.244 275.287C233.146 275.357 233.084 275.504 233.098 275.615C233.188 276.041 233.502 276.194 233.767 276.354C234.046 276.501 234.339 276.577 234.618 276.626C235.176 276.71 235.664 276.696 236.082 276.675C236.926 276.619 237.379 276.333 237.345 276.292C237.317 276.25 236.863 276.431 236.068 276.417C235.678 276.41 235.19 276.389 234.695 276.299C234.45 276.25 234.199 276.173 233.976 276.047C233.76 275.943 233.53 275.734 233.516 275.594C233.453 275.552 233.767 275.441 234.039 275.455C234.311 275.448 234.583 275.462 234.834 275.504C235.343 275.573 235.789 275.706 236.159 275.838C236.898 276.103 237.338 276.319 237.372 276.278Z" fill="#263238"/>
<path d="M238.132 275.769C238.202 275.873 240.768 274.89 243.76 273.419C246.752 271.954 249.06 270.615 248.983 270.518C248.899 270.413 246.466 271.585 243.488 273.042C240.503 274.513 238.063 275.664 238.132 275.769Z" fill="#263238"/>
<path d="M212.498 274.144L223.607 274.221L223.425 277.442L222.7 277.449C219.478 277.442 206.305 277.212 204.185 276.536C201.828 275.783 212.498 274.144 212.498 274.144Z" fill="#E8505B"/>
<path d="M203.948 276.027C203.955 275.929 208.321 276.096 213.69 276.403C219.067 276.703 223.418 277.031 223.411 277.121C223.404 277.219 219.046 277.052 213.669 276.745C208.293 276.445 203.941 276.117 203.948 276.027Z" fill="#263238"/>
<path d="M219.904 276.884C219.862 276.856 219.966 276.668 220.189 276.396C220.413 276.131 220.761 275.762 221.277 275.476C221.8 275.19 222.379 275.099 222.791 275.148C223.202 275.197 223.404 275.343 223.383 275.378C223.362 275.427 223.132 275.371 222.784 275.392C222.435 275.406 221.954 275.518 221.501 275.769C221.04 276.02 220.685 276.333 220.413 276.557C220.127 276.787 219.945 276.919 219.904 276.884Z" fill="#263238"/>
<path d="M211.668 274.29C211.591 274.367 211.828 274.653 212.128 274.974C212.428 275.301 212.686 275.559 212.798 275.518C212.902 275.476 212.791 275.106 212.463 274.751C212.128 274.395 211.738 274.221 211.668 274.29Z" fill="#263238"/>
<path d="M210.636 274.451C210.552 274.52 210.719 274.834 211.012 275.148C211.305 275.462 211.619 275.671 211.717 275.615C211.814 275.559 211.647 275.246 211.34 274.918C211.04 274.59 210.719 274.381 210.636 274.451Z" fill="#263238"/>
<path d="M209.757 274.618C209.66 274.681 209.757 274.939 209.939 275.218C210.113 275.497 210.315 275.713 210.427 275.671C210.538 275.636 210.503 275.343 210.315 275.043C210.12 274.743 209.855 274.562 209.757 274.618Z" fill="#263238"/>
<path d="M211.654 274.395C211.696 274.409 211.982 274.046 212.254 273.356C212.386 273.014 212.498 272.575 212.47 272.08C212.456 271.829 212.407 271.57 212.296 271.312C212.24 271.187 212.177 271.047 212.065 270.915C211.947 270.782 211.766 270.657 211.528 270.643C210.991 270.629 210.775 271.075 210.768 271.347C210.761 271.64 210.803 271.87 210.845 272.114C210.936 272.589 211.075 273.007 211.208 273.342C211.487 274.018 211.745 274.402 211.8 274.388C211.856 274.367 211.703 273.948 211.501 273.265C211.403 272.923 211.298 272.519 211.236 272.066C211.208 271.842 211.173 271.584 211.187 271.368C211.187 271.159 211.354 270.985 211.494 270.999C211.661 271.006 211.814 271.201 211.905 271.424C212.003 271.64 212.051 271.87 212.079 272.094C212.128 272.533 212.051 272.944 211.968 273.279C211.78 273.962 211.591 274.374 211.654 274.395Z" fill="#263238"/>
<path d="M211.786 274.214C211.835 274.193 211.682 273.76 211.235 273.133C211.012 272.819 210.705 272.463 210.287 272.122C210.078 271.954 209.834 271.794 209.562 271.654C209.422 271.585 209.276 271.515 209.094 271.473C209.004 271.452 208.899 271.438 208.767 271.459C208.641 271.473 208.495 271.564 208.439 271.668C208.258 272.073 208.439 272.352 208.578 272.603C208.732 272.854 208.941 273.063 209.157 273.23C209.597 273.565 210.029 273.781 210.413 273.956C211.18 274.304 211.758 274.269 211.751 274.221C211.751 274.172 211.249 274.116 210.559 273.732C210.217 273.544 209.806 273.3 209.429 272.993C209.241 272.833 209.074 272.659 208.948 272.449C208.83 272.261 208.746 271.975 208.816 271.85C208.788 271.787 209.129 271.843 209.359 271.975C209.604 272.094 209.827 272.233 210.029 272.387C210.433 272.686 210.74 273.007 210.991 273.286C211.479 273.844 211.731 274.242 211.786 274.214Z" fill="#263238"/>
<path d="M212.763 274.144C212.756 274.242 215.141 274.465 218.097 274.5C221.054 274.534 223.439 274.409 223.439 274.311C223.439 274.207 221.047 274.165 218.104 274.137C215.155 274.102 212.77 274.039 212.763 274.144Z" fill="#263238"/>
<path d="M246.473 121.019C246.473 121.019 246.933 119.324 245.643 108.892C245.078 104.352 241.989 101.542 238.684 99.8122V99.7494L238.398 99.6657C234.186 97.5528 229.73 97.1413 229.73 97.1413L218.021 96.953C218.021 96.953 209.451 95.8861 203.99 101.828C198.53 107.769 194.806 111.277 194.806 111.277L203.53 121.758L205.866 119.443C205.866 119.443 205.622 124.268 207.219 127.072C208.816 129.882 210.985 133.711 210.985 133.711L208.488 145.412C206.94 149.868 201.835 166.165 203.837 182.309C206.312 202.302 206.71 208.146 206.71 208.146L234.981 212.009C234.981 212.009 246.278 169.68 242.408 152.867C239.751 141.312 237.721 141.856 237.066 139.352L237.798 121.36L246.473 121.019Z" fill="#E8505B"/>
<path d="M208.091 115.559C208.175 115.607 207.721 116.535 207.073 117.63C206.424 118.725 205.832 119.568 205.741 119.519C205.657 119.471 206.11 118.543 206.759 117.448C207.408 116.354 208 115.51 208.091 115.559Z" fill="#263238"/>
<path d="M233.426 137.421C233.426 137.448 233.105 137.511 232.526 137.602C231.94 137.699 231.097 137.804 230.044 137.916C227.945 138.132 225.023 138.306 221.794 138.257C218.565 138.195 215.65 137.916 213.558 137.623C212.512 137.476 211.668 137.337 211.09 137.225C210.511 137.114 210.19 137.037 210.197 137.016C210.204 136.988 210.525 137.016 211.11 137.086C211.766 137.163 212.596 137.26 213.593 137.372C215.685 137.602 218.586 137.839 221.801 137.895C225.016 137.951 227.924 137.818 230.023 137.665C231.02 137.588 231.85 137.518 232.512 137.469C233.098 137.414 233.426 137.393 233.426 137.421Z" fill="#263238"/>
<path d="M242.958 169.101C242.972 169.101 242.93 169.297 242.847 169.659C242.749 170.057 242.624 170.58 242.463 171.242C242.379 171.591 242.282 171.968 242.177 172.386C242.059 172.797 241.905 173.244 241.752 173.718C241.431 174.666 241.117 175.775 240.601 176.933C240.364 177.518 240.113 178.132 239.848 178.774C239.583 179.408 239.241 180.043 238.921 180.719C238.3 182.079 237.477 183.439 236.647 184.897C234.883 187.742 232.714 190.733 230.106 193.599C227.47 196.431 224.667 198.844 221.975 200.838C220.594 201.786 219.304 202.721 218 203.446C217.358 203.823 216.752 204.213 216.138 204.534C215.524 204.848 214.932 205.148 214.367 205.434C213.251 206.04 212.177 206.438 211.257 206.842C210.789 207.037 210.364 207.226 209.959 207.379C209.555 207.519 209.185 207.644 208.844 207.756C208.195 207.972 207.686 208.139 207.296 208.272C206.94 208.383 206.752 208.439 206.752 208.425C206.745 208.411 206.926 208.335 207.275 208.202C207.651 208.056 208.16 207.867 208.795 207.623C209.13 207.498 209.499 207.365 209.897 207.219C210.294 207.058 210.713 206.856 211.173 206.654C212.079 206.236 213.146 205.817 214.248 205.203C214.806 204.911 215.392 204.604 215.999 204.283C216.605 203.962 217.205 203.565 217.84 203.188C219.13 202.456 220.406 201.514 221.773 200.566C224.437 198.572 227.212 196.166 229.834 193.355C232.421 190.51 234.583 187.546 236.354 184.729C237.191 183.286 238.014 181.94 238.642 180.594C238.962 179.931 239.311 179.304 239.583 178.669C239.848 178.035 240.106 177.428 240.35 176.849C240.873 175.698 241.201 174.604 241.543 173.662C241.703 173.188 241.87 172.756 241.996 172.344C242.107 171.933 242.212 171.556 242.31 171.214C242.498 170.559 242.644 170.043 242.756 169.652C242.882 169.283 242.944 169.101 242.958 169.101Z" fill="#263238"/>
<path d="M246.027 114.924C246.034 114.938 245.88 115.022 245.587 115.182C245.295 115.335 244.855 115.565 244.283 115.837C243.14 116.367 241.452 117.183 239.172 117.525C238.035 117.678 236.752 117.671 235.441 117.316C234.785 117.141 234.123 116.87 233.509 116.472C232.889 116.081 232.345 115.558 231.857 114.973C230.887 113.787 230.183 112.358 229.353 110.97C228.537 109.603 227.477 108.187 225.866 107.65C224.262 107.1 222.561 107.518 221.02 107.95C219.465 108.397 217.937 108.913 216.396 108.948C214.855 109.003 213.411 108.48 212.296 107.706C211.173 106.932 210.364 105.893 209.911 104.826C209.451 103.759 209.346 102.692 209.395 101.786C209.451 100.872 209.674 100.105 209.918 99.5193C210.427 98.3338 210.971 97.8527 210.971 97.8527C211.013 97.8806 210.51 98.3966 210.05 99.5751C209.827 100.161 209.639 100.914 209.597 101.8C209.569 102.685 209.688 103.71 210.148 104.729C210.594 105.74 211.382 106.73 212.463 107.462C213.537 108.194 214.918 108.683 216.382 108.62C217.854 108.578 219.353 108.069 220.922 107.616C221.71 107.392 222.526 107.176 223.377 107.079C224.227 106.981 225.134 107.016 225.985 107.316C226.836 107.609 227.582 108.132 228.174 108.759C228.774 109.387 229.241 110.091 229.66 110.796C230.497 112.204 231.187 113.627 232.115 114.77C233.028 115.921 234.248 116.702 235.518 117.03C236.78 117.386 238.028 117.406 239.137 117.274C241.368 116.974 243.063 116.2 244.221 115.712C244.771 115.468 245.218 115.273 245.553 115.119C245.859 114.98 246.027 114.91 246.027 114.924Z" fill="white"/>
<path d="M229.423 139.624C229.374 139.596 229.772 139.269 229.918 138.446C230.079 137.651 229.835 136.354 228.83 135.273C228.342 134.722 227.624 134.324 226.815 134.018C225.999 133.718 225.072 133.55 224.095 133.425C223.112 133.292 222.066 133.216 220.985 132.985C219.918 132.748 218.795 132.386 217.854 131.64C217.387 131.27 216.989 130.81 216.696 130.315C216.403 129.813 216.194 129.29 216.006 128.773C215.643 127.741 215.364 126.737 214.869 125.9C213.886 124.213 212.073 123.418 210.629 123.39C209.144 123.355 208.014 123.962 207.366 124.45C206.703 124.952 206.431 125.349 206.403 125.322C206.396 125.315 206.452 125.217 206.592 125.036C206.731 124.861 206.947 124.61 207.282 124.338C207.931 123.808 209.074 123.139 210.643 123.132C212.171 123.125 214.095 123.927 215.169 125.726C215.699 126.612 215.992 127.637 216.355 128.648C216.71 129.659 217.198 130.67 218.091 131.347C218.963 132.037 220.037 132.393 221.069 132.63C222.115 132.86 223.154 132.951 224.144 133.09C226.111 133.334 227.98 133.899 229.026 135.098C230.065 136.27 230.267 137.644 230.058 138.474C229.967 138.899 229.779 139.192 229.66 139.373C229.514 139.548 229.43 139.631 229.423 139.624Z" fill="white"/>
<path d="M240.378 189.15C240.378 189.206 239.374 188.934 237.589 189.269C236.703 189.422 235.643 189.736 234.402 190.106C233.174 190.461 231.731 190.88 230.085 190.88C228.453 190.915 226.64 190.622 224.869 189.862C223.105 189.101 221.361 187.839 220.141 186.026C218.921 184.213 218.356 181.849 218.628 179.492C218.767 178.313 219.116 177.135 219.702 176.054C220.28 174.973 221.152 174.018 222.163 173.285C223.153 172.553 224.227 171.898 224.75 170.873C225.008 170.371 225.078 169.792 224.981 169.241C224.89 168.683 224.667 168.146 224.423 167.63C223.928 166.605 223.349 165.531 223.258 164.366C223.133 163.216 223.335 162.079 223.746 161.061C224.562 158.997 226.271 157.56 228.028 156.786C229.799 155.97 231.64 155.824 233.258 155.852C234.883 155.866 236.347 155.935 237.603 155.726C238.858 155.524 239.89 155.071 240.615 154.548C241.347 154.025 241.773 153.453 241.989 153.034C242.212 152.616 242.268 152.365 242.289 152.372C242.289 152.372 242.261 152.63 242.052 153.062C241.85 153.495 241.431 154.101 240.699 154.652C239.967 155.203 238.921 155.691 237.637 155.914C236.354 156.145 234.869 156.096 233.258 156.096C231.654 156.089 229.862 156.249 228.153 157.051C226.459 157.818 224.827 159.206 224.06 161.179C223.669 162.149 223.488 163.237 223.607 164.324C223.697 165.426 224.241 166.417 224.75 167.477C225.001 168.007 225.239 168.571 225.343 169.185C225.448 169.799 225.371 170.468 225.078 171.04C224.478 172.198 223.349 172.86 222.379 173.585C220.371 174.987 219.227 177.267 218.976 179.541C218.711 181.814 219.248 184.094 220.413 185.845C221.584 187.609 223.265 188.836 224.981 189.597C226.703 190.35 228.474 190.657 230.071 190.636C231.682 190.65 233.098 190.259 234.339 189.924C235.573 189.576 236.654 189.283 237.554 189.143C238.453 188.997 239.172 188.997 239.646 189.046C240.134 189.081 240.378 189.15 240.378 189.15Z" fill="white"/>
<path d="M230.511 211.389C230.483 211.389 230.546 210.901 230.567 210.029C230.56 209.171 230.581 207.853 229.932 206.459C229.611 205.775 229.04 205.106 228.238 204.743C227.436 204.353 226.445 204.325 225.42 204.325C224.395 204.318 223.252 204.388 222.15 203.92C221.606 203.683 221.118 203.293 220.734 202.825C220.351 202.358 220.051 201.828 219.772 201.298C219.235 200.217 218.733 199.185 217.987 198.362C217.261 197.526 216.397 196.877 215.504 196.389C213.705 195.413 211.787 195.224 210.267 195.454C208.733 195.664 207.575 196.228 206.829 196.668C206.083 197.121 205.727 197.449 205.699 197.421C205.692 197.414 205.776 197.323 205.943 197.17C206.118 197.016 206.383 196.793 206.745 196.549C207.477 196.061 208.642 195.454 210.218 195.203C211.773 194.931 213.774 195.099 215.65 196.096C216.578 196.591 217.484 197.261 218.245 198.132C218.621 198.565 218.97 199.046 219.263 199.555C219.556 200.071 219.814 200.608 220.086 201.131C220.616 202.184 221.278 203.167 222.282 203.593C223.279 204.025 224.381 203.976 225.413 203.99C226.445 204.004 227.484 204.039 228.356 204.471C229.228 204.883 229.835 205.622 230.155 206.354C230.804 207.839 230.734 209.171 230.699 210.043C230.671 210.482 230.623 210.824 230.581 211.047C230.553 211.277 230.525 211.396 230.511 211.389Z" fill="white"/>
<path d="M213.788 153.725C213.816 153.739 213.586 154.157 213.216 154.917C212.868 155.677 212.282 156.807 212.177 158.306C212.128 159.046 212.282 159.868 212.686 160.642C213.077 161.424 213.69 162.163 214.276 162.993C215.504 164.624 216.243 166.954 215.852 169.325C215.49 171.709 213.858 173.641 212.017 174.548C211.089 175.008 210.106 175.238 209.186 175.238C208.265 175.238 207.414 175.015 206.71 174.687C205.28 174.039 204.43 173.021 204.004 172.281C203.788 171.905 203.669 171.591 203.6 171.375C203.537 171.159 203.509 171.04 203.523 171.04C203.558 171.026 203.676 171.493 204.13 172.205C204.583 172.902 205.434 173.857 206.815 174.443C207.498 174.743 208.307 174.938 209.186 174.924C210.057 174.91 210.985 174.687 211.863 174.241C213.614 173.362 215.148 171.528 215.49 169.262C215.859 167.002 215.169 164.778 213.997 163.181C213.425 162.365 212.812 161.605 212.414 160.775C211.996 159.952 211.856 159.066 211.919 158.285C212.066 156.716 212.7 155.601 213.091 154.847C213.3 154.471 213.467 154.185 213.586 153.997C213.704 153.815 213.774 153.718 213.788 153.725Z" fill="white"/>
<path d="M234.8 130.321C234.772 130.321 234.744 130.029 234.716 129.492C234.688 128.878 234.646 128.125 234.604 127.225C234.507 125.231 234.381 122.623 234.242 119.743C234.102 116.821 234.011 114.171 233.984 112.253C233.97 111.291 233.97 110.517 233.984 109.98C233.998 109.443 234.011 109.15 234.039 109.143C234.067 109.143 234.095 109.436 234.123 109.973C234.151 110.586 234.193 111.339 234.235 112.239C234.332 114.234 234.458 116.842 234.597 119.722C234.737 122.644 234.827 125.294 234.855 127.211C234.869 128.174 234.869 128.948 234.855 129.485C234.841 130.029 234.82 130.321 234.8 130.321Z" fill="#263238"/>
<path d="M234.548 121.486C234.548 121.486 235.72 135.559 234.374 136.5C226.919 141.709 217.003 143.808 213.46 144.422C212.965 144.248 212.393 144.024 211.731 143.732C211.159 143.481 210.636 143.125 210.182 142.7C209.625 142.176 208.92 141.451 208.648 140.935C208.314 140.294 207.4 140.391 207.309 141.04C207.219 141.688 208.104 143.474 209.918 144.896C211.731 146.319 208.16 146.402 206.856 146.451C205.552 146.5 201.535 146.856 201.242 147.281C200.81 147.902 201.389 148.495 202.686 148.411C203.997 148.327 207.902 148.362 207.902 149.066C207.909 149.764 201.277 149.931 201.277 149.931C201.277 149.931 199.848 149.736 199.827 150.545C199.792 152.009 206.821 151.298 207.484 151.214C207.951 151.158 207.979 151.919 207.477 151.953C206.961 151.988 200.852 151.967 200.803 153.46C200.761 154.603 206.591 152.93 207.867 153.655C209.143 154.38 203.314 154.464 203.321 155.559C203.321 155.963 203.376 156.27 206.717 155.726C208.335 155.461 211.201 154.638 213.774 153.843L213.781 153.878C213.781 153.878 248.446 150.907 247.575 135.273C246.989 124.694 247.177 126.646 246.529 121.089" fill="#B78876"/>
</g>
<defs>
<linearGradient id="paint0_linear" x1="355.938" y1="220.994" x2="303.153" y2="220.994" gradientUnits="userSpaceOnUse">
<stop stop-color="#258C45"/>
<stop offset="0.1059" stop-color="#2B8C49"/>
<stop offset="0.5473" stop-color="#82C482"/>
<stop offset="0.8548" stop-color="#B3D744"/>
<stop offset="1" stop-color="#C6DE2C"/>
</linearGradient>
<clipPath id="clip0">
<rect width="375.985" height="281.731" fill="white"/>
</clipPath>
</defs>
</svg>
