<svg width="100" height="100" viewBox="0 0 100 100" fill="none" xmlns="http://www.w3.org/2000/svg">
<path d="M62.0752 54.8896L89.2003 39.1519L62.0752 23.5422L35.0781 39.4078L62.0752 54.8896Z" fill="#D38C0D"/>
<path d="M37.253 54.8896L64.1221 39.2799L37.253 23.5422L10 39.2799L37.253 54.8896Z" fill="#EFBB67"/>
<path d="M76.5332 77.9199L49.6641 93.6576L22.7949 77.9199V46.5726L49.6641 30.835L76.5332 46.5726V77.9199Z" fill="#EFBB67"/>
<path d="M49.6641 30.8352L76.5332 46.5728V77.9202L49.6641 93.6578" fill="#D38C0D"/>
<path d="M62.2032 69.3476L89.2003 53.8658L62.0752 38.1282L34.9502 53.8658L62.2032 69.3476Z" fill="#EFBB67"/>
<path d="M37.253 69.6035L64.2501 53.7379L37.253 38.1282L10 53.8658L37.253 69.6035Z" fill="#D38C0D"/>
<path d="M49.7921 62.3105L76.5333 46.5728L49.7921 30.8352L22.5391 46.5728L49.7921 62.3105Z" fill="#704A0E"/>
<path d="M49.792 62.3105L76.5332 46.5728L49.792 30.8352" fill="#513307"/>
<path d="M49.7919 62.3105L55.5495 58.8559L49.7919 55.5292L44.0342 58.8559L49.7919 62.3105Z" fill="#2D1C05"/>
<path d="M68.8564 79.7117L75.2539 76.0012V73.954L68.8564 77.6645V79.7117Z" fill="#0DD396"/>
<path d="M68.8564 76.001L75.2539 72.2905V70.2433L68.8564 73.9538V76.001Z" fill="#0DD396"/>
<path d="M68.8564 72.2905L75.2539 68.58V66.4048L68.8564 70.2433V72.2905Z" fill="#0DD396"/>
<g clip-path="url(#clip0)">
<path fill-rule="evenodd" clip-rule="evenodd" d="M48.6314 6C52.2409 6 55.8596 6 59.4737 6C63.0832 6 66.7019 6 70.316 6C74.1177 6 77.4024 7.56001 79.6257 10.0624C81.8537 12.5649 83.034 16.0234 82.6131 19.8251C78.999 19.8251 75.3849 19.8251 71.7662 19.8251C68.1521 19.8251 64.538 19.8251 60.9239 19.8251C57.1222 19.8251 53.8329 18.2696 51.6096 15.7672C49.3862 13.2648 48.2105 9.80624 48.6314 6Z" fill="#2CB357"/>
<path fill-rule="evenodd" clip-rule="evenodd" d="M45.3975 35.3154C49.007 35.3154 52.6211 35.3154 56.2352 35.3154C59.8493 35.3154 63.4634 35.3154 67.0775 35.3154C70.8792 35.3154 74.5024 33.7645 77.2839 31.2621C80.0654 28.7597 82.0051 25.3011 82.426 21.4949C78.8073 21.4949 75.1932 21.4949 71.5791 21.4949C67.9604 21.4949 64.3509 21.4949 60.7322 21.4949C56.9306 21.4949 53.3073 23.0503 50.5258 25.5527C47.7489 28.0552 45.8138 31.5137 45.3975 35.3154Z" fill="#C4D02E"/>
<path fill-rule="evenodd" clip-rule="evenodd" d="M60.7365 21.4949C60.3385 25.109 59.9405 28.7322 59.5379 32.3418C59.1399 35.9513 58.7373 39.57 58.3393 43.1795C57.9185 46.9857 55.9787 50.4443 53.2018 52.9467C50.4203 55.4537 46.7971 57 43 57C43.398 53.3905 43.796 49.7718 44.1986 46.1623C44.5966 42.5527 44.9992 38.9295 45.4018 35.3154C45.8227 31.5183 47.7532 28.0597 50.5301 25.5527C53.3116 23.0503 56.9349 21.4949 60.7365 21.4949Z" fill="#C4D02E"/>
<path fill-rule="evenodd" clip-rule="evenodd" d="M45.3975 35.3154C47.6986 35.3154 49.9997 35.3154 52.3009 35.3154C54.602 35.3154 56.9077 35.3154 59.2134 35.3154C59.465 33.0142 59.7212 30.7085 59.9728 28.412C60.229 26.1109 60.4806 23.8006 60.7322 21.4949C60.6179 21.4949 60.4943 21.4949 60.38 21.4994C60.2656 21.4994 60.1467 21.504 60.0323 21.5086C59.9088 21.5177 59.7898 21.5223 59.6754 21.536C59.5611 21.5452 59.4421 21.5543 59.3232 21.5681C59.2088 21.5772 59.0944 21.5955 58.9755 21.6092C58.8611 21.623 58.7468 21.6413 58.6278 21.655C58.518 21.6733 58.3991 21.6916 58.2801 21.7099C58.1658 21.7282 58.0514 21.7556 57.9324 21.7785C57.8181 21.8014 57.7083 21.8288 57.5893 21.8563C57.475 21.8837 57.3606 21.9066 57.2462 21.9386C57.1319 21.9661 57.0221 21.9935 56.9077 22.0256C56.7933 22.0576 56.6835 22.0942 56.5692 22.1216C56.4594 22.1582 56.345 22.1948 56.2352 22.2268C56.1254 22.2634 56.011 22.3 55.9012 22.3366C55.7914 22.3778 55.6816 22.419 55.5673 22.4602C55.462 22.5013 55.3523 22.5425 55.247 22.5883C55.1372 22.6294 55.032 22.6752 54.9222 22.7209C54.817 22.7667 54.7118 22.817 54.6066 22.8627C54.5013 22.9131 54.3961 22.9588 54.2955 23.0137C54.1857 23.064 54.0805 23.1144 53.9798 23.1647C53.8792 23.2196 53.7739 23.2699 53.6687 23.3294C53.5681 23.3843 53.4674 23.4392 53.3622 23.5032C53.2616 23.5581 53.1609 23.6222 53.0603 23.6771C52.9596 23.7365 52.8544 23.8006 52.7629 23.8601C52.6577 23.9287 52.5616 23.9881 52.461 24.0522C52.3649 24.1117 52.2688 24.1803 52.1728 24.2443C52.0721 24.313 51.9852 24.377 51.8891 24.4502C51.7885 24.5142 51.7016 24.5874 51.6055 24.6606C51.5094 24.7338 51.4179 24.8025 51.3264 24.8757C51.2349 24.9489 51.1434 25.0175 51.0519 25.0953C50.965 25.173 50.8735 25.2462 50.7866 25.3194C50.6951 25.3972 50.6082 25.4795 50.5213 25.5527C50.4343 25.6305 50.3474 25.7083 50.2651 25.7906C50.1781 25.8684 50.0958 25.9462 50.0089 26.0285C49.9219 26.1109 49.8396 26.1978 49.7618 26.2801C49.6795 26.3625 49.6017 26.4494 49.5148 26.5363C49.437 26.6187 49.3638 26.7056 49.2815 26.7925C49.2037 26.884 49.1305 26.9709 49.0482 27.0578C48.9795 27.1493 48.9018 27.2363 48.824 27.3278C48.7508 27.4193 48.6776 27.5062 48.6044 27.5977C48.5312 27.6937 48.4626 27.7852 48.3848 27.8767C48.3208 27.9682 48.2476 28.0643 48.1789 28.1558C48.1103 28.2519 48.0371 28.3479 47.9777 28.4486C47.909 28.5447 47.845 28.6407 47.7809 28.7368C47.7169 28.8329 47.6528 28.9289 47.5934 29.0342C47.5339 29.1302 47.4744 29.2355 47.4104 29.3361C47.3463 29.4367 47.2914 29.5328 47.232 29.638C47.1725 29.7387 47.1176 29.8485 47.0581 29.9491C47.0032 30.0498 46.9529 30.155 46.898 30.2602C46.8431 30.3609 46.7928 30.4707 46.7425 30.5759C46.6967 30.6765 46.6418 30.7863 46.5961 30.8915C46.5503 30.9968 46.5 31.1066 46.4542 31.2118C46.4085 31.3261 46.3627 31.4314 46.317 31.5366C46.2713 31.6464 46.2347 31.7562 46.1935 31.866C46.1569 31.9712 46.1157 32.0856 46.0791 32.1999C46.0379 32.3097 46.0013 32.4241 45.9647 32.5385C45.9281 32.6528 45.8915 32.7626 45.8595 32.877C45.8412 32.9914 45.8138 33.1012 45.7817 33.2201C45.7543 33.3345 45.7223 33.4489 45.6948 33.5632C45.6719 33.6776 45.6399 33.792 45.6216 33.9063C45.5942 34.0253 45.5713 34.1397 45.553 34.254C45.5301 34.373 45.5118 34.4873 45.4935 34.6063C45.4752 34.7252 45.4524 34.8396 45.4341 34.9585C45.4249 35.0821 45.4112 35.1964 45.3975 35.3154Z" fill="#2CB357"/>
</g>
<defs>
<clipPath id="clip0">
<rect width="39.6956" height="51" fill="white" transform="translate(43 6)"/>
</clipPath>
</defs>
</svg>
