<svg width="40" height="51" viewBox="0 0 40 51" fill="none" xmlns="http://www.w3.org/2000/svg">
<path fill-rule="evenodd" clip-rule="evenodd" d="M5.63163 0C9.24116 0 12.8598 0 16.4739 0C20.0835 0 23.7021 0 27.3162 0C31.1179 0 34.4026 1.56001 36.626 4.06243C38.8539 6.56485 40.0342 10.0234 39.6133 13.8251C35.9992 13.8251 32.3851 13.8251 28.7665 13.8251C25.1524 13.8251 21.5383 13.8251 17.9242 13.8251C14.1225 13.8251 10.8332 12.2696 8.60983 9.76722C6.38648 7.2648 5.21075 3.80624 5.63163 0Z" fill="#2CB357"/>
<path fill-rule="evenodd" clip-rule="evenodd" d="M2.39722 29.3154C6.00674 29.3154 9.62084 29.3154 13.2349 29.3154C16.849 29.3154 20.4631 29.3154 24.0772 29.3154C27.8789 29.3154 31.5022 27.7645 34.2837 25.2621C37.0651 22.7597 39.0049 19.3011 39.4257 15.4949C35.8071 15.4949 32.193 15.4949 28.5789 15.4949C24.9602 15.4949 21.3507 15.4949 17.732 15.4949C13.9303 15.4949 10.3071 17.0503 7.52558 19.5527C4.74867 22.0552 2.81352 25.5137 2.39722 29.3154Z" fill="#C4D02E"/>
<path fill-rule="evenodd" clip-rule="evenodd" d="M17.7365 15.4949C17.3385 19.109 16.9405 22.7322 16.5379 26.3418C16.1399 29.9513 15.7373 33.57 15.3393 37.1795C14.9185 40.9857 12.9787 44.4443 10.2018 46.9467C7.42034 49.4537 3.79709 51 0 51C0.398009 47.3905 0.796017 43.7718 1.1986 40.1623C1.59661 36.5527 1.99919 32.9295 2.40178 29.3154C2.82266 25.5183 4.75323 22.0597 7.53014 19.5527C10.3116 17.0503 13.9349 15.4949 17.7365 15.4949Z" fill="#C4D02E"/>
<path fill-rule="evenodd" clip-rule="evenodd" d="M2.39722 29.3154C4.69835 29.3154 6.99948 29.3154 9.30061 29.3154C11.6017 29.3154 13.9074 29.3154 16.2131 29.3154C16.4648 27.0142 16.721 24.7085 16.9726 22.412C17.2288 20.1109 17.4804 17.8006 17.732 15.4949C17.6176 15.4949 17.4941 15.4949 17.3797 15.4994C17.2654 15.4994 17.1464 15.504 17.032 15.5086C16.9085 15.5177 16.7896 15.5223 16.6752 15.536C16.5608 15.5452 16.4419 15.5543 16.3229 15.5681C16.2086 15.5772 16.0942 15.5955 15.9753 15.6092C15.8609 15.623 15.7465 15.6413 15.6276 15.655C15.5178 15.6733 15.3988 15.6916 15.2799 15.7099C15.1655 15.7282 15.0511 15.7556 14.9322 15.7785C14.8178 15.8014 14.708 15.8288 14.5891 15.8563C14.4747 15.8837 14.3603 15.9066 14.246 15.9386C14.1316 15.9661 14.0218 15.9935 13.9074 16.0256C13.7931 16.0576 13.6833 16.0942 13.5689 16.1216C13.4591 16.1582 13.3447 16.1948 13.2349 16.2268C13.1251 16.2634 13.0108 16.3 12.901 16.3366C12.7912 16.3778 12.6814 16.419 12.567 16.4602C12.4618 16.5013 12.352 16.5425 12.2468 16.5883C12.137 16.6294 12.0318 16.6752 11.922 16.7209C11.8168 16.7667 11.7115 16.817 11.6063 16.8627C11.5011 16.9131 11.3959 16.9588 11.2952 17.0137C11.1854 17.064 11.0802 17.1144 10.9796 17.1647C10.8789 17.2196 10.7737 17.2699 10.6685 17.3294C10.5678 17.3843 10.4672 17.4392 10.362 17.5032C10.2613 17.5581 10.1607 17.6222 10.06 17.6771C9.95938 17.7365 9.85416 17.8006 9.76266 17.8601C9.65744 17.9287 9.56137 17.9881 9.46073 18.0522C9.36466 18.1117 9.26858 18.1803 9.17251 18.2443C9.07187 18.313 8.98495 18.377 8.88887 18.4502C8.78823 18.5143 8.70131 18.5874 8.60524 18.6606C8.50916 18.7338 8.41767 18.8025 8.32617 18.8757C8.23468 18.9489 8.14318 19.0175 8.05168 19.0953C7.96476 19.173 7.87327 19.2462 7.78635 19.3194C7.69485 19.3972 7.60793 19.4795 7.52101 19.5527C7.43408 19.6305 7.34716 19.7083 7.26482 19.7906C7.1779 19.8684 7.09555 19.9462 7.00863 20.0285C6.92171 20.1109 6.83936 20.1978 6.76159 20.2801C6.67924 20.3625 6.60147 20.4494 6.51455 20.5363C6.43678 20.6187 6.36358 20.7056 6.28123 20.7925C6.20346 20.884 6.13026 20.9709 6.04792 21.0578C5.97929 21.1493 5.90152 21.2363 5.82375 21.3278C5.75055 21.4193 5.67736 21.5062 5.60416 21.5977C5.53096 21.6937 5.46234 21.7852 5.38457 21.8767C5.32052 21.9682 5.24732 22.0643 5.1787 22.1558C5.11008 22.2519 5.03688 22.3479 4.97741 22.4486C4.90879 22.5447 4.84474 22.6407 4.78069 22.7368C4.71665 22.8329 4.6526 22.9289 4.59313 23.0342C4.53365 23.1302 4.47418 23.2355 4.41013 23.3361C4.34609 23.4367 4.29119 23.5328 4.23172 23.638C4.17224 23.7387 4.11735 23.8485 4.05787 23.9491C4.00298 24.0498 3.95265 24.155 3.89776 24.2602C3.84286 24.3609 3.79253 24.4707 3.74221 24.5759C3.69646 24.6765 3.64157 24.7863 3.59582 24.8915C3.55007 24.9968 3.49975 25.1066 3.454 25.2118C3.40825 25.3261 3.3625 25.4314 3.31675 25.5366C3.27101 25.6464 3.23441 25.7562 3.19323 25.866C3.15664 25.9712 3.11546 26.0856 3.07886 26.1999C3.03769 26.3097 3.00109 26.4241 2.96449 26.5385C2.9279 26.6528 2.8913 26.7626 2.85927 26.877C2.84097 26.9914 2.81352 27.1012 2.7815 27.2201C2.75405 27.3345 2.72203 27.4489 2.69458 27.5632C2.67171 27.6776 2.63968 27.792 2.62138 27.9063C2.59393 28.0253 2.57106 28.1397 2.55276 28.254C2.52989 28.373 2.51159 28.4873 2.49329 28.6063C2.47499 28.7252 2.45211 28.8396 2.43382 28.9585C2.42467 29.0821 2.41094 29.1964 2.39722 29.3154Z" fill="#2CB357"/>
</svg>
