<svg width="171" height="220" viewBox="0 0 171 220" fill="none" xmlns="http://www.w3.org/2000/svg">
<g opacity="0.43" clip-path="url(#clip0)">
<path fill-rule="evenodd" clip-rule="evenodd" d="M24.2601 0C39.8091 0 55.3975 0 70.9663 0C86.5153 0 102.104 0 117.673 0C134.049 0 148.199 6.72018 157.777 17.5001C167.374 28.2799 172.459 43.1786 170.646 59.5554C155.077 59.5554 139.508 59.5554 123.92 59.5554C108.351 59.5554 92.7822 59.5554 77.2135 59.5554C60.8368 59.5554 46.6672 52.8549 37.0895 42.075C27.5118 31.2952 22.447 16.3965 24.2601 0Z" fill="white"/>
<path fill-rule="evenodd" clip-rule="evenodd" d="M10.3267 126.284C25.8757 126.284 41.4444 126.284 57.0132 126.284C72.5819 126.284 88.1507 126.284 103.719 126.284C120.096 126.284 135.704 119.603 147.686 108.824C159.668 98.0437 168.024 83.145 169.837 66.7485C154.249 66.7485 138.68 66.7485 123.111 66.7485C107.523 66.7485 91.9739 66.7485 76.3854 66.7485C60.0087 66.7485 44.4005 73.449 32.4185 84.2289C20.4562 95.0088 12.12 109.907 10.3267 126.284Z" fill="white"/>
<path fill-rule="evenodd" clip-rule="evenodd" d="M76.4051 66.7485C74.6906 82.3173 72.976 97.9254 71.2418 113.474C69.5273 129.024 67.793 144.612 66.0785 160.161C64.2654 176.557 55.9095 191.456 43.9472 202.236C31.9652 213.036 16.357 219.697 0 219.697C1.71453 204.148 3.42907 188.559 5.16331 173.01C6.87784 157.461 8.61208 141.853 10.3463 126.284C12.1594 109.927 20.4759 95.0285 32.4382 84.2289C44.4202 73.449 60.0284 66.7485 76.4051 66.7485Z" fill="white"/>
<path fill-rule="evenodd" clip-rule="evenodd" d="M10.3267 126.284C20.2394 126.284 30.1522 126.284 40.0649 126.284C49.9777 126.284 59.9102 126.284 69.8426 126.284C70.9265 116.371 72.0301 106.439 73.114 96.5459C74.2176 86.6332 75.3015 76.681 76.3854 66.7485C75.8927 66.7485 75.3607 66.7485 74.868 66.7682C74.3753 66.7682 73.8629 66.788 73.3702 66.8077C72.8381 66.8471 72.3257 66.8668 71.8331 66.9259C71.3404 66.9653 70.828 67.0047 70.3156 67.0639C69.8229 67.1033 69.3302 67.1821 68.8178 67.2412C68.3252 67.3003 67.8325 67.3792 67.3201 67.4383C66.8471 67.5171 66.3347 67.596 65.8223 67.6748C65.3297 67.7536 64.837 67.8719 64.3246 67.9704C63.8319 68.0689 63.3589 68.1872 62.8465 68.3054C62.3539 68.4237 61.8612 68.5222 61.3685 68.6601C60.8758 68.7784 60.4028 68.8966 59.9102 69.0346C59.4175 69.1725 58.9445 69.3302 58.4518 69.4484C57.9788 69.6061 57.4862 69.7638 57.0132 69.9017C56.5402 70.0594 56.0475 70.217 55.5746 70.3747C55.1016 70.552 54.6286 70.7294 54.1359 70.9068C53.6827 71.0841 53.2097 71.2615 52.7564 71.4586C52.2834 71.6359 51.8302 71.833 51.3572 72.0301C50.9039 72.2272 50.4507 72.4439 49.9974 72.641C49.5441 72.8578 49.0909 73.0549 48.6573 73.2913C48.1843 73.5081 47.7311 73.7249 47.2975 73.9417C46.8639 74.1782 46.4107 74.395 45.9574 74.6512C45.5238 74.8876 45.0903 75.1241 44.637 75.4C44.2035 75.6365 43.7699 75.9124 43.3363 76.1489C42.9028 76.4051 42.4495 76.681 42.0554 76.9372C41.6021 77.2328 41.1882 77.489 40.7547 77.7649C40.3408 78.0211 39.927 78.3167 39.5131 78.5926C39.0796 78.8882 38.7051 79.1641 38.2913 79.4794C37.8577 79.7553 37.4833 80.0707 37.0694 80.386C36.6556 80.7013 36.2614 80.9969 35.8673 81.3122C35.4731 81.6275 35.079 81.9231 34.6848 82.2582C34.3104 82.5932 33.9163 82.9085 33.5418 83.2238C33.1477 83.5588 32.7732 83.9136 32.3988 84.2289C32.0244 84.5639 31.6499 84.8989 31.2952 85.2537C30.9208 85.5887 30.566 85.9237 30.1916 86.2784C29.8172 86.6332 29.4624 87.0076 29.1274 87.3623C28.7727 87.7171 28.4376 88.0915 28.0632 88.466C27.7282 88.8207 27.4129 89.1951 27.0581 89.5696C26.7231 89.9637 26.4078 90.3381 26.0531 90.7126C25.7575 91.1067 25.4224 91.4812 25.0874 91.8753C24.7721 92.2695 24.4568 92.6439 24.1415 93.038C23.8261 93.4519 23.5305 93.846 23.1955 94.2402C22.9196 94.6343 22.6043 95.0482 22.3087 95.4423C22.0131 95.8562 21.6978 96.27 21.4416 96.7036C21.146 97.1174 20.8701 97.5313 20.5941 97.9452C20.3182 98.359 20.0423 98.7729 19.7862 99.2261C19.53 99.64 19.2738 100.093 18.9979 100.527C18.722 100.96 18.4855 101.374 18.2293 101.827C17.9731 102.261 17.7366 102.734 17.4804 103.168C17.2439 103.601 17.0271 104.054 16.7906 104.508C16.5542 104.941 16.3374 105.414 16.1206 105.867C15.9235 106.301 15.687 106.774 15.49 107.227C15.2929 107.681 15.0761 108.154 14.879 108.607C14.682 109.099 14.4849 109.553 14.2878 110.006C14.0907 110.479 13.9331 110.952 13.7557 111.425C13.5981 111.878 13.4207 112.371 13.263 112.864C13.0857 113.337 12.928 113.829 12.7704 114.322C12.6127 114.815 12.455 115.288 12.3171 115.78C12.2383 116.273 12.12 116.746 11.9821 117.258C11.8638 117.751 11.7259 118.244 11.6076 118.736C11.5091 119.229 11.3711 119.722 11.2923 120.214C11.1741 120.727 11.0755 121.219 10.9967 121.712C10.8982 122.225 10.8193 122.717 10.7405 123.23C10.6617 123.742 10.5631 124.235 10.4843 124.747C10.4449 125.279 10.3858 125.772 10.3267 126.284Z" fill="white"/>
</g>
<defs>
<clipPath id="clip0">
<rect width="171" height="219.697" fill="white"/>
</clipPath>
</defs>
</svg>
