<svg width="391" height="450" viewBox="0 0 391 450" fill="none" xmlns="http://www.w3.org/2000/svg">
<g clip-path="url(#clip0)">
<path d="M235.366 409.638L77.259 377.323C62.164 374.239 52.3424 359.364 55.4314 344.281L107.519 89.3916C111.125 67.3693 126.062 60.5345 141.157 63.6187L298.679 99.874C313.774 102.958 323.595 117.833 320.506 132.916L272.471 388.14C269.387 403.235 258.008 413.288 235.366 409.638Z" fill="#37465C"/>
<path d="M240.591 406.245L82.4848 373.93C67.3898 370.846 57.5682 355.972 60.6572 340.888L112.744 85.9988C115.829 70.9038 130.703 61.0822 145.786 64.1712L303.893 96.486C318.988 99.5703 328.81 114.445 325.721 129.528L273.629 384.406C270.553 399.504 255.678 409.326 240.591 406.245Z" fill="#4B607D"/>
<path d="M276.751 130.231C279.762 130.225 282.634 129.163 284.898 127.329C285.551 126.806 286.143 126.22 286.691 125.578C287.231 124.933 287.713 124.244 288.123 123.498C288.742 122.381 289.199 121.149 289.468 119.84C289.553 119.447 289.61 119.051 289.648 118.657C289.672 118.458 289.68 118.252 289.689 118.045C289.7 117.879 289.714 117.704 289.717 117.534C289.724 117.26 289.72 116.992 289.707 116.72C289.701 116.642 289.695 116.563 289.698 116.488C289.357 110.76 285.219 105.704 279.351 104.502L274.245 103.46L275.901 95.3685C275.989 94.9192 276.063 94.4829 276.121 94.0399C276.136 93.9321 276.149 93.8323 276.164 93.7245C276.218 93.2896 276.261 92.8596 276.276 92.4278C276.279 92.4196 276.279 92.4196 276.275 92.4081C276.3 91.9518 276.3 91.4854 276.294 91.0354C276.293 90.9683 276.288 90.9093 276.287 90.8422C276.287 90.8422 276.287 90.8422 276.29 90.8341L165.284 68.153C165.284 68.153 165.284 68.153 165.28 68.1611C165.257 68.2182 165.222 68.2801 165.199 68.3372C165.009 68.7546 164.835 69.1786 164.678 69.6094C164.675 69.6175 164.675 69.6175 164.671 69.6257C164.524 70.0319 164.393 70.4449 164.27 70.8612C164.238 70.9624 164.215 71.0669 164.183 71.1681C164.065 71.5959 163.952 72.0351 163.866 72.4763L162.211 80.5677L157.106 79.5254C151.23 78.3199 145.439 81.3482 142.878 86.4887C142.84 86.5587 142.81 86.6321 142.771 86.7022C142.652 86.9483 142.543 87.1896 142.44 87.4424C142.376 87.5974 142.318 87.7638 142.263 87.9221C142.194 88.113 142.125 88.3039 142.065 88.4981C141.947 88.8785 141.849 89.2573 141.764 89.651C141.317 91.8384 141.453 94.0175 142.07 96.022C143.054 99.224 145.254 101.991 148.235 103.639C149.353 104.259 150.585 104.715 151.893 104.984L274.135 129.969C275.014 130.148 275.885 130.229 276.751 130.231Z" fill="#3F526E"/>
<path d="M256.353 390.531L277.071 262.478L277.148 262.081L311.212 133.501C311.274 133.279 311.24 133.037 311.122 132.836C311.004 132.635 310.815 132.492 310.585 132.426L303.997 130.681L304.807 126.7C304.906 126.226 304.594 125.756 304.12 125.657L299.36 124.68L299.658 122.859C299.695 122.627 299.638 122.394 299.506 122.207C299.373 122.019 299.166 121.896 298.929 121.847L234.545 111.432L220.698 108.601L138.323 86.7762C137.851 86.6497 137.374 86.9306 137.248 87.4025L136.212 91.3296L129.533 89.9671C129.305 89.9211 129.067 89.9666 128.871 90.096C128.676 90.2253 128.536 90.4254 128.49 90.6542L127.774 94.1502L123.013 93.3823C122.781 93.3444 122.548 93.4014 122.357 93.5423C122.166 93.6831 122.035 93.8866 122.001 94.1105L100.878 224.664L67.7987 349.515C67.6722 349.987 67.958 350.475 68.425 350.59L75.0136 352.335L74.2029 356.316C74.1042 356.79 74.4081 357.257 74.89 357.359L79.2567 358.251L78.6885 361.779C78.6247 362.191 78.8556 362.581 79.2225 362.731C79.2878 362.758 79.3482 362.773 79.4201 362.783L169.468 377.352L240.71 396.23C241.182 396.356 241.659 396.075 241.785 395.604L242.825 391.668L249.503 393.031C249.977 393.13 250.444 392.826 250.546 392.344L250.916 390.534L255.353 391.255C255.825 391.334 256.274 391.004 256.353 390.531Z" fill="#3F526E"/>
<path d="M313.637 128.99L141.358 83.3549L71.9284 345.461L244.207 391.096L313.637 128.99Z" fill="#EAEDF0"/>
<path d="M302.066 118.452L126.132 89.9808L82.8157 357.648L258.75 386.119L302.066 118.452Z" fill="#BBC5C9"/>
<path d="M307.226 122.261L132.61 86.5692L78.3081 352.23L252.923 387.922L307.226 122.261Z" fill="white"/>
<path d="M148.09 187.314C155.264 188.221 161.816 183.141 162.723 175.966C163.631 168.791 158.55 162.24 151.375 161.332C144.201 160.425 137.649 165.506 136.742 172.68C135.834 179.855 140.915 186.406 148.09 187.314Z" fill="#EAEDF0"/>
<path d="M259.356 199.385L172.374 181.606C170.969 181.316 170.05 179.931 170.34 178.526C170.629 177.121 172.014 176.203 173.419 176.492L260.401 194.272C261.806 194.561 262.725 195.946 262.435 197.351C262.146 198.756 260.761 199.674 259.356 199.385Z" fill="#EAEDF0"/>
<path d="M268.942 190.645L170.212 170.466C168.807 170.177 167.888 168.792 168.178 167.387C168.467 165.982 169.852 165.064 171.257 165.353L269.987 185.532C271.392 185.821 272.31 187.207 272.021 188.611C271.732 190.016 270.346 190.935 268.942 190.645Z" fill="#EAEDF0"/>
<path d="M249.298 208.026L166.012 191.008C164.607 190.718 163.689 189.333 163.978 187.928C164.268 186.523 165.653 185.605 167.058 185.895L250.343 202.913C251.748 203.202 252.667 204.588 252.377 205.992C252.084 207.406 250.703 208.316 249.298 208.026Z" fill="#EAEDF0"/>
<path d="M139.757 228.09C146.931 228.998 153.483 223.918 154.391 216.744C155.299 209.57 150.219 203.018 143.045 202.11C135.871 201.202 129.319 206.281 128.411 213.456C127.503 220.63 132.582 227.182 139.757 228.09Z" fill="#EAEDF0"/>
<path d="M251.023 240.171L164.041 222.391C162.636 222.102 161.717 220.717 162.007 219.312C162.296 217.907 163.681 216.989 165.086 217.278L252.068 235.058C253.473 235.347 254.392 236.732 254.102 238.137C253.813 239.542 252.428 240.46 251.023 240.171Z" fill="#EAEDF0"/>
<path d="M260.608 231.431L161.878 211.252C160.473 210.963 159.554 209.577 159.844 208.173C160.133 206.768 161.518 205.849 162.923 206.139L261.653 226.318C263.058 226.607 263.977 227.992 263.687 229.397C263.398 230.802 262.013 231.721 260.608 231.431Z" fill="#EAEDF0"/>
<path d="M240.96 248.82L157.674 231.802C156.269 231.512 155.351 230.127 155.641 228.722C155.93 227.317 157.315 226.399 158.72 226.688L242.005 243.707C243.41 243.996 244.329 245.381 244.039 246.786C243.75 248.191 242.368 249.101 240.96 248.82Z" fill="#EAEDF0"/>
<path d="M130.229 268.678C137.29 270.238 144.279 265.779 145.84 258.717C147.4 251.656 142.94 244.667 135.879 243.107C128.818 241.546 121.829 246.006 120.269 253.067C118.708 260.128 123.168 267.117 130.229 268.678Z" fill="#EAEDF0"/>
<path d="M242.676 280.961L155.694 263.182C154.289 262.893 153.371 261.507 153.66 260.103C153.949 258.698 155.335 257.779 156.739 258.069L243.722 275.848C245.127 276.138 246.045 277.523 245.756 278.928C245.474 280.336 244.093 281.246 242.676 280.961Z" fill="#EAEDF0"/>
<path d="M252.274 272.217L153.544 252.038C152.139 251.748 151.22 250.363 151.51 248.958C151.799 247.554 153.184 246.635 154.589 246.925L253.319 267.104C254.724 267.393 255.643 268.778 255.353 270.183C255.064 271.588 253.679 272.506 252.274 272.217Z" fill="#EAEDF0"/>
<path d="M121.827 309.448C128.877 311.058 135.898 306.649 137.508 299.599C139.119 292.548 134.709 285.528 127.659 283.917C120.609 282.307 113.588 286.716 111.978 293.767C110.367 300.817 114.777 307.837 121.827 309.448Z" fill="#EAEDF0"/>
<path d="M221.365 319.092L147.359 303.968C145.954 303.678 145.035 302.293 145.325 300.888C145.614 299.483 146.999 298.565 148.404 298.855L222.41 313.979C223.815 314.269 224.734 315.654 224.444 317.059C224.155 318.464 222.77 319.382 221.365 319.092Z" fill="#EAEDF0"/>
<path d="M230.959 310.356L145.213 292.835C143.808 292.546 142.89 291.161 143.179 289.756C143.469 288.351 144.854 287.432 146.259 287.722L232.005 305.243C233.409 305.532 234.328 306.917 234.038 308.322C233.749 309.727 232.364 310.645 230.959 310.356Z" fill="#EAEDF0"/>
<path d="M233.205 39.408C224.331 37.5943 215.677 43.316 213.863 52.19C212.049 61.064 217.771 69.7185 226.645 71.5322C235.519 73.346 244.174 67.6243 245.987 58.7503C247.793 49.8729 242.071 41.2184 233.205 39.408ZM228.834 60.7647C225.908 60.167 224.021 57.3096 224.619 54.3837C225.217 51.4578 228.074 49.5711 231 50.1688C233.926 50.7666 235.813 53.624 235.215 56.5499C234.617 59.4758 231.76 61.3625 228.834 60.7647Z" fill="#2CB357"/>
<path d="M231.809 46.2154C226.704 45.1731 221.719 48.4648 220.677 53.5699C219.635 58.6751 222.926 63.6595 228.031 64.7018C233.137 65.7441 238.121 62.4524 239.163 57.3473C240.206 52.2421 236.914 47.2577 231.809 46.2154ZM228.834 60.7647C225.908 60.1669 224.021 57.3095 224.619 54.3836C225.217 51.4578 228.074 49.571 231 50.1688C233.926 50.7666 235.812 53.624 235.215 56.5499C234.617 59.4757 231.76 61.3625 228.834 60.7647Z" fill="#239146"/>
<path d="M260.204 126.809L174.073 109.207C166.948 107.747 162.315 100.738 163.766 93.6103L167.407 75.7822C169.613 64.9739 180.259 57.9444 191.067 60.1499L263.801 75.0107C274.609 77.2162 281.639 87.8628 279.433 98.6711L275.797 116.511C274.341 123.627 267.32 128.265 260.204 126.809Z" fill="#2CB357"/>
<path d="M265.938 98.7267L179.815 81.1275C174.296 80.0017 170.289 75.5336 169.426 70.2675C168.506 71.957 167.815 73.8071 167.412 75.7936L163.77 93.6217C162.311 100.746 166.953 107.759 174.077 109.218L260.2 126.817C267.325 128.277 274.337 123.635 275.797 116.511L279.438 98.6825C279.838 96.7041 279.931 94.7331 279.755 92.8139C276.901 97.3204 271.456 99.8524 265.938 98.7267Z" fill="#239146"/>
<path d="M277.695 133.274L155.453 108.289C148.45 106.86 143.896 99.9588 145.324 92.9553C146.753 85.9518 153.654 81.3976 160.658 82.8265L282.896 107.82C289.899 109.249 294.454 116.149 293.025 123.153C291.591 130.145 284.69 134.699 277.695 133.274Z" fill="#2CB357"/>
<path d="M226.451 105.224L169.751 93.6417C168.274 93.3419 167.311 91.8811 167.619 90.4076C167.919 88.9308 169.379 87.9672 170.853 88.2752L227.552 99.8577C229.029 100.158 229.993 101.618 229.685 103.092C229.385 104.569 227.927 105.524 226.451 105.224Z" fill="#8DD9BC"/>
<path d="M270.319 114.192L237.212 107.429C235.735 107.13 234.771 105.669 235.079 104.195C235.379 102.719 236.84 101.755 238.313 102.063L271.421 108.826C272.898 109.126 273.861 110.586 273.553 112.06C273.245 113.533 271.796 114.492 270.319 114.192Z" fill="#8DD9BC"/>
<path d="M233.819 78.5915L187.069 69.0342C185.592 68.7344 184.628 67.2736 184.936 65.8001C185.236 64.3233 186.697 63.3597 188.17 63.6677L234.921 73.225C236.397 73.5248 237.361 74.9856 237.053 76.4591C236.748 77.9244 235.296 78.8913 233.819 78.5915Z" fill="#5CC29C"/>
<path d="M265.739 85.1157L246.269 81.1357C244.792 80.8359 243.829 79.3751 244.137 77.9016C244.437 76.4248 245.897 75.4612 247.371 75.7692L266.841 79.7491C268.318 80.049 269.281 81.5097 268.973 82.9832C268.669 84.4486 267.216 85.4155 265.739 85.1157Z" fill="#5CC29C"/>
<path d="M293.156 118.855C290.406 123.481 284.934 126.125 279.383 124.986L157.147 100.013C151.596 98.8735 147.592 94.3022 146.882 88.9654C146.167 90.1771 145.623 91.5064 145.325 92.9554C143.896 99.9589 148.454 106.852 155.454 108.289L277.695 133.274C284.699 134.703 291.592 130.145 293.029 123.145C293.318 121.692 293.345 120.256 293.156 118.855Z" fill="#239146"/>
<path d="M154.097 126.779C154.098 126.589 154.114 126.23 154.245 125.686C154.401 124.919 154.302 124.194 154.045 123.59C153.918 123.278 153.744 123.014 153.544 122.783C154.57 122.232 155.335 121.284 155.581 120.078C156.025 117.904 154.648 115.796 152.474 115.351L149.222 114.686C149.204 114.683 149.204 114.683 149.204 114.683C148.638 114.567 148.11 114.916 147.994 115.482L145.791 126.261C145.679 126.809 146.024 127.355 146.59 127.471C147.157 127.587 147.707 127.224 147.819 126.675L148.629 122.711L150.785 123.152C150.942 123.222 151.387 123.465 151.718 123.799C151.908 123.99 152.089 124.218 152.158 124.441C152.245 124.668 152.269 124.921 152.217 125.272C152.011 126.276 152.005 126.96 152.152 127.542C152.246 127.828 152.398 128.106 152.606 128.301C152.828 128.518 153.095 128.61 153.278 128.648C153.296 128.652 153.296 128.652 153.296 128.652C153.478 128.689 153.632 128.682 153.709 128.679C154.276 128.604 154.684 128.098 154.61 127.531C154.564 127.198 154.371 126.93 154.097 126.779ZM151.291 121.142L149.043 120.683L149.813 116.92L152.06 117.379C153.101 117.592 153.77 118.604 153.553 119.664C153.344 120.687 152.332 121.355 151.291 121.142ZM158.264 129.857L158.286 129.843C158.286 129.843 158.282 129.861 158.319 129.869L164.238 131.079C164.768 131.187 165.336 130.827 165.448 130.279C165.564 129.713 165.183 129.159 164.653 129.051L159.702 128.039L160.389 124.677L164.646 125.547C165.194 125.659 165.744 125.296 165.86 124.729C165.968 124.2 165.608 123.631 165.06 123.519L160.803 122.649L161.487 119.306L166.438 120.318C166.968 120.426 167.536 120.067 167.652 119.5C167.767 118.934 167.382 118.398 166.852 118.29L160.933 117.08C160.896 117.073 160.896 117.073 160.896 117.073L160.878 117.069C160.312 116.953 159.784 117.302 159.668 117.868L157.465 128.647C157.353 129.195 157.698 129.742 158.264 129.857ZM174.264 133.128C175.817 133.445 177.368 133.21 178.702 132.55C178.911 132.46 179.051 132.336 179.139 132.183L179.143 132.165C179.169 132.132 179.172 132.114 179.198 132.081C179.239 131.975 179.29 131.909 179.316 131.781L180.142 127.744C180.261 127.159 179.876 126.624 179.291 126.504C179.291 126.504 179.291 126.504 179.273 126.501C179.273 126.501 179.273 126.501 179.255 126.497L175.656 125.761C175.089 125.645 174.525 125.987 174.405 126.571C174.289 127.138 174.667 127.71 175.234 127.826L177.846 128.36L177.334 130.862C176.518 131.133 175.603 131.232 174.69 131.045C173.374 130.776 172.324 130.048 171.674 129.039C170.983 128.042 170.699 126.823 170.946 125.617C171.2 124.375 171.939 123.365 172.966 122.718C173.96 122.046 175.212 121.788 176.527 122.057C177.623 122.281 178.549 122.87 179.212 123.633C179.594 124.092 180.288 124.139 180.725 123.771C181.166 123.385 181.231 122.695 180.827 122.25C179.877 121.124 178.506 120.291 176.953 119.974C173.244 119.216 169.614 121.519 168.863 125.191C168.116 128.845 170.555 132.37 174.264 133.128ZM183.302 133.928C183.186 134.495 183.535 135.023 184.101 135.139C184.649 135.251 185.214 134.909 185.33 134.343L187.533 123.564C187.649 122.998 187.263 122.462 186.715 122.35C186.149 122.234 185.621 122.583 185.505 123.15L183.302 133.928ZM188.656 134.147C189.529 135.182 190.99 136.509 192.96 136.93C194.257 137.195 195.523 137.054 196.552 136.58C197.6 136.109 198.463 135.238 198.702 134.069C198.818 133.503 198.766 132.921 198.581 132.427C198.299 131.665 197.739 131.055 197.064 130.537C196.404 130.04 195.594 129.627 194.7 129.254L194.663 129.247C193.714 128.862 192.952 128.402 192.544 127.976C192.34 127.763 192.209 127.565 192.148 127.4C192.086 127.235 192.08 127.082 192.125 126.863C192.203 126.479 192.486 126.118 193.054 125.854C193.622 125.589 194.405 125.483 195.227 125.651C196.342 125.878 197.125 126.61 197.93 127.421C198.308 127.803 198.919 127.795 199.283 127.412C199.661 127.052 199.653 126.441 199.292 126.063C198.484 125.269 197.362 124.146 195.608 123.787C194.421 123.544 193.235 123.664 192.25 124.109C191.282 124.559 190.467 125.382 190.243 126.478C190.131 127.026 190.172 127.567 190.357 128.062C190.628 128.784 191.138 129.364 191.765 129.834C192.392 130.305 193.151 130.689 193.976 131.028L194.012 131.036C195.049 131.457 195.881 131.951 196.34 132.406C196.576 132.645 196.703 132.861 196.776 133.066C196.848 133.271 196.869 133.447 196.821 133.685C196.727 134.141 196.396 134.549 195.766 134.839C195.136 135.129 194.258 135.235 193.344 135.049C192.043 134.802 190.812 133.751 190.142 132.929C189.808 132.518 189.194 132.449 188.783 132.784C188.39 133.122 188.321 133.736 188.656 134.147ZM211.685 128.501C211.801 127.935 211.434 127.403 210.886 127.291L203.085 125.696C202.519 125.58 201.99 125.929 201.875 126.496C201.763 127.044 202.104 127.608 202.67 127.724L205.557 128.314L203.563 138.07C203.447 138.636 203.814 139.168 204.362 139.28C204.929 139.396 205.457 139.047 205.572 138.481L207.567 128.725L210.471 129.319C211.019 129.431 211.573 129.049 211.685 128.501ZM220.555 140.363C220.556 140.173 220.572 139.815 220.702 139.27C220.859 138.503 220.76 137.778 220.503 137.174C220.376 136.863 220.202 136.599 220.002 136.367C221.028 135.816 221.793 134.868 222.039 133.662C222.483 131.488 221.106 129.38 218.932 128.935L215.68 128.271C215.662 128.267 215.662 128.267 215.662 128.267C215.096 128.151 214.568 128.5 214.452 129.066L212.249 139.845C212.137 140.393 212.482 140.94 213.048 141.055C213.614 141.171 214.165 140.808 214.277 140.26L215.087 136.295L217.243 136.736C217.4 136.806 217.845 137.049 218.176 137.384C218.366 137.575 218.547 137.802 218.616 138.025C218.703 138.253 218.727 138.505 218.675 138.856C218.469 139.861 218.463 140.544 218.61 141.127C218.704 141.412 218.856 141.691 219.064 141.885C219.286 142.102 219.553 142.195 219.735 142.232C219.754 142.236 219.754 142.236 219.754 142.236C219.936 142.273 220.09 142.266 220.167 142.263C220.734 142.189 221.142 141.682 221.068 141.115C221.022 140.782 220.829 140.514 220.555 140.363ZM217.749 134.727L215.501 134.267L216.271 130.504L218.518 130.963C219.559 131.176 220.228 132.188 220.011 133.248C219.802 134.271 218.79 134.94 217.749 134.727ZM231.265 144.113C231.329 144.545 231.665 144.861 232.066 144.943C232.194 144.969 232.326 144.977 232.425 144.959C232.996 144.866 233.371 144.334 233.296 143.767L231.459 132.181C231.376 131.745 231.045 131.411 230.621 131.344C230.223 131.243 229.769 131.417 229.522 131.785L223.285 141.72C222.994 142.213 223.13 142.85 223.619 143.159C223.721 143.218 223.827 143.259 223.955 143.285C224.357 143.367 224.789 143.208 225.036 142.84L226.416 140.648L230.856 141.555L231.265 144.113ZM227.558 138.787L229.84 135.162L230.517 139.392L227.558 138.787ZM244.941 135.298C245.057 134.732 244.69 134.2 244.142 134.088L236.341 132.494C235.774 132.378 235.246 132.727 235.13 133.293C235.018 133.841 235.36 134.406 235.926 134.522L238.813 135.112L236.819 144.867C236.703 145.434 237.07 145.966 237.618 146.078C238.184 146.193 238.712 145.845 238.828 145.278L240.822 135.522L243.727 136.116C244.275 136.228 244.829 135.847 244.941 135.298ZM245.888 146.721C245.772 147.288 246.121 147.816 246.688 147.931C247.236 148.044 247.8 147.702 247.916 147.136L250.119 136.357C250.235 135.791 249.85 135.255 249.302 135.143C248.735 135.027 248.207 135.376 248.091 135.942L245.888 146.721ZM259.528 136.853C257.774 136.494 256.014 136.915 254.653 137.893C253.274 138.867 252.269 140.336 251.899 142.145C251.53 143.954 251.873 145.718 252.763 147.137C253.635 148.552 255.086 149.648 256.84 150.007C258.52 150.35 260.285 149.911 261.605 148.944C262.981 147.988 264.026 146.508 264.395 144.699C264.765 142.891 264.381 141.137 263.495 139.7C262.664 138.274 261.209 137.196 259.528 136.853ZM260.421 147.199C259.485 147.864 258.361 148.148 257.265 147.924C256.096 147.685 255.174 146.983 254.574 146.004C253.968 145.061 253.728 143.813 253.982 142.571C254.236 141.328 254.946 140.275 255.878 139.628C256.813 138.962 257.933 138.696 259.103 138.935C260.199 139.159 261.125 139.844 261.724 140.823C262.309 141.78 262.567 143.031 262.313 144.274C262.059 145.516 261.33 146.566 260.421 147.199ZM269.926 143.736L274.114 153.043C274.125 153.083 274.154 153.127 274.183 153.171C274.321 153.428 274.565 153.63 274.857 153.69C275.406 153.802 275.956 153.438 276.068 152.89L278.237 142.276C278.346 141.746 277.982 141.196 277.434 141.084C276.886 140.972 276.354 141.339 276.246 141.869L274.707 149.396L270.476 140.023C270.255 139.521 269.652 139.303 269.132 139.52C268.817 139.665 268.604 139.964 268.558 140.278C268.555 140.296 268.555 140.296 268.555 140.296L266.385 150.911C266.273 151.459 266.618 152.005 267.184 152.121C267.714 152.229 268.264 151.866 268.376 151.318L269.926 143.736Z" fill="#4B607D"/>
<path d="M188.87 156.451C188.831 156.638 188.957 156.829 189.145 156.867C189.346 156.909 189.537 156.783 189.575 156.595L190.462 152.259L194.697 153.125C194.899 153.166 195.09 153.04 195.128 152.853C195.169 152.651 195.043 152.46 194.841 152.419L190.606 151.553L191.422 147.563L196.262 148.552C196.449 148.591 196.64 148.465 196.681 148.263C196.72 148.076 196.594 147.885 196.406 147.846L191.249 146.792L191.191 146.781C191.001 146.757 190.828 146.871 190.789 147.059L188.87 156.451ZM197.838 153.317C197.276 156.143 198.94 158.869 201.662 159.426C204.356 159.977 206.942 158.119 207.533 155.298C208.096 152.472 206.447 149.749 203.753 149.198C201.03 148.642 198.43 150.496 197.838 153.317ZM198.544 153.461C199.054 150.969 201.315 149.45 203.606 149.918C205.824 150.372 207.308 152.656 206.813 155.151C206.295 157.612 204.025 159.174 201.806 158.72C199.516 158.252 198.041 155.924 198.544 153.461ZM214.892 161.485C214.986 161.834 215.259 162.04 215.446 162.078L215.475 162.084C215.562 162.102 215.636 162.102 215.651 162.105C215.853 162.072 215.981 161.888 215.976 161.691C215.95 161.521 215.795 161.399 215.634 161.381C215.622 161.364 215.562 161.292 215.54 161.107C215.512 160.876 215.528 160.504 215.649 159.914C215.881 158.776 215.34 157.9 214.754 157.39C214.702 157.349 214.662 157.326 214.625 157.288C215.698 157.027 216.579 156.172 216.814 155.019C217.141 153.42 216.121 151.876 214.536 151.552L211.727 150.978L211.684 150.969L211.655 150.963C211.479 150.943 211.303 151.072 211.268 151.244L209.348 160.637C209.309 160.824 209.436 161.015 209.623 161.053C209.825 161.094 210.015 160.968 210.054 160.781L210.869 156.791L213.318 157.291C213.333 157.294 213.344 157.312 213.384 157.335C213.566 157.402 214.066 157.669 214.448 158.078C214.827 158.5 215.107 159.038 214.957 159.772C214.783 160.622 214.787 161.118 214.892 161.485ZM216.123 154.878C215.881 156.059 214.733 156.83 213.56 156.62L213.431 156.594L211.011 156.099L211.9 151.749L214.392 152.258C215.588 152.503 216.37 153.668 216.123 154.878ZM226.332 164.108C226.294 164.296 226.405 164.484 226.607 164.525C226.794 164.563 226.985 164.437 227.023 164.25L228.931 154.915C228.943 154.857 228.929 154.779 228.912 154.716C228.892 154.667 228.869 154.632 228.835 154.58C228.697 154.447 228.461 154.429 228.327 154.566L223.739 158.806L221.168 153.103C221.085 152.921 220.875 152.848 220.696 152.916C220.678 152.928 220.664 152.925 220.661 152.939C220.563 152.979 220.485 153.068 220.461 153.184L218.553 162.518C218.515 162.706 218.641 162.896 218.842 162.938C219.03 162.976 219.221 162.85 219.259 162.663L220.952 154.379L223.266 159.505C223.314 159.635 223.406 159.699 223.536 159.725L223.565 159.731C223.666 159.752 223.79 159.732 223.885 159.631L228.028 155.811L226.332 164.108Z" fill="#4B607D"/>
<path d="M145.212 132.518L277.612 159.575" stroke="#4B607D" stroke-width="1.76232" stroke-miterlimit="10" stroke-linecap="round" stroke-linejoin="round"/>
<path d="M236.725 365.959L163.016 350.899" stroke="#6E839E" stroke-width="1.76232" stroke-miterlimit="10" stroke-linecap="round" stroke-linejoin="round"/>
<path d="M173.21 339.369L173.707 339.362C173.829 339.386 173.921 339.432 173.984 339.5C174.047 339.567 174.074 339.624 174.064 339.672C174.055 339.715 174.031 339.778 173.992 339.861C173.952 339.943 173.603 340.753 172.945 342.292C172.287 343.83 171.802 344.979 171.488 345.737C172.431 344.886 173.545 343.827 174.83 342.562C176.115 341.296 176.889 340.439 177.152 339.991C177.235 339.85 177.327 339.747 177.426 339.681C177.525 339.615 177.609 339.583 177.677 339.583C177.745 339.579 177.847 339.591 177.981 339.618C178.116 339.646 178.268 339.708 178.438 339.806C178.613 339.901 178.687 340.016 178.659 340.15C178.607 340.406 178.076 341.066 177.068 342.131C176.059 343.195 174.926 344.313 173.669 345.485C172.417 346.657 171.381 347.576 170.563 348.241C170.416 348.36 170.259 348.402 170.089 348.368C169.924 348.334 169.754 348.27 169.579 348.175C169.409 348.077 169.34 347.954 169.37 347.807C169.467 347.329 170.355 345.121 172.033 341.183C171.127 341.965 169.992 343.081 168.629 344.529C167.211 346.025 166.391 346.965 166.167 347.349C166.039 347.58 165.921 347.705 165.813 347.724C165.737 347.74 165.66 347.74 165.582 347.724L165.056 347.678C164.956 347.657 164.871 347.611 164.8 347.537C164.724 347.463 164.693 347.396 164.705 347.335C164.741 347.161 165.086 346.691 165.74 345.925C166.398 345.16 167.149 344.337 167.994 343.457C168.844 342.572 169.716 341.722 170.611 340.906C171.506 340.089 172.178 339.555 172.627 339.304C172.719 339.25 172.815 339.234 172.915 339.254L173.21 339.369ZM179.967 345.232C180.297 345.3 180.439 345.446 180.392 345.672C180.368 345.794 180.321 345.877 180.253 345.922C180.185 345.967 180.025 346.131 179.773 346.414C179.526 346.693 179.239 347.059 178.911 347.512C178.588 347.962 178.359 348.356 178.222 348.694C178.2 348.735 178.181 348.794 178.165 348.872C178.116 349.111 178.157 349.243 178.287 349.27C178.417 349.297 178.584 349.267 178.787 349.182C178.99 349.093 179.176 348.993 179.343 348.882C179.511 348.768 179.675 348.65 179.836 348.529C180 348.409 180.098 348.34 180.128 348.324C180.159 348.308 180.2 348.305 180.252 348.315C180.335 348.332 180.372 348.405 180.363 348.535C180.355 348.664 180.337 348.796 180.31 348.931C180.282 349.065 180.25 349.156 180.213 349.203C180.037 349.424 179.698 349.665 179.198 349.924C178.702 350.184 178.278 350.279 177.926 350.207C177.579 350.136 177.345 349.977 177.223 349.731C177.102 349.484 177.067 349.233 177.119 348.977C177.173 348.717 177.263 348.498 177.389 348.32C176.933 348.715 176.438 349.028 175.903 349.257C175.372 349.488 174.959 349.573 174.664 349.513C174.368 349.452 174.146 349.314 173.995 349.098C173.802 348.828 173.745 348.498 173.825 348.107C173.906 347.712 174.073 347.335 174.328 346.976C174.587 346.613 174.893 346.298 175.246 346.031C175.6 345.76 175.976 345.524 176.374 345.325C177.21 344.908 177.931 344.762 178.539 344.886C178.773 344.934 178.956 345.012 179.088 345.121C179.219 345.229 179.293 345.346 179.308 345.471C179.444 345.336 179.551 345.256 179.628 345.231C179.711 345.203 179.824 345.203 179.967 345.232ZM178.953 345.778C178.211 345.626 177.359 345.882 176.396 346.544C176.054 346.781 175.721 347.082 175.398 347.445C175.079 347.81 174.905 348.068 174.874 348.22C174.843 348.372 174.87 348.456 174.957 348.474C175.079 348.499 175.466 348.329 176.119 347.966C176.773 347.597 177.214 347.319 177.443 347.131C177.694 346.92 178.197 346.469 178.953 345.778ZM179.41 350.313L179.094 350.235L178.976 350.211C178.936 350.189 178.895 350.154 178.856 350.105C178.812 350.055 178.778 350.019 178.756 349.997C178.733 349.974 178.726 349.941 178.735 349.897C178.745 349.85 178.779 349.773 178.837 349.667C180.063 347.978 181.186 346.657 182.204 345.703C182.315 345.599 182.473 345.537 182.676 345.515C182.885 345.49 183.08 345.496 183.262 345.533C183.371 345.555 183.408 345.651 183.373 345.82C183.364 345.868 183.333 345.929 183.281 346.005C183.231 346.076 183.117 346.188 182.941 346.342C182.765 346.496 182.557 346.671 182.319 346.866C182.08 347.061 181.944 347.174 181.911 347.203C182.631 346.708 183.261 346.36 183.799 346.158C184.343 345.953 184.721 345.872 184.934 345.915C185.151 345.96 185.303 346.056 185.39 346.205C185.482 346.351 185.514 346.495 185.485 346.638C185.456 346.777 185.422 346.892 185.38 346.983C185.344 347.071 185.29 347.161 185.216 347.255C185.144 347.344 185.08 347.422 185.026 347.487C184.977 347.55 184.898 347.631 184.787 347.73C184.677 347.825 184.6 347.891 184.557 347.927C184.517 347.964 184.433 348.033 184.304 348.133C184.18 348.234 184.112 348.29 184.1 348.302C184.247 348.205 184.453 348.06 184.719 347.865C184.984 347.671 185.207 347.509 185.388 347.378C185.572 347.249 185.798 347.107 186.065 346.954C186.332 346.796 186.576 346.674 186.797 346.588C187.326 346.389 187.832 346.338 188.313 346.437C188.478 346.47 188.606 346.551 188.698 346.678C188.789 346.805 188.82 346.943 188.79 347.09C188.761 347.233 188.514 347.545 188.05 348.024C187.587 348.499 187.122 348.978 186.657 349.462C186.197 349.942 185.953 350.254 185.924 350.397C185.883 350.597 185.895 350.724 185.961 350.778C186.028 350.827 186.114 350.859 186.22 350.871C186.326 350.884 186.485 350.846 186.697 350.759C186.914 350.672 187.11 350.576 187.285 350.472C187.568 350.304 187.832 350.138 188.078 349.976C188.129 349.946 188.181 349.936 188.233 349.947C188.316 349.964 188.353 350.037 188.344 350.166C188.336 350.296 188.318 350.428 188.291 350.562C188.263 350.697 188.231 350.787 188.194 350.834C188.019 351.051 187.68 351.292 187.179 351.556C186.677 351.819 186.229 351.911 185.834 351.83C185.786 351.82 185.752 351.811 185.731 351.802C185.293 351.667 185.008 351.482 184.875 351.247C184.747 351.009 184.712 350.751 184.769 350.473C184.826 350.195 184.988 349.878 185.255 349.521C185.527 349.165 185.808 348.85 186.099 348.575C186.391 348.3 186.656 348.053 186.895 347.835C187.139 347.614 187.263 347.492 187.268 347.471C187.272 347.449 187.257 347.435 187.222 347.428C187.088 347.4 186.744 347.556 186.191 347.895C185.245 348.475 184.413 349.051 183.695 349.623C183.506 349.774 183.051 350.162 182.331 350.788C182.248 350.862 182.135 350.884 181.992 350.855C181.853 350.826 181.713 350.771 181.571 350.687C181.431 350.6 181.37 350.513 181.387 350.426C181.396 350.383 181.866 349.846 182.795 348.815C183.725 347.78 184.201 347.21 184.223 347.106C184.245 346.998 184.191 346.93 184.061 346.903C183.935 346.878 183.633 347.015 183.156 347.315C181.843 348.141 180.779 349.011 179.964 349.925C179.913 349.978 179.817 350.058 179.678 350.165C179.538 350.272 179.449 350.321 179.41 350.313ZM193.003 347.978C192.944 348.265 192.776 348.493 192.497 348.662C192.223 348.832 191.938 348.887 191.643 348.826C191.547 348.807 191.489 348.772 191.467 348.723C191.447 348.669 191.444 348.605 191.459 348.531C191.474 348.457 191.498 348.387 191.529 348.321C191.362 348.342 191.172 348.386 190.959 348.456C190.746 348.525 190.479 348.638 190.158 348.794C189.836 348.95 189.665 349.08 189.644 349.184C189.637 349.219 189.683 349.246 189.783 349.267C189.887 349.288 190.053 349.286 190.279 349.26C190.507 349.229 190.662 349.223 190.745 349.239C190.831 349.257 190.887 349.273 190.911 349.287C190.961 349.329 191.008 349.409 191.052 349.526C191.097 349.639 191.113 349.726 191.101 349.787C191.089 349.843 191.017 349.908 190.885 349.98C190.753 350.053 190.609 350.1 190.456 350.123C190.303 350.141 190.2 350.159 190.146 350.175C189.126 350.5 188.596 350.758 188.557 350.949C188.488 351.287 188.742 351.516 189.319 351.634C189.688 351.709 190.083 351.668 190.504 351.51C190.862 351.375 191.188 351.231 191.481 351.079C191.78 350.923 191.966 350.827 192.041 350.793C192.12 350.759 192.177 350.746 192.212 350.753C192.325 350.776 192.356 350.914 192.304 351.165C192.253 351.417 192.203 351.581 192.156 351.657C192.11 351.729 192.003 351.809 191.836 351.897C190.753 352.462 189.797 352.66 188.968 352.491C188.525 352.4 188.184 352.267 187.944 352.092C187.503 351.771 187.329 351.383 187.422 350.927C187.545 350.328 188.052 349.959 188.944 349.821C188.794 349.713 188.707 349.598 188.682 349.476C188.658 349.349 188.672 349.159 188.724 348.908C188.776 348.652 188.948 348.407 189.24 348.172C189.537 347.935 189.876 347.76 190.256 347.648C191.104 347.391 191.828 347.325 192.427 347.447C192.57 347.476 192.708 347.541 192.842 347.64C192.975 347.74 193.029 347.853 193.003 347.978ZM196.273 351.855L196.152 352.013C196.127 352.139 196.278 352.296 196.605 352.485C196.938 352.671 197.315 352.807 197.736 352.893C198.161 352.98 198.641 353.012 199.174 352.99C199.708 352.968 200.18 352.904 200.59 352.798C201.005 352.693 201.354 352.565 201.638 352.415C201.926 352.266 202.085 352.118 202.116 351.971C202.154 351.784 201.972 351.566 201.571 351.317C201.17 351.067 200.574 350.763 199.784 350.402C199 350.038 198.444 349.669 198.119 349.295C197.797 348.922 197.679 348.525 197.765 348.104C197.852 347.679 198.087 347.304 198.47 346.98C198.852 346.656 199.317 346.394 199.865 346.194C200.416 345.994 201.005 345.837 201.63 345.72C202.922 345.482 204.078 345.468 205.098 345.676C205.488 345.756 205.826 345.861 206.111 345.992C206.657 346.244 206.907 346.48 206.861 346.701C206.816 346.923 206.766 347.071 206.71 347.145C206.655 347.215 206.612 347.261 206.58 347.281C206.553 347.303 206.517 347.323 206.473 347.341C206.433 347.36 206.403 347.374 206.383 347.384C206.159 347.505 205.616 347.498 204.753 347.362C204.455 347.315 204.291 347.297 204.262 347.309C204.232 347.321 204.207 347.325 204.185 347.321C204.168 347.317 204.149 347.295 204.13 347.255C204.112 347.215 204.11 347.156 204.126 347.078C204.142 347 204.256 346.874 204.468 346.7C203.932 346.623 203.341 346.628 202.694 346.718C202.052 346.808 201.482 346.942 200.984 347.121C200.487 347.295 200.065 347.482 199.716 347.682C199.369 347.878 199.184 348.03 199.162 348.139C199.141 348.243 199.156 348.336 199.206 348.419C199.349 348.652 199.813 348.959 200.598 349.341C201.412 349.738 201.949 350.033 202.208 350.226C202.467 350.419 202.677 350.596 202.839 350.755C203.005 350.916 203.131 351.071 203.218 351.219C203.421 351.577 203.491 351.913 203.427 352.225C203.363 352.537 203.218 352.813 202.993 353.052C202.772 353.292 202.466 353.505 202.076 353.692C201.689 353.879 201.248 354.027 200.751 354.133C199.662 354.376 198.427 354.357 197.047 354.074C196.04 353.869 195.452 353.47 195.284 352.88C195.237 352.73 195.229 352.584 195.258 352.441C195.288 352.293 195.348 352.167 195.437 352.063C195.53 351.96 195.631 351.888 195.739 351.847C195.949 351.768 196.094 351.737 196.172 351.753C196.25 351.769 196.284 351.803 196.273 351.855ZM209.383 354.27C209.466 354.287 209.503 354.36 209.495 354.489C209.486 354.619 209.468 354.751 209.441 354.885C209.413 355.02 209.381 355.11 209.345 355.157C209.169 355.375 208.833 355.615 208.336 355.88C207.839 356.14 207.4 356.231 207.018 356.153C206.784 356.105 206.582 355.989 206.411 355.805C206.24 355.626 206.19 355.36 206.262 355.009C206.334 354.657 206.498 354.331 206.754 354.031C205.401 355.16 204.419 355.663 203.807 355.538C203.564 355.488 203.385 355.361 203.268 355.156C203.156 354.952 203.119 354.759 203.156 354.577C203.194 354.391 203.259 354.205 203.351 354.02C203.444 353.831 203.535 353.664 203.623 353.52C203.716 353.376 203.842 353.201 204.002 352.994C204.166 352.788 204.287 352.638 204.365 352.546C204.443 352.453 204.563 352.315 204.728 352.131C204.897 351.945 205.118 351.694 205.39 351.378C205.667 351.064 205.888 350.836 206.052 350.693C206.222 350.547 206.37 350.487 206.496 350.513C206.623 350.534 206.723 350.607 206.798 350.73C206.872 350.854 206.902 350.948 206.889 351.013C206.876 351.079 206.67 351.342 206.273 351.803C205.096 353.181 204.482 353.998 204.429 354.254C204.416 354.319 204.433 354.357 204.481 354.367C204.689 354.409 205.3 354.064 206.313 353.33C207.327 352.597 207.924 352.118 208.106 351.893C208.289 351.664 208.458 351.474 208.615 351.326C208.777 351.178 208.892 351.091 208.961 351.064C209.172 350.981 209.426 350.965 209.723 351.016C209.771 351.026 209.807 351.036 209.832 351.045C209.858 351.055 209.88 351.098 209.901 351.175C209.921 351.251 209.928 351.309 209.92 351.348C209.856 351.462 209.616 351.749 209.201 352.212C208.79 352.675 208.559 352.937 208.511 353C207.782 353.954 207.385 354.592 207.319 354.913C207.282 355.095 207.333 355.2 207.472 355.229C207.731 355.245 208.076 355.106 208.507 354.81C208.665 354.702 208.82 354.591 208.975 354.478C209.133 354.366 209.23 354.302 209.265 354.286C209.301 354.267 209.34 354.261 209.383 354.27ZM211.579 353.152C212.841 352.198 213.832 351.795 214.552 351.942C214.73 351.979 214.864 352.063 214.955 352.194C215.051 352.322 215.082 352.471 215.047 352.64C215.012 352.81 214.833 353.069 214.508 353.419C214.189 353.765 213.899 354.054 213.639 354.285C213.502 354.402 213.365 354.446 213.226 354.418C213.091 354.39 212.995 354.319 212.937 354.203C212.884 354.088 212.871 353.963 212.898 353.829C212.96 353.529 213.189 353.224 213.588 352.912L213.577 352.896C213.432 352.88 213.018 353.089 212.337 353.524C211.66 353.96 211.077 354.356 210.588 354.713C210.105 355.066 209.567 355.508 208.975 356.038C208.802 356.197 208.668 356.267 208.572 356.247C208.481 356.229 208.366 356.176 208.225 356.088C208.081 355.995 207.997 355.933 207.972 355.901C207.942 355.868 207.934 355.821 207.946 355.76C207.959 355.699 207.99 355.633 208.041 355.562C208.093 355.487 208.181 355.385 208.307 355.257C208.428 355.128 208.616 354.918 208.87 354.626C209.128 354.335 209.525 353.897 210.061 353.31C210.597 352.723 210.918 352.368 211.025 352.245C211.248 351.993 211.425 351.812 211.556 351.703C211.802 351.496 212.157 351.439 212.621 351.534C212.726 351.555 212.764 351.631 212.738 351.761C212.696 351.965 212.429 352.311 211.936 352.798L211.579 353.152ZM216.989 356.91C216.95 357.101 217.06 357.223 217.321 357.276C217.46 357.304 217.648 357.27 217.884 357.174C218.125 357.079 218.347 356.966 218.55 356.835C219.093 356.481 219.395 356.31 219.455 356.322C219.568 356.345 219.591 356.519 219.525 356.845C219.458 357.17 219.311 357.373 219.082 357.453C218.347 357.886 217.798 358.128 217.434 358.181C217.23 358.207 217.013 358.194 216.784 358.143C216.555 358.091 216.348 357.945 216.162 357.704C215.976 357.462 215.912 357.203 215.968 356.925C216.026 356.643 216.165 356.339 216.385 356.013C216.606 355.687 216.817 355.414 217.021 355.194C217.229 354.969 217.481 354.713 217.775 354.425C218.07 354.133 218.232 353.947 218.262 353.867L218.251 353.851C218.106 353.835 217.692 354.045 217.011 354.479C216.334 354.915 215.769 355.299 215.317 355.632C214.865 355.965 214.313 356.419 213.662 356.996C213.48 357.153 213.344 357.223 213.253 357.204C213.162 357.185 213.046 357.132 212.906 357.045C212.762 356.952 212.675 356.889 212.646 356.856C212.616 356.823 212.607 356.78 212.618 356.728C212.628 356.676 212.656 356.616 212.702 356.549C212.748 356.477 212.791 356.42 212.832 356.379C212.868 356.332 212.93 356.263 213.016 356.172C213.103 356.081 213.275 355.888 213.535 355.593C213.799 355.295 214.199 354.852 214.735 354.265C215.271 353.679 215.592 353.324 215.699 353.201C215.922 352.948 216.099 352.767 216.23 352.658C216.476 352.451 216.831 352.395 217.295 352.49C217.4 352.511 217.438 352.587 217.412 352.717C217.37 352.921 217.103 353.266 216.61 353.753L216.253 354.107C217.174 353.428 217.915 353.03 218.477 352.914C218.751 352.857 218.988 352.849 219.187 352.89C219.391 352.931 219.541 353.019 219.636 353.151C219.735 353.284 219.771 353.418 219.743 353.553C219.717 353.683 219.639 353.832 219.51 354C219.381 354.164 219.254 354.31 219.129 354.438C219.008 354.562 218.849 354.72 218.652 354.91C218.455 355.1 218.348 355.205 218.33 355.224C218.314 355.239 218.268 355.284 218.194 355.359C218.125 355.431 218.074 355.483 218.04 355.517C218.006 355.551 217.948 355.611 217.867 355.699C217.787 355.782 217.72 355.852 217.668 355.909C217.62 355.967 217.558 356.038 217.482 356.122C217.411 356.207 217.35 356.28 217.301 356.343C217.257 356.406 217.209 356.475 217.157 356.551C217.065 356.69 217.009 356.81 216.989 356.91ZM224.572 354.35C224.902 354.417 225.044 354.564 224.997 354.79C224.973 354.911 224.926 354.994 224.858 355.039C224.79 355.084 224.63 355.248 224.378 355.531C224.131 355.81 223.844 356.177 223.516 356.63C223.193 357.079 222.964 357.473 222.827 357.811C222.805 357.852 222.786 357.911 222.77 357.99C222.721 358.228 222.762 358.361 222.892 358.388C223.022 358.414 223.189 358.385 223.391 358.3C223.595 358.21 223.781 358.11 223.948 358C224.116 357.885 224.28 357.767 224.441 357.646C224.605 357.526 224.703 357.458 224.733 357.441C224.764 357.425 224.805 357.422 224.857 357.433C224.94 357.45 224.977 357.523 224.968 357.652C224.96 357.782 224.942 357.914 224.915 358.048C224.887 358.183 224.855 358.273 224.818 358.32C224.642 358.542 224.303 358.782 223.803 359.042C223.306 359.302 222.883 359.396 222.531 359.324C222.184 359.253 221.95 359.095 221.828 358.848C221.707 358.602 221.672 358.351 221.724 358.095C221.778 357.834 221.868 357.615 221.994 357.438C221.538 357.833 221.043 358.145 220.507 358.375C219.977 358.605 219.564 358.691 219.268 358.63C218.973 358.57 218.751 358.432 218.6 358.216C218.407 357.945 218.35 357.615 218.43 357.225C218.511 356.83 218.678 356.452 218.933 356.093C219.192 355.73 219.498 355.415 219.851 355.148C220.205 354.877 220.581 354.642 220.979 354.443C221.815 354.026 222.536 353.88 223.144 354.004C223.378 354.052 223.561 354.13 223.693 354.238C223.824 354.346 223.898 354.463 223.913 354.588C224.049 354.453 224.156 354.373 224.233 354.348C224.316 354.32 224.429 354.321 224.572 354.35ZM223.558 354.895C222.816 354.744 221.964 354.999 221.001 355.661C220.659 355.899 220.326 356.199 220.003 356.563C219.684 356.927 219.51 357.185 219.478 357.337C219.447 357.489 219.475 357.574 219.562 357.592C219.684 357.616 220.071 357.447 220.724 357.083C221.378 356.715 221.819 356.437 222.048 356.248C222.299 356.037 222.802 355.586 223.558 354.895ZM224.015 359.431L223.698 359.353L223.581 359.329C223.541 359.307 223.5 359.271 223.461 359.223C223.416 359.173 223.383 359.137 223.361 359.114C223.338 359.091 223.331 359.058 223.34 359.015C223.35 358.967 223.384 358.89 223.442 358.785C224.668 357.096 225.791 355.775 226.809 354.821C226.92 354.717 227.078 354.654 227.281 354.632C227.49 354.607 227.685 354.613 227.867 354.65C227.976 354.673 228.013 354.768 227.978 354.938C227.968 354.985 227.938 355.047 227.886 355.122C227.836 355.193 227.722 355.306 227.546 355.46C227.37 355.614 227.162 355.788 226.923 355.983C226.685 356.179 226.549 356.291 226.516 356.321C227.236 355.826 227.866 355.478 228.404 355.276C228.948 355.07 229.326 354.989 229.539 355.033C229.756 355.077 229.908 355.174 229.995 355.323C230.087 355.468 230.119 355.613 230.09 355.756C230.061 355.895 230.026 356.01 229.985 356.101C229.949 356.188 229.895 356.279 229.821 356.372C229.749 356.461 229.685 356.539 229.631 356.605C229.582 356.667 229.503 356.748 229.392 356.847C229.282 356.943 229.205 357.008 229.162 357.045C229.122 357.082 229.038 357.15 228.909 357.251C228.785 357.352 228.717 357.408 228.705 357.419C228.852 357.322 229.058 357.177 229.323 356.983C229.589 356.788 229.812 356.626 229.993 356.496C230.177 356.366 230.403 356.224 230.669 356.071C230.937 355.913 231.181 355.791 231.402 355.705C231.931 355.506 232.436 355.456 232.918 355.554C233.083 355.588 233.211 355.668 233.303 355.795C233.394 355.923 233.425 356.06 233.395 356.208C233.366 356.351 233.119 356.662 232.655 357.141C232.191 357.616 231.727 358.096 231.262 358.579C230.802 359.059 230.558 359.371 230.529 359.514C230.488 359.714 230.5 359.841 230.566 359.895C230.633 359.945 230.719 359.976 230.825 359.989C230.931 360.001 231.09 359.964 231.302 359.876C231.519 359.789 231.715 359.694 231.89 359.589C232.173 359.421 232.437 359.256 232.683 359.094C232.734 359.063 232.786 359.054 232.838 359.064C232.921 359.081 232.958 359.154 232.949 359.284C232.941 359.413 232.923 359.545 232.896 359.679C232.868 359.814 232.836 359.905 232.799 359.951C232.624 360.169 232.285 360.409 231.784 360.673C231.282 360.937 230.834 361.028 230.439 360.947C230.391 360.938 230.357 360.928 230.336 360.92C229.898 360.785 229.613 360.6 229.48 360.365C229.352 360.126 229.317 359.868 229.374 359.59C229.43 359.313 229.592 358.995 229.86 358.639C230.132 358.283 230.413 357.967 230.704 357.692C230.996 357.417 231.261 357.171 231.5 356.953C231.744 356.731 231.868 356.61 231.873 356.588C231.877 356.566 231.862 356.552 231.827 356.545C231.693 356.517 231.349 356.673 230.796 357.012C229.85 357.592 229.018 358.168 228.3 358.74C228.11 358.891 227.656 359.28 226.936 359.906C226.853 359.979 226.74 360.001 226.596 359.972C226.458 359.944 226.318 359.888 226.176 359.805C226.036 359.717 225.975 359.63 225.992 359.543C226.001 359.5 226.47 358.963 227.4 357.932C228.33 356.897 228.806 356.328 228.828 356.223C228.85 356.115 228.796 356.047 228.666 356.021C228.54 355.995 228.238 356.132 227.761 356.433C226.448 357.258 225.384 358.128 224.569 359.042C224.517 359.095 224.422 359.175 224.283 359.282C224.143 359.389 224.054 359.439 224.015 359.431ZM237.608 357.096C237.549 357.382 237.381 357.61 237.102 357.779C236.828 357.949 236.543 358.004 236.248 357.944C236.152 357.924 236.094 357.89 236.072 357.84C236.052 357.786 236.049 357.722 236.064 357.648C236.079 357.575 236.102 357.505 236.134 357.439C235.967 357.459 235.777 357.504 235.564 357.573C235.351 357.643 235.084 357.755 234.762 357.911C234.441 358.067 234.27 358.197 234.249 358.301C234.242 358.336 234.288 358.364 234.388 358.384C234.492 358.405 234.657 358.403 234.884 358.377C235.112 358.347 235.267 358.34 235.35 358.357C235.436 358.375 235.492 358.39 235.516 358.404C235.566 358.446 235.613 358.526 235.657 358.644C235.702 358.757 235.718 358.844 235.706 358.904C235.694 358.961 235.622 359.025 235.49 359.098C235.357 359.17 235.214 359.218 235.06 359.24C234.908 359.259 234.804 359.276 234.751 359.293C233.731 359.617 233.201 359.875 233.162 360.066C233.093 360.405 233.347 360.633 233.924 360.751C234.293 360.826 234.688 360.785 235.109 360.627C235.467 360.492 235.792 360.349 236.086 360.196C236.385 360.04 236.571 359.945 236.646 359.91C236.725 359.877 236.782 359.864 236.817 359.871C236.93 359.894 236.961 360.031 236.909 360.283C236.858 360.535 236.808 360.699 236.761 360.775C236.715 360.847 236.608 360.927 236.441 361.015C235.358 361.58 234.402 361.778 233.573 361.608C233.13 361.518 232.789 361.385 232.549 361.209C232.108 360.888 231.934 360.5 232.027 360.045C232.15 359.446 232.657 359.077 233.549 358.938C233.399 358.831 233.312 358.716 233.287 358.593C233.263 358.466 233.277 358.277 233.329 358.025C233.381 357.769 233.553 357.524 233.845 357.29C234.142 357.052 234.481 356.877 234.861 356.765C235.709 356.509 236.433 356.442 237.032 356.564C237.175 356.594 237.313 356.658 237.446 356.758C237.58 356.857 237.634 356.97 237.608 357.096Z" fill="#6E839E"/>
<path d="M140.952 172.4L146.284 180.495L157.305 171.714" stroke="#3EA37D" stroke-width="3.52464" stroke-miterlimit="10" stroke-linecap="round" stroke-linejoin="round"/>
<path d="M133.983 212.802L139.312 220.906L150.336 212.117" stroke="#3EA37D" stroke-width="3.52464" stroke-miterlimit="10" stroke-linecap="round" stroke-linejoin="round"/>
<path d="M117.588 294.496L122.919 302.591L133.943 293.802" stroke="#3EA37D" stroke-width="3.52464" stroke-miterlimit="10" stroke-linecap="round" stroke-linejoin="round"/>
</g>
<defs>
<clipPath id="clip0">
<rect width="269" height="374" fill="white" transform="translate(141.861 0.986328) rotate(22.26)"/>
</clipPath>
</defs>
</svg>
