<svg width="55" height="55" viewBox="0 0 55 55" fill="none" xmlns="http://www.w3.org/2000/svg">
<g clip-path="url(#clip0)">
<path d="M22.9043 53.0863C22.9043 54.6506 24.1719 55.9189 25.7363 55.9189H29.5123C31.0762 55.9189 32.3442 54.6506 32.3442 53.0863V47.421H22.9043V53.0863Z" fill="#EBEBEB"/>
<path d="M18.4558 37.1827C17.6303 36.6507 16.8518 36.0477 16.13 35.3815C15.5137 37.7516 13.1846 39.2546 10.7716 38.8397C8.35814 38.4248 6.66466 36.2307 6.87439 33.7904C7.08411 31.3501 9.12744 29.4774 11.5764 29.4811C11.7207 29.4811 11.8594 29.5111 11.9972 29.5235C11.1025 27.4198 10.6412 25.1575 10.6416 22.8716H9.43995L8.78773 25.9749C8.72274 26.2842 8.50748 26.5406 8.21433 26.6577C7.92071 26.7753 7.58838 26.7379 7.32841 26.5586L4.71998 24.7601L1.88799 27.5927L3.68149 30.2012C3.86079 30.4617 3.89813 30.7941 3.78059 31.0873C3.66351 31.381 3.40723 31.5963 3.09841 31.6609L0 32.3137V36.0905L3.10209 36.7429C3.41092 36.8079 3.6672 37.0232 3.78474 37.3164C3.90182 37.6096 3.86448 37.9425 3.68518 38.2025L1.88799 40.8116L4.71998 43.6442L7.32841 41.8498C7.58838 41.6705 7.92117 41.6327 8.21479 41.7502C8.5084 41.8673 8.72366 42.1241 8.78865 42.4335L9.43995 45.5326H13.2159L13.8672 42.4289C13.9322 42.1191 14.1475 41.8627 14.4411 41.7456C14.7347 41.6281 15.0675 41.6654 15.3275 41.8452L17.9359 43.6442L20.8993 40.6802C20.5886 39.233 19.7077 37.972 18.4558 37.1827Z" fill="#FFD508"/>
<path d="M44.6167 22.8717C44.6158 14.7228 38.8324 7.72104 30.832 6.18301C22.8315 4.64499 14.8652 9.00272 11.8442 16.5707C8.82322 24.1386 11.5971 32.7863 18.4563 37.1828C20.0281 38.1574 20.9938 39.8674 21.0168 41.7171V45.5326C21.0168 47.0969 22.2844 48.3652 23.8488 48.3652H31.4008C32.9647 48.3652 34.2327 47.0969 34.2327 45.5326V41.7954C34.2567 39.902 35.2417 38.1509 36.8476 37.1477C41.6939 34.0182 44.6199 28.6416 44.6167 22.8717Z" fill="#00DD80"/>
<path d="M50.4622 12.8828L53.4302 10.6564L50.0317 6.12398L47.0637 8.35034C46.453 8.80815 45.6265 8.85287 44.9697 8.46375C44.3129 8.07464 43.9552 7.32822 44.0626 6.57257L44.5867 2.90041L38.9794 2.09912L38.4553 5.77083C38.3479 6.52739 37.7952 7.14426 37.0554 7.33375C36.3156 7.5237 35.5344 7.24892 35.0762 6.63758L32.8508 3.66896L28.3198 7.06819L30.5447 10.0368C31.0024 10.6482 31.0471 11.4743 30.6581 12.1313C30.2691 12.7883 29.5228 13.1461 28.7674 13.0386L25.096 12.5144L24.2944 18.123L27.9667 18.6472C28.7226 18.755 29.3394 19.3078 29.5288 20.0478C29.7183 20.7878 29.4435 21.5692 28.8323 22.0275L25.8653 24.2538L29.2638 28.7859L32.2308 26.5604C32.8416 26.1021 33.6685 26.057 34.3258 26.4461C34.9826 26.8352 35.3408 27.5821 35.2329 28.3382L34.7042 32.0094L40.3115 32.8112L40.8402 29.1381C40.948 28.382 41.5007 27.7656 42.2405 27.5761C42.9803 27.3861 43.7616 27.6614 44.2193 28.2723L46.4456 31.24L50.9766 27.8407L48.7498 24.873C48.2917 24.2621 48.2465 23.435 48.6355 22.7776C49.0246 22.1206 49.7713 21.7624 50.5272 21.8707L54.1986 22.3954L55.0001 16.7869L51.3288 16.2622C50.5733 16.1539 49.957 15.6015 49.7671 14.8616C49.5777 14.1221 49.8519 13.3411 50.4622 12.8828ZM39.6477 24.0639C35.9981 24.0639 33.0398 21.105 33.0398 17.4545C33.0398 13.8044 35.9981 10.845 39.6477 10.845C43.2974 10.845 46.2557 13.8044 46.2557 17.4545C46.2557 21.105 43.2974 24.0639 39.6477 24.0639Z" fill="#EEC707"/>
<path d="M22.9043 50.2536H32.3442V52.142H22.9043V50.2536Z" fill="#9E9E9E"/>
<path d="M26.6807 42.7H28.5686V45.5326H26.6807V42.7Z" fill="#FFAA00"/>
<path d="M28.5683 40.8115H26.6803C26.6794 38.315 25.1403 36.0771 22.8098 35.1837C18.1641 33.3667 14.9366 29.0883 14.4655 24.121C13.9944 19.1538 16.3595 14.3447 20.5807 11.6864L21.5824 13.2839C17.9631 15.5619 15.9345 19.6845 16.3383 23.9431C16.7416 28.2012 19.5081 31.8693 23.4911 33.4266C26.5508 34.5972 28.5706 37.5349 28.5683 40.8115Z" fill="#00AA63"/>
<path d="M46.5045 36.0906H51.2245C51.7458 36.0906 52.1685 36.5129 52.1685 37.0348C52.1685 37.5562 51.7458 37.979 51.2245 37.979H46.5045C45.9832 37.979 45.5605 37.5562 45.5605 37.0348C45.5605 36.5129 45.9832 36.0906 46.5045 36.0906Z" fill="#00AA63"/>
<path d="M44.6163 41.7563C44.95 41.3556 45.5451 41.3012 45.9457 41.635L50.1595 45.1467C50.5601 45.4805 50.6145 46.0757 50.2807 46.4764C49.9466 46.877 49.3515 46.9314 48.9509 46.5976L44.7371 43.0859C44.3365 42.7521 44.2826 42.1569 44.6163 41.7563Z" fill="#00AA63"/>
<path d="M40.8405 43.6442C41.3618 43.6442 41.7845 44.0665 41.7845 44.5884V49.3094C41.7845 49.8309 41.3618 50.2537 40.8405 50.2537C40.3192 50.2537 39.8965 49.8309 39.8965 49.3094V44.5884C39.8965 44.0665 40.3192 43.6442 40.8405 43.6442Z" fill="#00AA63"/>
<path d="M0.935823 17.0045L6.65603 15.5753C7.16214 15.449 7.67423 15.7565 7.80053 16.2622C7.92683 16.768 7.61938 17.2802 7.11328 17.4065L1.39307 18.8357C0.886963 18.9621 0.374864 18.6546 0.248568 18.1488C0.122272 17.643 0.429716 17.1308 0.935823 17.0045Z" fill="#00AA63"/>
<path d="M2.13622 6.82063C2.43905 6.39647 3.02859 6.29873 3.45265 6.60164L8.52386 10.2249C8.94838 10.5278 9.04656 11.1175 8.74372 11.5417C8.44089 11.9658 7.85135 12.064 7.42729 11.7606L2.35608 8.13735C1.93156 7.83445 1.83338 7.24478 2.13622 6.82063Z" fill="#00AA63"/>
<path d="M10.5903 1.154C11.0955 1.02491 11.6094 1.32966 11.7385 1.83495L13.2015 7.55874C13.3306 8.06404 13.0259 8.57856 12.5207 8.70765C12.0155 8.83674 11.5016 8.53153 11.3725 8.0267L9.9095 2.30291C9.78044 1.79761 10.0851 1.28309 10.5903 1.154Z" fill="#00AA63"/>
</g>
<defs>
<clipPath id="clip0">
<rect width="55" height="55" fill="white"/>
</clipPath>
</defs>
</svg>
