<svg width="31" height="24" viewBox="0 0 31 24" fill="none" xmlns="http://www.w3.org/2000/svg">
<path d="M30.4779 3.59614C29.8067 3.86896 29.11 4.08419 28.395 4.24001C29.1828 3.55381 29.7751 2.69552 30.1093 1.73751C30.2046 1.46402 29.8806 1.22752 29.6112 1.37396C28.6166 1.91474 27.5453 2.32042 26.4269 2.57987C26.362 2.59493 26.295 2.60256 26.2279 2.60256C26.0241 2.60256 25.8261 2.53322 25.6703 2.40738C24.4804 1.44606 22.95 0.916626 21.3611 0.916626C20.6736 0.916626 19.9795 1.01486 19.2979 1.20862C17.1862 1.80901 15.5568 3.40576 15.0456 5.37578C14.8538 6.11471 14.8019 6.85431 14.8911 7.574C14.9014 7.6567 14.8587 7.71443 14.8324 7.7415C14.7862 7.78896 14.7208 7.81617 14.6528 7.81617C14.6452 7.81617 14.6374 7.81583 14.6297 7.81516C10.0072 7.42149 5.83882 5.3801 2.89241 2.06711C2.74216 1.89813 2.45404 1.91885 2.33428 2.10715C1.7573 3.01452 1.45238 4.05233 1.45238 5.10836C1.45238 6.72678 2.16172 8.25196 3.39383 9.36383C2.87569 9.25122 2.3742 9.07387 1.90836 8.83669C1.68299 8.72192 1.40569 8.86944 1.40252 9.10573C1.37026 11.51 2.90589 13.6493 5.2063 14.6127C5.15998 14.6137 5.11365 14.6142 5.06725 14.6142C4.7026 14.6142 4.33339 14.5819 3.97 14.5182C3.7162 14.4738 3.50298 14.6945 3.58178 14.9201C4.32846 17.0569 6.3356 18.632 8.7375 18.9896C6.74406 20.2163 4.42266 20.8633 2.00653 20.8633L1.25331 20.8629C1.02123 20.8629 0.824951 21.0016 0.765809 21.2076C0.707551 21.4106 0.814861 21.6246 1.01276 21.7302C3.73535 23.1826 6.84084 23.9502 9.99487 23.9502C12.7557 23.9502 15.3382 23.448 17.6707 22.4575C19.809 21.5496 21.6986 20.2516 23.287 18.5998C24.7666 17.061 25.9237 15.2847 26.7259 13.3202C27.4906 11.4476 27.8948 9.44951 27.8948 7.54186V7.45099C27.8947 7.14469 28.0459 6.85647 28.3095 6.66028C29.3101 5.91561 30.1814 5.03903 30.8991 4.05489C31.0886 3.79504 30.7897 3.46935 30.4779 3.59614Z" fill="#76A9EA"/>
</svg>
