<svg width="26" height="26" viewBox="0 0 26 26" fill="none" xmlns="http://www.w3.org/2000/svg">
<g clip-path="url(#clip0)">
<path d="M25.1178 11.8827C24.529 11.294 23.8233 10.9997 23.0004 10.9997H22.0006V6.99975C22.0006 6.58321 21.8961 6.12465 21.6876 5.62488C21.4793 5.12488 21.2295 4.72909 20.9379 4.43739L18.5626 2.06231C18.271 1.77089 17.8752 1.52078 17.3754 1.31233C16.8753 1.10409 16.4172 0.999939 16.0003 0.999939H5.50014C5.08345 0.999939 4.72919 1.14568 4.43749 1.43738C4.14596 1.72891 4 2.08311 4 2.49986V10.9997H3.00007C2.17713 10.9997 1.47141 11.2941 0.882759 11.8827C0.294217 12.4712 0 13.1769 0 13.9999V20.5001C0 20.6357 0.0495286 20.7523 0.148422 20.8518C0.247424 20.9505 0.364651 20.9999 0.499938 20.9999H4V23.4999C4 23.9168 4.14579 24.271 4.43749 24.5626C4.72919 24.854 5.08345 25 5.50014 25H20.5001C20.9166 25 21.2714 24.854 21.5628 24.5626C21.8544 24.2707 22.0003 23.9168 22.0003 23.4999V20.9999H25.5003C25.6355 20.9999 25.7528 20.9505 25.8517 20.8518C25.9506 20.7524 26 20.6357 26 20.5001V13.9999C26.0002 13.1769 25.7061 12.4712 25.1178 11.8827ZM20.0002 23H6.00014V19.0001H20.0002V23ZM20.0002 12.9999H6.00014V2.99997H16.0003V5.49988C16.0003 5.91657 16.1464 6.27061 16.4377 6.56236C16.7292 6.85406 17.0834 6.9998 17.5003 6.9998H20.0002V12.9999ZM23.7035 14.703C23.5057 14.9007 23.2712 15 23.0004 15C22.7295 15 22.4951 14.9008 22.2973 14.703C22.0995 14.5054 22.0006 14.2707 22.0006 13.9999C22.0006 13.729 22.0995 13.4946 22.2973 13.2968C22.495 13.0988 22.7295 12.9998 23.0004 12.9998C23.2712 12.9998 23.5056 13.0988 23.7035 13.2968C23.9012 13.4946 24.0005 13.729 24.0005 13.9999C24.0005 14.2707 23.9014 14.5054 23.7035 14.703Z" fill="#2E3754"/>
</g>
<defs>
<clipPath id="clip0">
<rect width="26" height="25.9999" fill="white"/>
</clipPath>
</defs>
</svg>
